<svg xmlns="http://www.w3.org/2000/svg" version="1.1" width="473" height="169">
<path d="M 43.140625 154.621094 L 43.140625 139.328125 L 44.078125 139.328125 L 44.078125 154.621094 Z " fill="rgb(0, 0, 0)" fill-opacity="1.000000" />
<path d="M 43.140625 162.093750 L 43.140625 153.328125 L 44.078125 153.328125 L 44.078125 161.085938 L 47.341797 161.085938 L 47.341797 162.093750 Z " fill="rgb(0, 0, 0)" fill-opacity="1.000000" />
<path d="M 47.882812 162.093750 L 47.882812 161.085938 L 55.341797 161.085938 L 55.341797 162.093750 Z " fill="rgb(0, 0, 0)" fill-opacity="1.000000" />
<path d="M 55.882812 162.093750 L 55.882812 161.085938 L 63.341797 161.085938 L 63.341797 162.093750 Z " fill="rgb(0, 0, 0)" fill-opacity="1.000000" />
<path d="M 63.882812 162.093750 L 63.882812 161.085938 L 71.341797 161.085938 L 71.341797 162.093750 Z " fill="rgb(0, 0, 0)" fill-opacity="1.000000" />
<path d="M 71.882812 162.093750 L 71.882812 161.085938 L 79.341797 161.085938 L 79.341797 162.093750 Z " fill="rgb(0, 0, 0)" fill-opacity="1.000000" />
<path d="M 79.882812 162.093750 L 79.882812 161.085938 L 87.341797 161.085938 L 87.341797 162.093750 Z " fill="rgb(0, 0, 0)" fill-opacity="1.000000" />
<path d="M 87.882812 162.093750 L 87.882812 161.085938 L 95.341797 161.085938 L 95.341797 162.093750 Z " fill="rgb(0, 0, 0)" fill-opacity="1.000000" />
<path d="M 95.882812 162.093750 L 95.882812 161.085938 L 103.341797 161.085938 L 103.341797 162.093750 Z " fill="rgb(0, 0, 0)" fill-opacity="1.000000" />
<path d="M 103.882812 162.093750 L 103.882812 161.085938 L 111.341797 161.085938 L 111.341797 162.093750 Z " fill="rgb(0, 0, 0)" fill-opacity="1.000000" />
<path d="M 111.882812 162.093750 L 111.882812 161.085938 L 119.341797 161.085938 L 119.341797 162.093750 Z " fill="rgb(0, 0, 0)" fill-opacity="1.000000" />
<path d="M 119.882812 162.093750 L 119.882812 161.085938 L 127.341797 161.085938 L 127.341797 162.093750 Z " fill="rgb(0, 0, 0)" fill-opacity="1.000000" />
<path d="M 127.882812 162.093750 L 127.882812 161.085938 L 135.341797 161.085938 L 135.341797 162.093750 Z " fill="rgb(0, 0, 0)" fill-opacity="1.000000" />
<path d="M 135.882812 162.093750 L 135.882812 161.085938 L 143.341797 161.085938 L 143.341797 162.093750 Z " fill="rgb(0, 0, 0)" fill-opacity="1.000000" />
<path d="M 143.882812 162.093750 L 143.882812 161.085938 L 151.341797 161.085938 L 151.341797 162.093750 Z " fill="rgb(0, 0, 0)" fill-opacity="1.000000" />
<path d="M 151.882812 162.093750 L 151.882812 161.085938 L 159.341797 161.085938 L 159.341797 162.093750 Z " fill="rgb(0, 0, 0)" fill-opacity="1.000000" />
<path d="M 159.882812 162.093750 L 159.882812 161.085938 L 167.341797 161.085938 L 167.341797 162.093750 Z " fill="rgb(0, 0, 0)" fill-opacity="1.000000" />
<path d="M 167.882812 162.093750 L 167.882812 161.085938 L 171.140625 161.085938 L 171.140625 153.328125 L 172.078125 153.328125 L 172.078125 162.093750 Z " fill="rgb(0, 0, 0)" fill-opacity="1.000000" />
<path d="M 175.361328 168.621094 L 182.820312 153.328125 L 183.863281 153.328125 L 176.404297 168.621094 Z " fill="rgb(0, 0, 0)" fill-opacity="1.000000" />
<path d="M 267.140625 162.093750 L 267.140625 153.328125 L 268.078125 153.328125 L 268.078125 161.085938 L 271.341797 161.085938 L 271.341797 162.093750 Z " fill="rgb(0, 0, 0)" fill-opacity="1.000000" />
<path d="M 271.882812 162.093750 L 271.882812 161.085938 L 279.341797 161.085938 L 279.341797 162.093750 Z " fill="rgb(0, 0, 0)" fill-opacity="1.000000" />
<path d="M 279.882812 162.093750 L 279.882812 161.085938 L 287.341797 161.085938 L 287.341797 162.093750 Z " fill="rgb(0, 0, 0)" fill-opacity="1.000000" />
<path d="M 287.882812 162.093750 L 287.882812 161.085938 L 295.341797 161.085938 L 295.341797 162.093750 Z " fill="rgb(0, 0, 0)" fill-opacity="1.000000" />
<path d="M 295.882812 162.093750 L 295.882812 161.085938 L 303.341797 161.085938 L 303.341797 162.093750 Z " fill="rgb(0, 0, 0)" fill-opacity="1.000000" />
<path d="M 303.882812 162.093750 L 303.882812 161.085938 L 311.341797 161.085938 L 311.341797 162.093750 Z " fill="rgb(0, 0, 0)" fill-opacity="1.000000" />
<path d="M 311.882812 162.093750 L 311.882812 161.085938 L 319.341797 161.085938 L 319.341797 162.093750 Z " fill="rgb(0, 0, 0)" fill-opacity="1.000000" />
<path d="M 319.882812 162.093750 L 319.882812 161.085938 L 327.341797 161.085938 L 327.341797 162.093750 Z " fill="rgb(0, 0, 0)" fill-opacity="1.000000" />
<path d="M 327.882812 162.093750 L 327.882812 161.085938 L 335.341797 161.085938 L 335.341797 162.093750 Z " fill="rgb(0, 0, 0)" fill-opacity="1.000000" />
<path d="M 335.882812 162.093750 L 335.882812 161.085938 L 343.341797 161.085938 L 343.341797 162.093750 Z " fill="rgb(0, 0, 0)" fill-opacity="1.000000" />
<path d="M 343.882812 162.093750 L 343.882812 161.085938 L 351.341797 161.085938 L 351.341797 162.093750 Z " fill="rgb(0, 0, 0)" fill-opacity="1.000000" />
<path d="M 351.882812 162.093750 L 351.882812 161.085938 L 359.341797 161.085938 L 359.341797 162.093750 Z " fill="rgb(0, 0, 0)" fill-opacity="1.000000" />
<path d="M 359.882812 162.093750 L 359.882812 161.085938 L 367.341797 161.085938 L 367.341797 162.093750 Z " fill="rgb(0, 0, 0)" fill-opacity="1.000000" />
<path d="M 367.882812 162.093750 L 367.882812 161.085938 L 375.341797 161.085938 L 375.341797 162.093750 Z " fill="rgb(0, 0, 0)" fill-opacity="1.000000" />
<path d="M 375.882812 162.093750 L 375.882812 161.085938 L 383.341797 161.085938 L 383.341797 162.093750 Z " fill="rgb(0, 0, 0)" fill-opacity="1.000000" />
<path d="M 383.882812 162.093750 L 383.882812 161.085938 L 391.341797 161.085938 L 391.341797 162.093750 Z " fill="rgb(0, 0, 0)" fill-opacity="1.000000" />
<path d="M 391.882812 162.093750 L 391.882812 161.085938 L 395.140625 161.085938 L 395.140625 153.328125 L 396.078125 153.328125 L 396.078125 162.093750 Z " fill="rgb(0, 0, 0)" fill-opacity="1.000000" />
<path d="M 89.365234 142.251953 L 94.515625 142.251953 L 94.515625 143.248047 L 90.554688 143.248047 L 90.554688 145.591797 L 94.146484 145.591797 L 94.146484 146.587891 L 90.554688 146.587891 L 90.554688 151.000000 L 89.365234 151.000000 Z " fill="rgb(0, 0, 0)" fill-opacity="1.000000" />
<path d="M 97.851562 144.460938 L 100.611328 144.460938 L 100.611328 150.162109 L 102.750000 150.162109 L 102.750000 151.000000 L 97.394531 151.000000 L 97.394531 150.162109 L 99.533203 150.162109 L 99.533203 145.298828 L 97.851562 145.298828 Z M 99.533203 141.912109 L 100.611328 141.912109 L 100.611328 143.271484 L 99.533203 143.271484 Z " fill="rgb(0, 0, 0)" fill-opacity="1.000000" />
<path d="M 108.212891 148.626953 Q 108.212891 149.353516 108.479492 149.722656 Q 108.746094 150.091797 109.267578 150.091797 L 110.527344 150.091797 L 110.527344 151.000000 L 109.162109 151.000000 Q 108.195312 151.000000 107.665039 150.381836 Q 107.134766 149.763672 107.134766 148.626953 L 107.134766 142.691406 L 105.406250 142.691406 L 105.406250 141.847656 L 108.212891 141.847656 Z " fill="rgb(0, 0, 0)" fill-opacity="1.000000" />
<path d="M 118.562500 147.179688 L 118.562500 147.707031 L 113.892578 147.707031 L 113.892578 147.742188 Q 113.845703 149.083984 114.405273 149.669922 Q 114.964844 150.255859 115.984375 150.255859 Q 116.500000 150.255859 117.062500 150.091797 Q 117.625000 149.927734 118.263672 149.593750 L 118.263672 150.666016 Q 117.648438 150.917969 117.077148 151.043945 Q 116.505859 151.169922 115.972656 151.169922 Q 114.443359 151.169922 113.582031 150.252930 Q 112.720703 149.335938 112.720703 147.724609 Q 112.720703 146.154297 113.564453 145.216797 Q 114.408203 144.279297 115.814453 144.279297 Q 117.068359 144.279297 117.791992 145.128906 Q 118.515625 145.978516 118.562500 147.179688 Z M 117.484375 146.863281 Q 117.414062 146.183594 116.989258 145.688477 Q 116.564453 145.193359 115.767578 145.193359 Q 114.988281 145.193359 114.484375 145.708984 Q 113.980469 146.224609 113.933594 146.869141 Z " fill="rgb(0, 0, 0)" fill-opacity="1.000000" />
<path d="M 171.140625 154.621094 L 171.140625 139.328125 L 172.078125 139.328125 L 172.078125 154.621094 Z " fill="rgb(0, 0, 0)" fill-opacity="1.000000" />
<path d="M 175.882812 148.093750 L 175.882812 147.085938 L 183.341797 147.085938 L 183.341797 148.093750 Z " fill="rgb(0, 0, 0)" fill-opacity="1.000000" />
<path d="M 186.179688 145.410156 Q 184.750000 146.230469 184.750000 147.882812 Q 184.750000 149.535156 186.179688 150.355469 Q 186.894531 150.771484 187.609375 150.771484 Q 188.324219 150.771484 189.039062 150.355469 Q 190.474609 149.529297 190.474609 147.882812 Q 190.474609 146.236328 189.039062 145.410156 Q 188.324219 144.994141 187.609375 144.994141 Q 186.894531 144.994141 186.179688 145.410156 Z M 185.822266 150.976562 Q 184.035156 149.945312 184.035156 147.882812 Q 184.035156 145.820312 185.822266 144.789062 Q 186.712891 144.273438 187.609375 144.273438 Q 188.500000 144.273438 189.396484 144.789062 Q 191.189453 145.820312 191.189453 147.882812 Q 191.189453 149.945312 189.396484 150.976562 Q 188.500000 151.492188 187.609375 151.492188 Q 186.712891 151.492188 185.822266 150.976562 Z " fill="rgb(0, 0, 0)" fill-opacity="1.000000" />
<path d="M 191.882812 148.093750 L 191.882812 147.085938 L 199.341797 147.085938 L 199.341797 148.093750 Z " fill="rgb(0, 0, 0)" fill-opacity="1.000000" />
<path d="M 199.882812 148.093750 L 199.882812 147.085938 L 207.341797 147.085938 L 207.341797 148.093750 Z " fill="rgb(0, 0, 0)" fill-opacity="1.000000" />
<path d="M 207.882812 148.093750 L 207.882812 147.085938 L 215.341797 147.085938 L 215.341797 148.093750 Z " fill="rgb(0, 0, 0)" fill-opacity="1.000000" />
<path d="M 215.882812 148.093750 L 215.882812 147.085938 L 223.341797 147.085938 L 223.341797 148.093750 Z " fill="rgb(0, 0, 0)" fill-opacity="1.000000" />
<path d="M 223.882812 148.093750 L 223.882812 147.085938 L 231.341797 147.085938 L 231.341797 148.093750 Z " fill="rgb(0, 0, 0)" fill-opacity="1.000000" />
<path d="M 231.882812 148.093750 L 231.882812 147.085938 L 239.341797 147.085938 L 239.341797 148.093750 Z " fill="rgb(0, 0, 0)" fill-opacity="1.000000" />
<path d="M 239.882812 148.093750 L 239.882812 147.085938 L 247.341797 147.085938 L 247.341797 148.093750 Z " fill="rgb(0, 0, 0)" fill-opacity="1.000000" />
<path d="M 247.882812 148.093750 L 247.882812 147.085938 L 255.341797 147.085938 L 255.341797 148.093750 Z " fill="rgb(0, 0, 0)" fill-opacity="1.000000" />
<path d="M 260.078125 148.093750 L 260.078125 154.621094 L 259.140625 154.621094 L 259.140625 148.093750 L 255.882812 148.093750 L 255.882812 147.085938 L 259.140625 147.085938 L 259.140625 139.328125 L 260.078125 139.328125 L 260.078125 147.085938 L 263.341797 147.085938 L 263.341797 148.093750 Z " fill="rgb(0, 0, 0)" fill-opacity="1.000000" />
<path d="M 267.140625 154.621094 L 267.140625 139.328125 L 268.078125 139.328125 L 268.078125 154.621094 Z " fill="rgb(0, 0, 0)" fill-opacity="1.000000" />
<path d="M 276.453125 146.869141 Q 276.910156 146.986328 277.232422 147.311523 Q 277.554688 147.636719 278.035156 148.609375 L 279.224609 151.000000 L 277.953125 151.000000 L 276.910156 148.791016 Q 276.458984 147.847656 276.098633 147.575195 Q 275.738281 147.302734 275.158203 147.302734 L 274.027344 147.302734 L 274.027344 151.000000 L 272.837891 151.000000 L 272.837891 142.251953 L 275.275391 142.251953 Q 276.716797 142.251953 277.484375 142.902344 Q 278.251953 143.552734 278.251953 144.783203 Q 278.251953 145.650391 277.780273 146.198242 Q 277.308594 146.746094 276.453125 146.869141 Z M 274.027344 143.224609 L 274.027344 146.330078 L 275.322266 146.330078 Q 276.171875 146.330078 276.587891 145.949219 Q 277.003906 145.568359 277.003906 144.783203 Q 277.003906 144.027344 276.561523 143.625977 Q 276.119141 143.224609 275.275391 143.224609 Z " fill="rgb(0, 0, 0)" fill-opacity="1.000000" />
<path d="M 286.562500 147.179688 L 286.562500 147.707031 L 281.892578 147.707031 L 281.892578 147.742188 Q 281.845703 149.083984 282.405273 149.669922 Q 282.964844 150.255859 283.984375 150.255859 Q 284.500000 150.255859 285.062500 150.091797 Q 285.625000 149.927734 286.263672 149.593750 L 286.263672 150.666016 Q 285.648438 150.917969 285.077148 151.043945 Q 284.505859 151.169922 283.972656 151.169922 Q 282.443359 151.169922 281.582031 150.252930 Q 280.720703 149.335938 280.720703 147.724609 Q 280.720703 146.154297 281.564453 145.216797 Q 282.408203 144.279297 283.814453 144.279297 Q 285.068359 144.279297 285.791992 145.128906 Q 286.515625 145.978516 286.562500 147.179688 Z M 285.484375 146.863281 Q 285.414062 146.183594 284.989258 145.688477 Q 284.564453 145.193359 283.767578 145.193359 Q 282.988281 145.193359 282.484375 145.708984 Q 281.980469 146.224609 281.933594 146.869141 Z " fill="rgb(0, 0, 0)" fill-opacity="1.000000" />
<path d="M 290.197266 150.173828 L 290.197266 153.496094 L 289.113281 153.496094 L 289.113281 144.437500 L 290.197266 144.437500 L 290.197266 145.275391 Q 290.466797 144.789062 290.915039 144.534180 Q 291.363281 144.279297 291.949219 144.279297 Q 293.138672 144.279297 293.815430 145.199219 Q 294.492188 146.119141 294.492188 147.748047 Q 294.492188 149.347656 293.812500 150.258789 Q 293.132812 151.169922 291.949219 151.169922 Q 291.351562 151.169922 290.903320 150.915039 Q 290.455078 150.660156 290.197266 150.173828 Z M 293.361328 147.724609 Q 293.361328 146.470703 292.965820 145.832031 Q 292.570312 145.193359 291.791016 145.193359 Q 291.005859 145.193359 290.601562 145.834961 Q 290.197266 146.476562 290.197266 147.724609 Q 290.197266 148.966797 290.601562 149.611328 Q 291.005859 150.255859 291.791016 150.255859 Q 292.570312 150.255859 292.965820 149.617188 Q 293.361328 148.978516 293.361328 147.724609 Z " fill="rgb(0, 0, 0)" fill-opacity="1.000000" />
<path d="M 302.767578 145.791016 Q 302.421875 145.521484 302.064453 145.398438 Q 301.707031 145.275391 301.279297 145.275391 Q 300.271484 145.275391 299.738281 145.908203 Q 299.205078 146.541016 299.205078 147.736328 L 299.205078 151.000000 L 298.121094 151.000000 L 298.121094 144.437500 L 299.205078 144.437500 L 299.205078 145.720703 Q 299.474609 145.023438 300.034180 144.651367 Q 300.593750 144.279297 301.361328 144.279297 Q 301.759766 144.279297 302.105469 144.378906 Q 302.451172 144.478516 302.767578 144.689453 Z " fill="rgb(0, 0, 0)" fill-opacity="1.000000" />
<path d="M 310.562500 147.179688 L 310.562500 147.707031 L 305.892578 147.707031 L 305.892578 147.742188 Q 305.845703 149.083984 306.405273 149.669922 Q 306.964844 150.255859 307.984375 150.255859 Q 308.500000 150.255859 309.062500 150.091797 Q 309.625000 149.927734 310.263672 149.593750 L 310.263672 150.666016 Q 309.648438 150.917969 309.077148 151.043945 Q 308.505859 151.169922 307.972656 151.169922 Q 306.443359 151.169922 305.582031 150.252930 Q 304.720703 149.335938 304.720703 147.724609 Q 304.720703 146.154297 305.564453 145.216797 Q 306.408203 144.279297 307.814453 144.279297 Q 309.068359 144.279297 309.791992 145.128906 Q 310.515625 145.978516 310.562500 147.179688 Z M 309.484375 146.863281 Q 309.414062 146.183594 308.989258 145.688477 Q 308.564453 145.193359 307.767578 145.193359 Q 306.988281 145.193359 306.484375 145.708984 Q 305.980469 146.224609 305.933594 146.869141 Z " fill="rgb(0, 0, 0)" fill-opacity="1.000000" />
<path d="M 317.701172 144.666016 L 317.701172 145.720703 Q 317.238281 145.451172 316.769531 145.316406 Q 316.300781 145.181641 315.814453 145.181641 Q 315.082031 145.181641 314.721680 145.418945 Q 314.361328 145.656250 314.361328 146.142578 Q 314.361328 146.582031 314.630859 146.798828 Q 314.900391 147.015625 315.972656 147.220703 L 316.406250 147.302734 Q 317.208984 147.455078 317.622070 147.912109 Q 318.035156 148.369141 318.035156 149.101562 Q 318.035156 150.074219 317.343750 150.622070 Q 316.652344 151.169922 315.421875 151.169922 Q 314.935547 151.169922 314.402344 151.067383 Q 313.869141 150.964844 313.248047 150.759766 L 313.248047 149.646484 Q 313.851562 149.957031 314.402344 150.112305 Q 314.953125 150.267578 315.445312 150.267578 Q 316.160156 150.267578 316.552734 149.977539 Q 316.945312 149.687500 316.945312 149.166016 Q 316.945312 148.416016 315.509766 148.128906 L 315.462891 148.117188 L 315.058594 148.035156 Q 314.126953 147.853516 313.699219 147.422852 Q 313.271484 146.992188 313.271484 146.248047 Q 313.271484 145.304688 313.910156 144.791992 Q 314.548828 144.279297 315.732422 144.279297 Q 316.259766 144.279297 316.746094 144.375977 Q 317.232422 144.472656 317.701172 144.666016 Z " fill="rgb(0, 0, 0)" fill-opacity="1.000000" />
<path d="M 326.562500 147.179688 L 326.562500 147.707031 L 321.892578 147.707031 L 321.892578 147.742188 Q 321.845703 149.083984 322.405273 149.669922 Q 322.964844 150.255859 323.984375 150.255859 Q 324.500000 150.255859 325.062500 150.091797 Q 325.625000 149.927734 326.263672 149.593750 L 326.263672 150.666016 Q 325.648438 150.917969 325.077148 151.043945 Q 324.505859 151.169922 323.972656 151.169922 Q 322.443359 151.169922 321.582031 150.252930 Q 320.720703 149.335938 320.720703 147.724609 Q 320.720703 146.154297 321.564453 145.216797 Q 322.408203 144.279297 323.814453 144.279297 Q 325.068359 144.279297 325.791992 145.128906 Q 326.515625 145.978516 326.562500 147.179688 Z M 325.484375 146.863281 Q 325.414062 146.183594 324.989258 145.688477 Q 324.564453 145.193359 323.767578 145.193359 Q 322.988281 145.193359 322.484375 145.708984 Q 321.980469 146.224609 321.933594 146.869141 Z " fill="rgb(0, 0, 0)" fill-opacity="1.000000" />
<path d="M 334.158203 146.933594 L 334.158203 151.000000 L 333.074219 151.000000 L 333.074219 146.933594 Q 333.074219 146.048828 332.763672 145.632812 Q 332.453125 145.216797 331.791016 145.216797 Q 331.035156 145.216797 330.627930 145.752930 Q 330.220703 146.289062 330.220703 147.291016 L 330.220703 151.000000 L 329.142578 151.000000 L 329.142578 144.437500 L 330.220703 144.437500 L 330.220703 145.421875 Q 330.507812 144.859375 331.000000 144.569336 Q 331.492188 144.279297 332.166016 144.279297 Q 333.167969 144.279297 333.663086 144.938477 Q 334.158203 145.597656 334.158203 146.933594 Z " fill="rgb(0, 0, 0)" fill-opacity="1.000000" />
<path d="M 339.597656 142.574219 L 339.597656 144.437500 L 342.046875 144.437500 L 342.046875 145.275391 L 339.597656 145.275391 L 339.597656 148.837891 Q 339.597656 149.564453 339.873047 149.851562 Q 340.148438 150.138672 340.833984 150.138672 L 342.046875 150.138672 L 342.046875 151.000000 L 340.728516 151.000000 Q 339.515625 151.000000 339.017578 150.513672 Q 338.519531 150.027344 338.519531 148.837891 L 338.519531 145.275391 L 336.767578 145.275391 L 336.767578 144.437500 L 338.519531 144.437500 L 338.519531 142.574219 Z " fill="rgb(0, 0, 0)" fill-opacity="1.000000" />
<path d="M 348.113281 147.701172 L 347.755859 147.701172 Q 346.812500 147.701172 346.334961 148.032227 Q 345.857422 148.363281 345.857422 149.019531 Q 345.857422 149.611328 346.214844 149.939453 Q 346.572266 150.267578 347.205078 150.267578 Q 348.095703 150.267578 348.605469 149.649414 Q 349.115234 149.031250 349.121094 147.941406 L 349.121094 147.701172 Z M 350.205078 147.255859 L 350.205078 151.000000 L 349.121094 151.000000 L 349.121094 150.027344 Q 348.775391 150.613281 348.250977 150.891602 Q 347.726562 151.169922 346.976562 151.169922 Q 345.974609 151.169922 345.376953 150.604492 Q 344.779297 150.039062 344.779297 149.089844 Q 344.779297 147.994141 345.514648 147.425781 Q 346.250000 146.857422 347.673828 146.857422 L 349.121094 146.857422 L 349.121094 146.687500 Q 349.115234 145.902344 348.722656 145.547852 Q 348.330078 145.193359 347.468750 145.193359 Q 346.917969 145.193359 346.355469 145.351562 Q 345.792969 145.509766 345.259766 145.814453 L 345.259766 144.736328 Q 345.857422 144.507812 346.405273 144.393555 Q 346.953125 144.279297 347.468750 144.279297 Q 348.283203 144.279297 348.860352 144.519531 Q 349.437500 144.759766 349.794922 145.240234 Q 350.017578 145.533203 350.111328 145.963867 Q 350.205078 146.394531 350.205078 147.255859 Z " fill="rgb(0, 0, 0)" fill-opacity="1.000000" />
<path d="M 355.597656 142.574219 L 355.597656 144.437500 L 358.046875 144.437500 L 358.046875 145.275391 L 355.597656 145.275391 L 355.597656 148.837891 Q 355.597656 149.564453 355.873047 149.851562 Q 356.148438 150.138672 356.833984 150.138672 L 358.046875 150.138672 L 358.046875 151.000000 L 356.728516 151.000000 Q 355.515625 151.000000 355.017578 150.513672 Q 354.519531 150.027344 354.519531 148.837891 L 354.519531 145.275391 L 352.767578 145.275391 L 352.767578 144.437500 L 354.519531 144.437500 L 354.519531 142.574219 Z " fill="rgb(0, 0, 0)" fill-opacity="1.000000" />
<path d="M 361.851562 144.460938 L 364.611328 144.460938 L 364.611328 150.162109 L 366.750000 150.162109 L 366.750000 151.000000 L 361.394531 151.000000 L 361.394531 150.162109 L 363.533203 150.162109 L 363.533203 145.298828 L 361.851562 145.298828 Z M 363.533203 141.912109 L 364.611328 141.912109 L 364.611328 143.271484 L 363.533203 143.271484 Z " fill="rgb(0, 0, 0)" fill-opacity="1.000000" />
<path d="M 371.609375 145.193359 Q 370.789062 145.193359 370.367188 145.832031 Q 369.945312 146.470703 369.945312 147.724609 Q 369.945312 148.972656 370.367188 149.614258 Q 370.789062 150.255859 371.609375 150.255859 Q 372.435547 150.255859 372.857422 149.614258 Q 373.279297 148.972656 373.279297 147.724609 Q 373.279297 146.470703 372.857422 145.832031 Q 372.435547 145.193359 371.609375 145.193359 Z M 371.609375 144.279297 Q 372.974609 144.279297 373.698242 145.164062 Q 374.421875 146.048828 374.421875 147.724609 Q 374.421875 149.406250 373.701172 150.288086 Q 372.980469 151.169922 371.609375 151.169922 Q 370.244141 151.169922 369.523438 150.288086 Q 368.802734 149.406250 368.802734 147.724609 Q 368.802734 146.048828 369.523438 145.164062 Q 370.244141 144.279297 371.609375 144.279297 Z " fill="rgb(0, 0, 0)" fill-opacity="1.000000" />
<path d="M 382.158203 146.933594 L 382.158203 151.000000 L 381.074219 151.000000 L 381.074219 146.933594 Q 381.074219 146.048828 380.763672 145.632812 Q 380.453125 145.216797 379.791016 145.216797 Q 379.035156 145.216797 378.627930 145.752930 Q 378.220703 146.289062 378.220703 147.291016 L 378.220703 151.000000 L 377.142578 151.000000 L 377.142578 144.437500 L 378.220703 144.437500 L 378.220703 145.421875 Q 378.507812 144.859375 379.000000 144.569336 Q 379.492188 144.279297 380.166016 144.279297 Q 381.167969 144.279297 381.663086 144.938477 Q 382.158203 145.597656 382.158203 146.933594 Z " fill="rgb(0, 0, 0)" fill-opacity="1.000000" />
<path d="M 395.140625 154.621094 L 395.140625 139.328125 L 396.078125 139.328125 L 396.078125 154.621094 Z " fill="rgb(0, 0, 0)" fill-opacity="1.000000" />
<path d="M 13.701172 116.666016 L 13.701172 117.720703 Q 13.238281 117.451172 12.769531 117.316406 Q 12.300781 117.181641 11.814453 117.181641 Q 11.082031 117.181641 10.721680 117.418945 Q 10.361328 117.656250 10.361328 118.142578 Q 10.361328 118.582031 10.630859 118.798828 Q 10.900391 119.015625 11.972656 119.220703 L 12.406250 119.302734 Q 13.208984 119.455078 13.622070 119.912109 Q 14.035156 120.369141 14.035156 121.101562 Q 14.035156 122.074219 13.343750 122.622070 Q 12.652344 123.169922 11.421875 123.169922 Q 10.935547 123.169922 10.402344 123.067383 Q 9.869141 122.964844 9.248047 122.759766 L 9.248047 121.646484 Q 9.851562 121.957031 10.402344 122.112305 Q 10.953125 122.267578 11.445312 122.267578 Q 12.160156 122.267578 12.552734 121.977539 Q 12.945312 121.687500 12.945312 121.166016 Q 12.945312 120.416016 11.509766 120.128906 L 11.462891 120.117188 L 11.058594 120.035156 Q 10.126953 119.853516 9.699219 119.422852 Q 9.271484 118.992188 9.271484 118.248047 Q 9.271484 117.304688 9.910156 116.791992 Q 10.548828 116.279297 11.732422 116.279297 Q 12.259766 116.279297 12.746094 116.375977 Q 13.232422 116.472656 13.701172 116.666016 Z " fill="rgb(0, 0, 0)" fill-opacity="1.000000" />
<path d="M 43.140625 140.621094 L 43.140625 133.085938 L 47.341797 133.085938 L 47.341797 134.093750 L 44.078125 134.093750 L 44.078125 140.621094 Z " fill="rgb(0, 0, 0)" fill-opacity="1.000000" />
<path d="M 47.882812 134.093750 L 47.882812 133.085938 L 55.341797 133.085938 L 55.341797 134.093750 Z " fill="rgb(0, 0, 0)" fill-opacity="1.000000" />
<path d="M 55.882812 134.093750 L 55.882812 133.085938 L 63.341797 133.085938 L 63.341797 134.093750 Z " fill="rgb(0, 0, 0)" fill-opacity="1.000000" />
<path d="M 63.882812 134.093750 L 63.882812 133.085938 L 71.341797 133.085938 L 71.341797 134.093750 Z " fill="rgb(0, 0, 0)" fill-opacity="1.000000" />
<path d="M 71.882812 134.093750 L 71.882812 133.085938 L 79.341797 133.085938 L 79.341797 134.093750 Z " fill="rgb(0, 0, 0)" fill-opacity="1.000000" />
<path d="M 79.882812 134.093750 L 79.882812 133.085938 L 87.341797 133.085938 L 87.341797 134.093750 Z " fill="rgb(0, 0, 0)" fill-opacity="1.000000" />
<path d="M 87.882812 134.093750 L 87.882812 133.085938 L 95.341797 133.085938 L 95.341797 134.093750 Z " fill="rgb(0, 0, 0)" fill-opacity="1.000000" />
<path d="M 95.882812 134.093750 L 95.882812 133.085938 L 103.341797 133.085938 L 103.341797 134.093750 Z " fill="rgb(0, 0, 0)" fill-opacity="1.000000" />
<path d="M 103.882812 134.093750 L 103.882812 133.085938 L 111.341797 133.085938 L 111.341797 134.093750 Z " fill="rgb(0, 0, 0)" fill-opacity="1.000000" />
<path d="M 111.882812 134.093750 L 111.882812 133.085938 L 119.341797 133.085938 L 119.341797 134.093750 Z " fill="rgb(0, 0, 0)" fill-opacity="1.000000" />
<path d="M 119.882812 134.093750 L 119.882812 133.085938 L 127.341797 133.085938 L 127.341797 134.093750 Z " fill="rgb(0, 0, 0)" fill-opacity="1.000000" />
<path d="M 127.882812 134.093750 L 127.882812 133.085938 L 135.341797 133.085938 L 135.341797 134.093750 Z " fill="rgb(0, 0, 0)" fill-opacity="1.000000" />
<path d="M 135.882812 134.093750 L 135.882812 133.085938 L 143.341797 133.085938 L 143.341797 134.093750 Z " fill="rgb(0, 0, 0)" fill-opacity="1.000000" />
<path d="M 143.882812 134.093750 L 143.882812 133.085938 L 151.341797 133.085938 L 151.341797 134.093750 Z " fill="rgb(0, 0, 0)" fill-opacity="1.000000" />
<path d="M 151.882812 134.093750 L 151.882812 133.085938 L 159.341797 133.085938 L 159.341797 134.093750 Z " fill="rgb(0, 0, 0)" fill-opacity="1.000000" />
<path d="M 159.882812 134.093750 L 159.882812 133.085938 L 167.341797 133.085938 L 167.341797 134.093750 Z " fill="rgb(0, 0, 0)" fill-opacity="1.000000" />
<path d="M 171.140625 140.621094 L 171.140625 134.093750 L 167.882812 134.093750 L 167.882812 133.085938 L 172.078125 133.085938 L 172.078125 140.621094 Z " fill="rgb(0, 0, 0)" fill-opacity="1.000000" />
<path d="M 183.863281 140.621094 L 182.820312 140.621094 L 175.361328 125.328125 L 176.404297 125.328125 Z " fill="rgb(0, 0, 0)" fill-opacity="1.000000" />
<path d="M 267.140625 140.621094 L 267.140625 133.085938 L 271.341797 133.085938 L 271.341797 134.093750 L 268.078125 134.093750 L 268.078125 140.621094 Z " fill="rgb(0, 0, 0)" fill-opacity="1.000000" />
<path d="M 271.882812 134.093750 L 271.882812 133.085938 L 279.341797 133.085938 L 279.341797 134.093750 Z " fill="rgb(0, 0, 0)" fill-opacity="1.000000" />
<path d="M 279.882812 134.093750 L 279.882812 133.085938 L 287.341797 133.085938 L 287.341797 134.093750 Z " fill="rgb(0, 0, 0)" fill-opacity="1.000000" />
<path d="M 287.882812 134.093750 L 287.882812 133.085938 L 295.341797 133.085938 L 295.341797 134.093750 Z " fill="rgb(0, 0, 0)" fill-opacity="1.000000" />
<path d="M 295.882812 134.093750 L 295.882812 133.085938 L 303.341797 133.085938 L 303.341797 134.093750 Z " fill="rgb(0, 0, 0)" fill-opacity="1.000000" />
<path d="M 303.882812 134.093750 L 303.882812 133.085938 L 311.341797 133.085938 L 311.341797 134.093750 Z " fill="rgb(0, 0, 0)" fill-opacity="1.000000" />
<path d="M 311.882812 134.093750 L 311.882812 133.085938 L 319.341797 133.085938 L 319.341797 134.093750 Z " fill="rgb(0, 0, 0)" fill-opacity="1.000000" />
<path d="M 319.882812 134.093750 L 319.882812 133.085938 L 327.341797 133.085938 L 327.341797 134.093750 Z " fill="rgb(0, 0, 0)" fill-opacity="1.000000" />
<path d="M 327.882812 134.093750 L 327.882812 133.085938 L 335.341797 133.085938 L 335.341797 134.093750 Z " fill="rgb(0, 0, 0)" fill-opacity="1.000000" />
<path d="M 335.882812 134.093750 L 335.882812 133.085938 L 343.341797 133.085938 L 343.341797 134.093750 Z " fill="rgb(0, 0, 0)" fill-opacity="1.000000" />
<path d="M 343.882812 134.093750 L 343.882812 133.085938 L 351.341797 133.085938 L 351.341797 134.093750 Z " fill="rgb(0, 0, 0)" fill-opacity="1.000000" />
<path d="M 351.882812 134.093750 L 351.882812 133.085938 L 359.341797 133.085938 L 359.341797 134.093750 Z " fill="rgb(0, 0, 0)" fill-opacity="1.000000" />
<path d="M 359.882812 134.093750 L 359.882812 133.085938 L 367.341797 133.085938 L 367.341797 134.093750 Z " fill="rgb(0, 0, 0)" fill-opacity="1.000000" />
<path d="M 367.882812 134.093750 L 367.882812 133.085938 L 375.341797 133.085938 L 375.341797 134.093750 Z " fill="rgb(0, 0, 0)" fill-opacity="1.000000" />
<path d="M 375.882812 134.093750 L 375.882812 133.085938 L 383.341797 133.085938 L 383.341797 134.093750 Z " fill="rgb(0, 0, 0)" fill-opacity="1.000000" />
<path d="M 383.882812 134.093750 L 383.882812 133.085938 L 391.341797 133.085938 L 391.341797 134.093750 Z " fill="rgb(0, 0, 0)" fill-opacity="1.000000" />
<path d="M 395.140625 140.621094 L 395.140625 134.093750 L 391.882812 134.093750 L 391.882812 133.085938 L 396.078125 133.085938 L 396.078125 140.621094 Z " fill="rgb(0, 0, 0)" fill-opacity="1.000000" />
<path d="M 18.197266 122.173828 L 18.197266 125.496094 L 17.113281 125.496094 L 17.113281 116.437500 L 18.197266 116.437500 L 18.197266 117.275391 Q 18.466797 116.789062 18.915039 116.534180 Q 19.363281 116.279297 19.949219 116.279297 Q 21.138672 116.279297 21.815430 117.199219 Q 22.492188 118.119141 22.492188 119.748047 Q 22.492188 121.347656 21.812500 122.258789 Q 21.132812 123.169922 19.949219 123.169922 Q 19.351562 123.169922 18.903320 122.915039 Q 18.455078 122.660156 18.197266 122.173828 Z M 21.361328 119.724609 Q 21.361328 118.470703 20.965820 117.832031 Q 20.570312 117.193359 19.791016 117.193359 Q 19.005859 117.193359 18.601562 117.834961 Q 18.197266 118.476562 18.197266 119.724609 Q 18.197266 120.966797 18.601562 121.611328 Q 19.005859 122.255859 19.791016 122.255859 Q 20.570312 122.255859 20.965820 121.617188 Q 21.361328 120.978516 21.361328 119.724609 Z " fill="rgb(0, 0, 0)" fill-opacity="1.000000" />
<path d="M 28.212891 120.626953 Q 28.212891 121.353516 28.479492 121.722656 Q 28.746094 122.091797 29.267578 122.091797 L 30.527344 122.091797 L 30.527344 123.000000 L 29.162109 123.000000 Q 28.195312 123.000000 27.665039 122.381836 Q 27.134766 121.763672 27.134766 120.626953 L 27.134766 114.691406 L 25.406250 114.691406 L 25.406250 113.847656 L 28.212891 113.847656 Z " fill="rgb(0, 0, 0)" fill-opacity="1.000000" />
<path d="M 33.851562 116.460938 L 36.611328 116.460938 L 36.611328 122.162109 L 38.750000 122.162109 L 38.750000 123.000000 L 33.394531 123.000000 L 33.394531 122.162109 L 35.533203 122.162109 L 35.533203 117.298828 L 33.851562 117.298828 Z M 35.533203 113.912109 L 36.611328 113.912109 L 36.611328 115.271484 L 35.533203 115.271484 Z " fill="rgb(0, 0, 0)" fill-opacity="1.000000" />
<path d="M 43.597656 114.574219 L 43.597656 116.437500 L 46.046875 116.437500 L 46.046875 117.275391 L 43.597656 117.275391 L 43.597656 120.837891 Q 43.597656 121.564453 43.873047 121.851562 Q 44.148438 122.138672 44.833984 122.138672 L 46.046875 122.138672 L 46.046875 123.000000 L 44.728516 123.000000 Q 43.515625 123.000000 43.017578 122.513672 Q 42.519531 122.027344 42.519531 120.837891 L 42.519531 117.275391 L 40.767578 117.275391 L 40.767578 116.437500 L 42.519531 116.437500 L 42.519531 114.574219 Z " fill="rgb(0, 0, 0)" fill-opacity="1.000000" />
<path d="M 48.597656 118.757812 L 54.808594 118.757812 L 54.808594 119.748047 L 48.597656 119.748047 Z " fill="rgb(0, 0, 0)" fill-opacity="1.000000" />
<path d="M 57.851562 116.460938 L 60.611328 116.460938 L 60.611328 122.162109 L 62.750000 122.162109 L 62.750000 123.000000 L 57.394531 123.000000 L 57.394531 122.162109 L 59.533203 122.162109 L 59.533203 117.298828 L 57.851562 117.298828 Z M 59.533203 113.912109 L 60.611328 113.912109 L 60.611328 115.271484 L 59.533203 115.271484 Z " fill="rgb(0, 0, 0)" fill-opacity="1.000000" />
<path d="M 70.158203 118.933594 L 70.158203 123.000000 L 69.074219 123.000000 L 69.074219 118.933594 Q 69.074219 118.048828 68.763672 117.632812 Q 68.453125 117.216797 67.791016 117.216797 Q 67.035156 117.216797 66.627930 117.752930 Q 66.220703 118.289062 66.220703 119.291016 L 66.220703 123.000000 L 65.142578 123.000000 L 65.142578 116.437500 L 66.220703 116.437500 L 66.220703 117.421875 Q 66.507812 116.859375 67.000000 116.569336 Q 67.492188 116.279297 68.166016 116.279297 Q 69.167969 116.279297 69.663086 116.938477 Q 70.158203 117.597656 70.158203 118.933594 Z " fill="rgb(0, 0, 0)" fill-opacity="1.000000" />
<path d="M 75.597656 114.574219 L 75.597656 116.437500 L 78.046875 116.437500 L 78.046875 117.275391 L 75.597656 117.275391 L 75.597656 120.837891 Q 75.597656 121.564453 75.873047 121.851562 Q 76.148438 122.138672 76.833984 122.138672 L 78.046875 122.138672 L 78.046875 123.000000 L 76.728516 123.000000 Q 75.515625 123.000000 75.017578 122.513672 Q 74.519531 122.027344 74.519531 120.837891 L 74.519531 117.275391 L 72.767578 117.275391 L 72.767578 116.437500 L 74.519531 116.437500 L 74.519531 114.574219 Z " fill="rgb(0, 0, 0)" fill-opacity="1.000000" />
<path d="M 83.609375 117.193359 Q 82.789062 117.193359 82.367188 117.832031 Q 81.945312 118.470703 81.945312 119.724609 Q 81.945312 120.972656 82.367188 121.614258 Q 82.789062 122.255859 83.609375 122.255859 Q 84.435547 122.255859 84.857422 121.614258 Q 85.279297 120.972656 85.279297 119.724609 Q 85.279297 118.470703 84.857422 117.832031 Q 84.435547 117.193359 83.609375 117.193359 Z M 83.609375 116.279297 Q 84.974609 116.279297 85.698242 117.164062 Q 86.421875 118.048828 86.421875 119.724609 Q 86.421875 121.406250 85.701172 122.288086 Q 84.980469 123.169922 83.609375 123.169922 Q 82.244141 123.169922 81.523438 122.288086 Q 80.802734 121.406250 80.802734 119.724609 Q 80.802734 118.048828 81.523438 117.164062 Q 82.244141 116.279297 83.609375 116.279297 Z " fill="rgb(0, 0, 0)" fill-opacity="1.000000" />
<path d="M 95.361328 126.621094 L 102.820312 111.328125 L 103.863281 111.328125 L 96.404297 126.621094 Z " fill="rgb(0, 0, 0)" fill-opacity="1.000000" />
<path d="M 107.140625 126.621094 L 107.140625 111.328125 L 108.078125 111.328125 L 108.078125 126.621094 Z " fill="rgb(0, 0, 0)" fill-opacity="1.000000" />
<path d="M 119.863281 126.621094 L 118.820312 126.621094 L 111.361328 111.328125 L 112.404297 111.328125 Z " fill="rgb(0, 0, 0)" fill-opacity="1.000000" />
<path d="M 275.140625 126.621094 L 275.140625 111.328125 L 276.078125 111.328125 L 276.078125 126.621094 Z " fill="rgb(0, 0, 0)" fill-opacity="1.000000" />
<path d="M 387.140625 126.621094 L 387.140625 111.328125 L 388.078125 111.328125 L 388.078125 126.621094 Z " fill="rgb(0, 0, 0)" fill-opacity="1.000000" />
<path d="M 106.179688 103.410156 Q 104.750000 104.230469 104.750000 105.882812 Q 104.750000 107.535156 106.179688 108.355469 Q 106.894531 108.771484 107.609375 108.771484 Q 108.324219 108.771484 109.039062 108.355469 Q 110.474609 107.529297 110.474609 105.882812 Q 110.474609 104.236328 109.039062 103.410156 Q 108.324219 102.994141 107.609375 102.994141 Q 106.894531 102.994141 106.179688 103.410156 Z M 105.822266 108.976562 Q 104.035156 107.945312 104.035156 105.882812 Q 104.035156 103.820312 105.822266 102.789062 Q 106.712891 102.273438 107.609375 102.273438 Q 108.500000 102.273438 109.396484 102.789062 Q 111.189453 103.820312 111.189453 105.882812 Q 111.189453 107.945312 109.396484 108.976562 Q 108.500000 109.492188 107.609375 109.492188 Q 106.712891 109.492188 105.822266 108.976562 Z " fill="rgb(0, 0, 0)" fill-opacity="1.000000" />
<path d="M 275.140625 112.621094 L 275.140625 97.328125 L 276.078125 97.328125 L 276.078125 112.621094 Z " fill="rgb(0, 0, 0)" fill-opacity="1.000000" />
<path d="M 387.140625 112.621094 L 387.140625 97.328125 L 388.078125 97.328125 L 388.078125 112.621094 Z " fill="rgb(0, 0, 0)" fill-opacity="1.000000" />
<path d="M 107.140625 84.621094 L 107.140625 69.328125 L 108.078125 69.328125 L 108.078125 84.621094 Z " fill="rgb(0, 0, 0)" fill-opacity="1.000000" />
<path d="M 107.140625 98.621094 L 107.140625 83.328125 L 108.078125 83.328125 L 108.078125 98.621094 Z " fill="rgb(0, 0, 0)" fill-opacity="1.000000" />
<path d="M 275.140625 84.621094 L 275.140625 69.328125 L 276.078125 69.328125 L 276.078125 84.621094 Z " fill="rgb(0, 0, 0)" fill-opacity="1.000000" />
<path d="M 275.140625 98.621094 L 275.140625 83.328125 L 276.078125 83.328125 L 276.078125 98.621094 Z " fill="rgb(0, 0, 0)" fill-opacity="1.000000" />
<path d="M 387.140625 84.621094 L 387.140625 69.328125 L 388.078125 69.328125 L 388.078125 84.621094 Z " fill="rgb(0, 0, 0)" fill-opacity="1.000000" />
<path d="M 387.140625 98.621094 L 387.140625 83.328125 L 388.078125 83.328125 L 388.078125 98.621094 Z " fill="rgb(0, 0, 0)" fill-opacity="1.000000" />
<path d="M 34.197266 52.173828 L 34.197266 55.496094 L 33.113281 55.496094 L 33.113281 46.437500 L 34.197266 46.437500 L 34.197266 47.275391 Q 34.466797 46.789062 34.915039 46.534180 Q 35.363281 46.279297 35.949219 46.279297 Q 37.138672 46.279297 37.815430 47.199219 Q 38.492188 48.119141 38.492188 49.748047 Q 38.492188 51.347656 37.812500 52.258789 Q 37.132812 53.169922 35.949219 53.169922 Q 35.351562 53.169922 34.903320 52.915039 Q 34.455078 52.660156 34.197266 52.173828 Z M 37.361328 49.724609 Q 37.361328 48.470703 36.965820 47.832031 Q 36.570312 47.193359 35.791016 47.193359 Q 35.005859 47.193359 34.601562 47.834961 Q 34.197266 48.476562 34.197266 49.724609 Q 34.197266 50.966797 34.601562 51.611328 Q 35.005859 52.255859 35.791016 52.255859 Q 36.570312 52.255859 36.965820 51.617188 Q 37.361328 50.978516 37.361328 49.724609 Z " fill="rgb(0, 0, 0)" fill-opacity="1.000000" />
<path d="M 106.179688 61.410156 Q 104.750000 62.230469 104.750000 63.882812 Q 104.750000 65.535156 106.179688 66.355469 Q 106.894531 66.771484 107.609375 66.771484 Q 108.324219 66.771484 109.039062 66.355469 Q 110.474609 65.529297 110.474609 63.882812 Q 110.474609 62.236328 109.039062 61.410156 Q 108.324219 60.994141 107.609375 60.994141 Q 106.894531 60.994141 106.179688 61.410156 Z M 105.822266 66.976562 Q 104.035156 65.945312 104.035156 63.882812 Q 104.035156 61.820312 105.822266 60.789062 Q 106.712891 60.273438 107.609375 60.273438 Q 108.500000 60.273438 109.396484 60.789062 Q 111.189453 61.820312 111.189453 63.882812 Q 111.189453 65.945312 109.396484 66.976562 Q 108.500000 67.492188 107.609375 67.492188 Q 106.712891 67.492188 105.822266 66.976562 Z " fill="rgb(0, 0, 0)" fill-opacity="1.000000" />
<path d="M 274.179688 61.410156 Q 272.750000 62.230469 272.750000 63.882812 Q 272.750000 65.535156 274.179688 66.355469 Q 274.894531 66.771484 275.609375 66.771484 Q 276.324219 66.771484 277.039062 66.355469 Q 278.474609 65.529297 278.474609 63.882812 Q 278.474609 62.236328 277.039062 61.410156 Q 276.324219 60.994141 275.609375 60.994141 Q 274.894531 60.994141 274.179688 61.410156 Z M 273.822266 66.976562 Q 272.035156 65.945312 272.035156 63.882812 Q 272.035156 61.820312 273.822266 60.789062 Q 274.712891 60.273438 275.609375 60.273438 Q 276.500000 60.273438 277.396484 60.789062 Q 279.189453 61.820312 279.189453 63.882812 Q 279.189453 65.945312 277.396484 66.976562 Q 276.500000 67.492188 275.609375 67.492188 Q 274.712891 67.492188 273.822266 66.976562 Z " fill="rgb(0, 0, 0)" fill-opacity="1.000000" />
<path d="M 386.179688 61.410156 Q 384.750000 62.230469 384.750000 63.882812 Q 384.750000 65.535156 386.179688 66.355469 Q 386.894531 66.771484 387.609375 66.771484 Q 388.324219 66.771484 389.039062 66.355469 Q 390.474609 65.529297 390.474609 63.882812 Q 390.474609 62.236328 389.039062 61.410156 Q 388.324219 60.994141 387.609375 60.994141 Q 386.894531 60.994141 386.179688 61.410156 Z M 385.822266 66.976562 Q 384.035156 65.945312 384.035156 63.882812 Q 384.035156 61.820312 385.822266 60.789062 Q 386.712891 60.273438 387.609375 60.273438 Q 388.500000 60.273438 389.396484 60.789062 Q 391.189453 61.820312 391.189453 63.882812 Q 391.189453 65.945312 389.396484 66.976562 Q 388.500000 67.492188 387.609375 67.492188 Q 386.712891 67.492188 385.822266 66.976562 Z " fill="rgb(0, 0, 0)" fill-opacity="1.000000" />
<path d="M 44.113281 49.701172 L 43.755859 49.701172 Q 42.812500 49.701172 42.334961 50.032227 Q 41.857422 50.363281 41.857422 51.019531 Q 41.857422 51.611328 42.214844 51.939453 Q 42.572266 52.267578 43.205078 52.267578 Q 44.095703 52.267578 44.605469 51.649414 Q 45.115234 51.031250 45.121094 49.941406 L 45.121094 49.701172 Z M 46.205078 49.255859 L 46.205078 53.000000 L 45.121094 53.000000 L 45.121094 52.027344 Q 44.775391 52.613281 44.250977 52.891602 Q 43.726562 53.169922 42.976562 53.169922 Q 41.974609 53.169922 41.376953 52.604492 Q 40.779297 52.039062 40.779297 51.089844 Q 40.779297 49.994141 41.514648 49.425781 Q 42.250000 48.857422 43.673828 48.857422 L 45.121094 48.857422 L 45.121094 48.687500 Q 45.115234 47.902344 44.722656 47.547852 Q 44.330078 47.193359 43.468750 47.193359 Q 42.917969 47.193359 42.355469 47.351562 Q 41.792969 47.509766 41.259766 47.814453 L 41.259766 46.736328 Q 41.857422 46.507812 42.405273 46.393555 Q 42.953125 46.279297 43.468750 46.279297 Q 44.283203 46.279297 44.860352 46.519531 Q 45.437500 46.759766 45.794922 47.240234 Q 46.017578 47.533203 46.111328 47.963867 Q 46.205078 48.394531 46.205078 49.255859 Z " fill="rgb(0, 0, 0)" fill-opacity="1.000000" />
<path d="M 54.767578 47.791016 Q 54.421875 47.521484 54.064453 47.398438 Q 53.707031 47.275391 53.279297 47.275391 Q 52.271484 47.275391 51.738281 47.908203 Q 51.205078 48.541016 51.205078 49.736328 L 51.205078 53.000000 L 50.121094 53.000000 L 50.121094 46.437500 L 51.205078 46.437500 L 51.205078 47.720703 Q 51.474609 47.023438 52.034180 46.651367 Q 52.593750 46.279297 53.361328 46.279297 Q 53.759766 46.279297 54.105469 46.378906 Q 54.451172 46.478516 54.767578 46.689453 Z " fill="rgb(0, 0, 0)" fill-opacity="1.000000" />
<path d="M 59.597656 44.574219 L 59.597656 46.437500 L 62.046875 46.437500 L 62.046875 47.275391 L 59.597656 47.275391 L 59.597656 50.837891 Q 59.597656 51.564453 59.873047 51.851562 Q 60.148438 52.138672 60.833984 52.138672 L 62.046875 52.138672 L 62.046875 53.000000 L 60.728516 53.000000 Q 59.515625 53.000000 59.017578 52.513672 Q 58.519531 52.027344 58.519531 50.837891 L 58.519531 47.275391 L 56.767578 47.275391 L 56.767578 46.437500 L 58.519531 46.437500 L 58.519531 44.574219 Z " fill="rgb(0, 0, 0)" fill-opacity="1.000000" />
<path d="M 64.597656 48.757812 L 70.808594 48.757812 L 70.808594 49.748047 L 64.597656 49.748047 Z " fill="rgb(0, 0, 0)" fill-opacity="1.000000" />
<path d="M 75.609375 47.193359 Q 74.789062 47.193359 74.367188 47.832031 Q 73.945312 48.470703 73.945312 49.724609 Q 73.945312 50.972656 74.367188 51.614258 Q 74.789062 52.255859 75.609375 52.255859 Q 76.435547 52.255859 76.857422 51.614258 Q 77.279297 50.972656 77.279297 49.724609 Q 77.279297 48.470703 76.857422 47.832031 Q 76.435547 47.193359 75.609375 47.193359 Z M 75.609375 46.279297 Q 76.974609 46.279297 77.698242 47.164062 Q 78.421875 48.048828 78.421875 49.724609 Q 78.421875 51.406250 77.701172 52.288086 Q 76.980469 53.169922 75.609375 53.169922 Q 74.244141 53.169922 73.523438 52.288086 Q 72.802734 51.406250 72.802734 49.724609 Q 72.802734 48.048828 73.523438 47.164062 Q 74.244141 46.279297 75.609375 46.279297 Z " fill="rgb(0, 0, 0)" fill-opacity="1.000000" />
<path d="M 86.228516 43.882812 L 86.228516 44.779297 L 85.003906 44.779297 Q 84.423828 44.779297 84.198242 45.016602 Q 83.972656 45.253906 83.972656 45.857422 L 83.972656 46.437500 L 86.228516 46.437500 L 86.228516 47.275391 L 83.972656 47.275391 L 83.972656 53.000000 L 82.894531 53.000000 L 82.894531 47.275391 L 81.142578 47.275391 L 81.142578 46.437500 L 82.894531 46.437500 L 82.894531 45.980469 Q 82.894531 44.902344 83.389648 44.392578 Q 83.884766 43.882812 84.933594 43.882812 Z " fill="rgb(0, 0, 0)" fill-opacity="1.000000" />
<path d="M 103.863281 56.621094 L 102.820312 56.621094 L 95.361328 41.328125 L 96.404297 41.328125 Z " fill="rgb(0, 0, 0)" fill-opacity="1.000000" />
<path d="M 107.140625 56.621094 L 107.140625 41.328125 L 108.078125 41.328125 L 108.078125 56.621094 Z " fill="rgb(0, 0, 0)" fill-opacity="1.000000" />
<path d="M 111.361328 56.621094 L 118.820312 41.328125 L 119.863281 41.328125 L 112.404297 56.621094 Z " fill="rgb(0, 0, 0)" fill-opacity="1.000000" />
<path d="M 276.078125 50.093750 L 276.078125 56.621094 L 275.140625 56.621094 L 275.140625 50.093750 L 271.882812 50.093750 L 271.882812 49.085938 L 275.140625 49.085938 L 275.140625 41.328125 L 276.078125 41.328125 L 276.078125 49.085938 L 279.341797 49.085938 L 279.341797 50.093750 Z " fill="rgb(0, 0, 0)" fill-opacity="1.000000" />
<path d="M 291.609375 47.193359 Q 290.789062 47.193359 290.367188 47.832031 Q 289.945312 48.470703 289.945312 49.724609 Q 289.945312 50.972656 290.367188 51.614258 Q 290.789062 52.255859 291.609375 52.255859 Q 292.435547 52.255859 292.857422 51.614258 Q 293.279297 50.972656 293.279297 49.724609 Q 293.279297 48.470703 292.857422 47.832031 Q 292.435547 47.193359 291.609375 47.193359 Z M 291.609375 46.279297 Q 292.974609 46.279297 293.698242 47.164062 Q 294.421875 48.048828 294.421875 49.724609 Q 294.421875 51.406250 293.701172 52.288086 Q 292.980469 53.169922 291.609375 53.169922 Q 290.244141 53.169922 289.523438 52.288086 Q 288.802734 51.406250 288.802734 49.724609 Q 288.802734 48.048828 289.523438 47.164062 Q 290.244141 46.279297 291.609375 46.279297 Z " fill="rgb(0, 0, 0)" fill-opacity="1.000000" />
<path d="M 297.142578 50.515625 L 297.142578 46.449219 L 298.220703 46.449219 L 298.220703 50.515625 Q 298.220703 51.400391 298.534180 51.816406 Q 298.847656 52.232422 299.503906 52.232422 Q 300.265625 52.232422 300.669922 51.696289 Q 301.074219 51.160156 301.074219 50.158203 L 301.074219 46.449219 L 302.158203 46.449219 L 302.158203 53.000000 L 301.074219 53.000000 L 301.074219 52.015625 Q 300.787109 52.583984 300.291992 52.876953 Q 299.796875 53.169922 299.134766 53.169922 Q 298.126953 53.169922 297.634766 52.510742 Q 297.142578 51.851562 297.142578 50.515625 Z " fill="rgb(0, 0, 0)" fill-opacity="1.000000" />
<path d="M 307.597656 44.574219 L 307.597656 46.437500 L 310.046875 46.437500 L 310.046875 47.275391 L 307.597656 47.275391 L 307.597656 50.837891 Q 307.597656 51.564453 307.873047 51.851562 Q 308.148438 52.138672 308.833984 52.138672 L 310.046875 52.138672 L 310.046875 53.000000 L 308.728516 53.000000 Q 307.515625 53.000000 307.017578 52.513672 Q 306.519531 52.027344 306.519531 50.837891 L 306.519531 47.275391 L 304.767578 47.275391 L 304.767578 46.437500 L 306.519531 46.437500 L 306.519531 44.574219 Z " fill="rgb(0, 0, 0)" fill-opacity="1.000000" />
<path d="M 314.197266 52.173828 L 314.197266 55.496094 L 313.113281 55.496094 L 313.113281 46.437500 L 314.197266 46.437500 L 314.197266 47.275391 Q 314.466797 46.789062 314.915039 46.534180 Q 315.363281 46.279297 315.949219 46.279297 Q 317.138672 46.279297 317.815430 47.199219 Q 318.492188 48.119141 318.492188 49.748047 Q 318.492188 51.347656 317.812500 52.258789 Q 317.132812 53.169922 315.949219 53.169922 Q 315.351562 53.169922 314.903320 52.915039 Q 314.455078 52.660156 314.197266 52.173828 Z M 317.361328 49.724609 Q 317.361328 48.470703 316.965820 47.832031 Q 316.570312 47.193359 315.791016 47.193359 Q 315.005859 47.193359 314.601562 47.834961 Q 314.197266 48.476562 314.197266 49.724609 Q 314.197266 50.966797 314.601562 51.611328 Q 315.005859 52.255859 315.791016 52.255859 Q 316.570312 52.255859 316.965820 51.617188 Q 317.361328 50.978516 317.361328 49.724609 Z " fill="rgb(0, 0, 0)" fill-opacity="1.000000" />
<path d="M 321.142578 50.515625 L 321.142578 46.449219 L 322.220703 46.449219 L 322.220703 50.515625 Q 322.220703 51.400391 322.534180 51.816406 Q 322.847656 52.232422 323.503906 52.232422 Q 324.265625 52.232422 324.669922 51.696289 Q 325.074219 51.160156 325.074219 50.158203 L 325.074219 46.449219 L 326.158203 46.449219 L 326.158203 53.000000 L 325.074219 53.000000 L 325.074219 52.015625 Q 324.787109 52.583984 324.291992 52.876953 Q 323.796875 53.169922 323.134766 53.169922 Q 322.126953 53.169922 321.634766 52.510742 Q 321.142578 51.851562 321.142578 50.515625 Z " fill="rgb(0, 0, 0)" fill-opacity="1.000000" />
<path d="M 331.597656 44.574219 L 331.597656 46.437500 L 334.046875 46.437500 L 334.046875 47.275391 L 331.597656 47.275391 L 331.597656 50.837891 Q 331.597656 51.564453 331.873047 51.851562 Q 332.148438 52.138672 332.833984 52.138672 L 334.046875 52.138672 L 334.046875 53.000000 L 332.728516 53.000000 Q 331.515625 53.000000 331.017578 52.513672 Q 330.519531 52.027344 330.519531 50.837891 L 330.519531 47.275391 L 328.767578 47.275391 L 328.767578 46.437500 L 330.519531 46.437500 L 330.519531 44.574219 Z " fill="rgb(0, 0, 0)" fill-opacity="1.000000" />
<path d="M 388.078125 50.093750 L 388.078125 56.621094 L 387.140625 56.621094 L 387.140625 50.093750 L 383.882812 50.093750 L 383.882812 49.085938 L 387.140625 49.085938 L 387.140625 41.328125 L 388.078125 41.328125 L 388.078125 49.085938 L 391.341797 49.085938 L 391.341797 50.093750 Z " fill="rgb(0, 0, 0)" fill-opacity="1.000000" />
<path d="M 401.851562 46.460938 L 404.611328 46.460938 L 404.611328 52.162109 L 406.750000 52.162109 L 406.750000 53.000000 L 401.394531 53.000000 L 401.394531 52.162109 L 403.533203 52.162109 L 403.533203 47.298828 L 401.851562 47.298828 Z M 403.533203 43.912109 L 404.611328 43.912109 L 404.611328 45.271484 L 403.533203 45.271484 Z " fill="rgb(0, 0, 0)" fill-opacity="1.000000" />
<path d="M 414.158203 48.933594 L 414.158203 53.000000 L 413.074219 53.000000 L 413.074219 48.933594 Q 413.074219 48.048828 412.763672 47.632812 Q 412.453125 47.216797 411.791016 47.216797 Q 411.035156 47.216797 410.627930 47.752930 Q 410.220703 48.289062 410.220703 49.291016 L 410.220703 53.000000 L 409.142578 53.000000 L 409.142578 46.437500 L 410.220703 46.437500 L 410.220703 47.421875 Q 410.507812 46.859375 411.000000 46.569336 Q 411.492188 46.279297 412.166016 46.279297 Q 413.167969 46.279297 413.663086 46.938477 Q 414.158203 47.597656 414.158203 48.933594 Z " fill="rgb(0, 0, 0)" fill-opacity="1.000000" />
<path d="M 418.197266 52.173828 L 418.197266 55.496094 L 417.113281 55.496094 L 417.113281 46.437500 L 418.197266 46.437500 L 418.197266 47.275391 Q 418.466797 46.789062 418.915039 46.534180 Q 419.363281 46.279297 419.949219 46.279297 Q 421.138672 46.279297 421.815430 47.199219 Q 422.492188 48.119141 422.492188 49.748047 Q 422.492188 51.347656 421.812500 52.258789 Q 421.132812 53.169922 419.949219 53.169922 Q 419.351562 53.169922 418.903320 52.915039 Q 418.455078 52.660156 418.197266 52.173828 Z M 421.361328 49.724609 Q 421.361328 48.470703 420.965820 47.832031 Q 420.570312 47.193359 419.791016 47.193359 Q 419.005859 47.193359 418.601562 47.834961 Q 418.197266 48.476562 418.197266 49.724609 Q 418.197266 50.966797 418.601562 51.611328 Q 419.005859 52.255859 419.791016 52.255859 Q 420.570312 52.255859 420.965820 51.617188 Q 421.361328 50.978516 421.361328 49.724609 Z " fill="rgb(0, 0, 0)" fill-opacity="1.000000" />
<path d="M 425.142578 50.515625 L 425.142578 46.449219 L 426.220703 46.449219 L 426.220703 50.515625 Q 426.220703 51.400391 426.534180 51.816406 Q 426.847656 52.232422 427.503906 52.232422 Q 428.265625 52.232422 428.669922 51.696289 Q 429.074219 51.160156 429.074219 50.158203 L 429.074219 46.449219 L 430.158203 46.449219 L 430.158203 53.000000 L 429.074219 53.000000 L 429.074219 52.015625 Q 428.787109 52.583984 428.291992 52.876953 Q 427.796875 53.169922 427.134766 53.169922 Q 426.126953 53.169922 425.634766 52.510742 Q 425.142578 51.851562 425.142578 50.515625 Z " fill="rgb(0, 0, 0)" fill-opacity="1.000000" />
<path d="M 435.597656 44.574219 L 435.597656 46.437500 L 438.046875 46.437500 L 438.046875 47.275391 L 435.597656 47.275391 L 435.597656 50.837891 Q 435.597656 51.564453 435.873047 51.851562 Q 436.148438 52.138672 436.833984 52.138672 L 438.046875 52.138672 L 438.046875 53.000000 L 436.728516 53.000000 Q 435.515625 53.000000 435.017578 52.513672 Q 434.519531 52.027344 434.519531 50.837891 L 434.519531 47.275391 L 432.767578 47.275391 L 432.767578 46.437500 L 434.519531 46.437500 L 434.519531 44.574219 Z " fill="rgb(0, 0, 0)" fill-opacity="1.000000" />
<path d="M 43.140625 36.093750 L 43.140625 27.328125 L 44.078125 27.328125 L 44.078125 35.085938 L 47.341797 35.085938 L 47.341797 36.093750 Z " fill="rgb(0, 0, 0)" fill-opacity="1.000000" />
<path d="M 47.882812 36.093750 L 47.882812 35.085938 L 55.341797 35.085938 L 55.341797 36.093750 Z " fill="rgb(0, 0, 0)" fill-opacity="1.000000" />
<path d="M 55.882812 36.093750 L 55.882812 35.085938 L 63.341797 35.085938 L 63.341797 36.093750 Z " fill="rgb(0, 0, 0)" fill-opacity="1.000000" />
<path d="M 63.882812 36.093750 L 63.882812 35.085938 L 71.341797 35.085938 L 71.341797 36.093750 Z " fill="rgb(0, 0, 0)" fill-opacity="1.000000" />
<path d="M 71.882812 36.093750 L 71.882812 35.085938 L 79.341797 35.085938 L 79.341797 36.093750 Z " fill="rgb(0, 0, 0)" fill-opacity="1.000000" />
<path d="M 79.882812 36.093750 L 79.882812 35.085938 L 87.341797 35.085938 L 87.341797 36.093750 Z " fill="rgb(0, 0, 0)" fill-opacity="1.000000" />
<path d="M 87.882812 36.093750 L 87.882812 35.085938 L 95.341797 35.085938 L 95.341797 36.093750 Z " fill="rgb(0, 0, 0)" fill-opacity="1.000000" />
<path d="M 95.882812 36.093750 L 95.882812 35.085938 L 103.341797 35.085938 L 103.341797 36.093750 Z " fill="rgb(0, 0, 0)" fill-opacity="1.000000" />
<path d="M 103.882812 36.093750 L 103.882812 35.085938 L 111.341797 35.085938 L 111.341797 36.093750 Z " fill="rgb(0, 0, 0)" fill-opacity="1.000000" />
<path d="M 111.882812 36.093750 L 111.882812 35.085938 L 119.341797 35.085938 L 119.341797 36.093750 Z " fill="rgb(0, 0, 0)" fill-opacity="1.000000" />
<path d="M 119.882812 36.093750 L 119.882812 35.085938 L 127.341797 35.085938 L 127.341797 36.093750 Z " fill="rgb(0, 0, 0)" fill-opacity="1.000000" />
<path d="M 127.882812 36.093750 L 127.882812 35.085938 L 135.341797 35.085938 L 135.341797 36.093750 Z " fill="rgb(0, 0, 0)" fill-opacity="1.000000" />
<path d="M 135.882812 36.093750 L 135.882812 35.085938 L 143.341797 35.085938 L 143.341797 36.093750 Z " fill="rgb(0, 0, 0)" fill-opacity="1.000000" />
<path d="M 143.882812 36.093750 L 143.882812 35.085938 L 151.341797 35.085938 L 151.341797 36.093750 Z " fill="rgb(0, 0, 0)" fill-opacity="1.000000" />
<path d="M 151.882812 36.093750 L 151.882812 35.085938 L 159.341797 35.085938 L 159.341797 36.093750 Z " fill="rgb(0, 0, 0)" fill-opacity="1.000000" />
<path d="M 159.882812 36.093750 L 159.882812 35.085938 L 167.341797 35.085938 L 167.341797 36.093750 Z " fill="rgb(0, 0, 0)" fill-opacity="1.000000" />
<path d="M 167.882812 36.093750 L 167.882812 35.085938 L 171.140625 35.085938 L 171.140625 27.328125 L 172.078125 27.328125 L 172.078125 36.093750 Z " fill="rgb(0, 0, 0)" fill-opacity="1.000000" />
<path d="M 267.140625 36.093750 L 267.140625 27.328125 L 268.078125 27.328125 L 268.078125 35.085938 L 271.341797 35.085938 L 271.341797 36.093750 Z " fill="rgb(0, 0, 0)" fill-opacity="1.000000" />
<path d="M 271.882812 36.093750 L 271.882812 35.085938 L 279.341797 35.085938 L 279.341797 36.093750 Z " fill="rgb(0, 0, 0)" fill-opacity="1.000000" />
<path d="M 279.882812 36.093750 L 279.882812 35.085938 L 287.341797 35.085938 L 287.341797 36.093750 Z " fill="rgb(0, 0, 0)" fill-opacity="1.000000" />
<path d="M 287.882812 36.093750 L 287.882812 35.085938 L 295.341797 35.085938 L 295.341797 36.093750 Z " fill="rgb(0, 0, 0)" fill-opacity="1.000000" />
<path d="M 295.882812 36.093750 L 295.882812 35.085938 L 303.341797 35.085938 L 303.341797 36.093750 Z " fill="rgb(0, 0, 0)" fill-opacity="1.000000" />
<path d="M 303.882812 36.093750 L 303.882812 35.085938 L 311.341797 35.085938 L 311.341797 36.093750 Z " fill="rgb(0, 0, 0)" fill-opacity="1.000000" />
<path d="M 311.882812 36.093750 L 311.882812 35.085938 L 319.341797 35.085938 L 319.341797 36.093750 Z " fill="rgb(0, 0, 0)" fill-opacity="1.000000" />
<path d="M 319.882812 36.093750 L 319.882812 35.085938 L 327.341797 35.085938 L 327.341797 36.093750 Z " fill="rgb(0, 0, 0)" fill-opacity="1.000000" />
<path d="M 327.882812 36.093750 L 327.882812 35.085938 L 335.341797 35.085938 L 335.341797 36.093750 Z " fill="rgb(0, 0, 0)" fill-opacity="1.000000" />
<path d="M 335.882812 36.093750 L 335.882812 35.085938 L 343.341797 35.085938 L 343.341797 36.093750 Z " fill="rgb(0, 0, 0)" fill-opacity="1.000000" />
<path d="M 343.882812 36.093750 L 343.882812 35.085938 L 351.341797 35.085938 L 351.341797 36.093750 Z " fill="rgb(0, 0, 0)" fill-opacity="1.000000" />
<path d="M 351.882812 36.093750 L 351.882812 35.085938 L 359.341797 35.085938 L 359.341797 36.093750 Z " fill="rgb(0, 0, 0)" fill-opacity="1.000000" />
<path d="M 359.882812 36.093750 L 359.882812 35.085938 L 367.341797 35.085938 L 367.341797 36.093750 Z " fill="rgb(0, 0, 0)" fill-opacity="1.000000" />
<path d="M 367.882812 36.093750 L 367.882812 35.085938 L 375.341797 35.085938 L 375.341797 36.093750 Z " fill="rgb(0, 0, 0)" fill-opacity="1.000000" />
<path d="M 375.882812 36.093750 L 375.882812 35.085938 L 383.341797 35.085938 L 383.341797 36.093750 Z " fill="rgb(0, 0, 0)" fill-opacity="1.000000" />
<path d="M 383.882812 36.093750 L 383.882812 35.085938 L 391.341797 35.085938 L 391.341797 36.093750 Z " fill="rgb(0, 0, 0)" fill-opacity="1.000000" />
<path d="M 391.882812 36.093750 L 391.882812 35.085938 L 395.140625 35.085938 L 395.140625 27.328125 L 396.078125 27.328125 L 396.078125 36.093750 Z " fill="rgb(0, 0, 0)" fill-opacity="1.000000" />
<path d="M 43.140625 14.621094 L 43.140625 7.085938 L 47.341797 7.085938 L 47.341797 8.093750 L 44.078125 8.093750 L 44.078125 14.621094 Z " fill="rgb(0, 0, 0)" fill-opacity="1.000000" />
<path d="M 43.140625 28.621094 L 43.140625 13.328125 L 44.078125 13.328125 L 44.078125 28.621094 Z " fill="rgb(0, 0, 0)" fill-opacity="1.000000" />
<path d="M 88.210938 16.281250 L 89.792969 16.281250 L 91.304688 20.722656 L 92.828125 16.281250 L 94.416016 16.281250 L 94.416016 25.000000 L 93.320312 25.000000 L 93.320312 17.294922 L 91.761719 21.888672 L 90.865234 21.888672 L 89.300781 17.294922 L 89.300781 25.000000 L 88.210938 25.000000 Z " fill="rgb(0, 0, 0)" fill-opacity="1.000000" />
<path d="M 99.609375 19.193359 Q 98.789062 19.193359 98.367188 19.832031 Q 97.945312 20.470703 97.945312 21.724609 Q 97.945312 22.972656 98.367188 23.614258 Q 98.789062 24.255859 99.609375 24.255859 Q 100.435547 24.255859 100.857422 23.614258 Q 101.279297 22.972656 101.279297 21.724609 Q 101.279297 20.470703 100.857422 19.832031 Q 100.435547 19.193359 99.609375 19.193359 Z M 99.609375 18.279297 Q 100.974609 18.279297 101.698242 19.164062 Q 102.421875 20.048828 102.421875 21.724609 Q 102.421875 23.406250 101.701172 24.288086 Q 100.980469 25.169922 99.609375 25.169922 Q 98.244141 25.169922 97.523438 24.288086 Q 96.802734 23.406250 96.802734 21.724609 Q 96.802734 20.048828 97.523438 19.164062 Q 98.244141 18.279297 99.609375 18.279297 Z " fill="rgb(0, 0, 0)" fill-opacity="1.000000" />
<path d="M 109.027344 19.275391 L 109.027344 15.882812 L 110.105469 15.882812 L 110.105469 25.000000 L 109.027344 25.000000 L 109.027344 24.173828 Q 108.757812 24.660156 108.309570 24.915039 Q 107.861328 25.169922 107.275391 25.169922 Q 106.085938 25.169922 105.403320 24.247070 Q 104.720703 23.324219 104.720703 21.701172 Q 104.720703 20.101562 105.406250 19.190430 Q 106.091797 18.279297 107.275391 18.279297 Q 107.867188 18.279297 108.318359 18.534180 Q 108.769531 18.789062 109.027344 19.275391 Z M 105.857422 21.724609 Q 105.857422 22.978516 106.255859 23.617188 Q 106.654297 24.255859 107.433594 24.255859 Q 108.212891 24.255859 108.620117 23.611328 Q 109.027344 22.966797 109.027344 21.724609 Q 109.027344 20.476562 108.620117 19.834961 Q 108.212891 19.193359 107.433594 19.193359 Q 106.654297 19.193359 106.255859 19.832031 Q 105.857422 20.470703 105.857422 21.724609 Z " fill="rgb(0, 0, 0)" fill-opacity="1.000000" />
<path d="M 118.562500 21.179688 L 118.562500 21.707031 L 113.892578 21.707031 L 113.892578 21.742188 Q 113.845703 23.083984 114.405273 23.669922 Q 114.964844 24.255859 115.984375 24.255859 Q 116.500000 24.255859 117.062500 24.091797 Q 117.625000 23.927734 118.263672 23.593750 L 118.263672 24.666016 Q 117.648438 24.917969 117.077148 25.043945 Q 116.505859 25.169922 115.972656 25.169922 Q 114.443359 25.169922 113.582031 24.252930 Q 112.720703 23.335938 112.720703 21.724609 Q 112.720703 20.154297 113.564453 19.216797 Q 114.408203 18.279297 115.814453 18.279297 Q 117.068359 18.279297 117.791992 19.128906 Q 118.515625 19.978516 118.562500 21.179688 Z M 117.484375 20.863281 Q 117.414062 20.183594 116.989258 19.688477 Q 116.564453 19.193359 115.767578 19.193359 Q 114.988281 19.193359 114.484375 19.708984 Q 113.980469 20.224609 113.933594 20.869141 Z " fill="rgb(0, 0, 0)" fill-opacity="1.000000" />
<path d="M 124.212891 22.626953 Q 124.212891 23.353516 124.479492 23.722656 Q 124.746094 24.091797 125.267578 24.091797 L 126.527344 24.091797 L 126.527344 25.000000 L 125.162109 25.000000 Q 124.195312 25.000000 123.665039 24.381836 Q 123.134766 23.763672 123.134766 22.626953 L 123.134766 16.691406 L 121.406250 16.691406 L 121.406250 15.847656 L 124.212891 15.847656 Z " fill="rgb(0, 0, 0)" fill-opacity="1.000000" />
<path d="M 171.140625 28.621094 L 171.140625 13.328125 L 172.078125 13.328125 L 172.078125 28.621094 Z " fill="rgb(0, 0, 0)" fill-opacity="1.000000" />
<path d="M 175.882812 22.093750 L 175.882812 21.085938 L 183.341797 21.085938 L 183.341797 22.093750 Z " fill="rgb(0, 0, 0)" fill-opacity="1.000000" />
<path d="M 191.882812 22.093750 L 191.882812 21.085938 L 199.341797 21.085938 L 199.341797 22.093750 Z " fill="rgb(0, 0, 0)" fill-opacity="1.000000" />
<path d="M 207.882812 22.093750 L 207.882812 21.085938 L 215.341797 21.085938 L 215.341797 22.093750 Z " fill="rgb(0, 0, 0)" fill-opacity="1.000000" />
<path d="M 223.882812 22.093750 L 223.882812 21.085938 L 231.341797 21.085938 L 231.341797 22.093750 Z " fill="rgb(0, 0, 0)" fill-opacity="1.000000" />
<path d="M 239.882812 22.093750 L 239.882812 21.085938 L 247.341797 21.085938 L 247.341797 22.093750 Z " fill="rgb(0, 0, 0)" fill-opacity="1.000000" />
<path d="M 255.882812 22.093750 L 255.882812 21.085938 L 263.341797 21.085938 L 263.341797 22.093750 Z " fill="rgb(0, 0, 0)" fill-opacity="1.000000" />
<path d="M 267.140625 28.621094 L 267.140625 13.328125 L 268.078125 13.328125 L 268.078125 28.621094 Z " fill="rgb(0, 0, 0)" fill-opacity="1.000000" />
<path d="M 304.210938 16.281250 L 305.792969 16.281250 L 307.304688 20.722656 L 308.828125 16.281250 L 310.416016 16.281250 L 310.416016 25.000000 L 309.320312 25.000000 L 309.320312 17.294922 L 307.761719 21.888672 L 306.865234 21.888672 L 305.300781 17.294922 L 305.300781 25.000000 L 304.210938 25.000000 Z " fill="rgb(0, 0, 0)" fill-opacity="1.000000" />
<path d="M 316.113281 21.701172 L 315.755859 21.701172 Q 314.812500 21.701172 314.334961 22.032227 Q 313.857422 22.363281 313.857422 23.019531 Q 313.857422 23.611328 314.214844 23.939453 Q 314.572266 24.267578 315.205078 24.267578 Q 316.095703 24.267578 316.605469 23.649414 Q 317.115234 23.031250 317.121094 21.941406 L 317.121094 21.701172 Z M 318.205078 21.255859 L 318.205078 25.000000 L 317.121094 25.000000 L 317.121094 24.027344 Q 316.775391 24.613281 316.250977 24.891602 Q 315.726562 25.169922 314.976562 25.169922 Q 313.974609 25.169922 313.376953 24.604492 Q 312.779297 24.039062 312.779297 23.089844 Q 312.779297 21.994141 313.514648 21.425781 Q 314.250000 20.857422 315.673828 20.857422 L 317.121094 20.857422 L 317.121094 20.687500 Q 317.115234 19.902344 316.722656 19.547852 Q 316.330078 19.193359 315.468750 19.193359 Q 314.917969 19.193359 314.355469 19.351562 Q 313.792969 19.509766 313.259766 19.814453 L 313.259766 18.736328 Q 313.857422 18.507812 314.405273 18.393555 Q 314.953125 18.279297 315.468750 18.279297 Q 316.283203 18.279297 316.860352 18.519531 Q 317.437500 18.759766 317.794922 19.240234 Q 318.017578 19.533203 318.111328 19.963867 Q 318.205078 20.394531 318.205078 21.255859 Z " fill="rgb(0, 0, 0)" fill-opacity="1.000000" />
<path d="M 322.197266 24.173828 L 322.197266 27.496094 L 321.113281 27.496094 L 321.113281 18.437500 L 322.197266 18.437500 L 322.197266 19.275391 Q 322.466797 18.789062 322.915039 18.534180 Q 323.363281 18.279297 323.949219 18.279297 Q 325.138672 18.279297 325.815430 19.199219 Q 326.492188 20.119141 326.492188 21.748047 Q 326.492188 23.347656 325.812500 24.258789 Q 325.132812 25.169922 323.949219 25.169922 Q 323.351562 25.169922 322.903320 24.915039 Q 322.455078 24.660156 322.197266 24.173828 Z M 325.361328 21.724609 Q 325.361328 20.470703 324.965820 19.832031 Q 324.570312 19.193359 323.791016 19.193359 Q 323.005859 19.193359 322.601562 19.834961 Q 322.197266 20.476562 322.197266 21.724609 Q 322.197266 22.966797 322.601562 23.611328 Q 323.005859 24.255859 323.791016 24.255859 Q 324.570312 24.255859 324.965820 23.617188 Q 325.361328 22.978516 325.361328 21.724609 Z " fill="rgb(0, 0, 0)" fill-opacity="1.000000" />
<path d="M 330.197266 24.173828 L 330.197266 27.496094 L 329.113281 27.496094 L 329.113281 18.437500 L 330.197266 18.437500 L 330.197266 19.275391 Q 330.466797 18.789062 330.915039 18.534180 Q 331.363281 18.279297 331.949219 18.279297 Q 333.138672 18.279297 333.815430 19.199219 Q 334.492188 20.119141 334.492188 21.748047 Q 334.492188 23.347656 333.812500 24.258789 Q 333.132812 25.169922 331.949219 25.169922 Q 331.351562 25.169922 330.903320 24.915039 Q 330.455078 24.660156 330.197266 24.173828 Z M 333.361328 21.724609 Q 333.361328 20.470703 332.965820 19.832031 Q 332.570312 19.193359 331.791016 19.193359 Q 331.005859 19.193359 330.601562 19.834961 Q 330.197266 20.476562 330.197266 21.724609 Q 330.197266 22.966797 330.601562 23.611328 Q 331.005859 24.255859 331.791016 24.255859 Q 332.570312 24.255859 332.965820 23.617188 Q 333.361328 22.978516 333.361328 21.724609 Z " fill="rgb(0, 0, 0)" fill-opacity="1.000000" />
<path d="M 337.851562 18.460938 L 340.611328 18.460938 L 340.611328 24.162109 L 342.750000 24.162109 L 342.750000 25.000000 L 337.394531 25.000000 L 337.394531 24.162109 L 339.533203 24.162109 L 339.533203 19.298828 L 337.851562 19.298828 Z M 339.533203 15.912109 L 340.611328 15.912109 L 340.611328 17.271484 L 339.533203 17.271484 Z " fill="rgb(0, 0, 0)" fill-opacity="1.000000" />
<path d="M 350.158203 20.933594 L 350.158203 25.000000 L 349.074219 25.000000 L 349.074219 20.933594 Q 349.074219 20.048828 348.763672 19.632812 Q 348.453125 19.216797 347.791016 19.216797 Q 347.035156 19.216797 346.627930 19.752930 Q 346.220703 20.289062 346.220703 21.291016 L 346.220703 25.000000 L 345.142578 25.000000 L 345.142578 18.437500 L 346.220703 18.437500 L 346.220703 19.421875 Q 346.507812 18.859375 347.000000 18.569336 Q 347.492188 18.279297 348.166016 18.279297 Q 349.167969 18.279297 349.663086 18.938477 Q 350.158203 19.597656 350.158203 20.933594 Z " fill="rgb(0, 0, 0)" fill-opacity="1.000000" />
<path d="M 357.027344 21.666016 Q 357.027344 20.453125 356.631836 19.823242 Q 356.236328 19.193359 355.480469 19.193359 Q 354.689453 19.193359 354.273438 19.823242 Q 353.857422 20.453125 353.857422 21.666016 Q 353.857422 22.878906 354.276367 23.514648 Q 354.695312 24.150391 355.492188 24.150391 Q 356.236328 24.150391 356.631836 23.511719 Q 357.027344 22.873047 357.027344 21.666016 Z M 358.105469 24.578125 Q 358.105469 26.054688 357.408203 26.816406 Q 356.710938 27.578125 355.357422 27.578125 Q 354.912109 27.578125 354.425781 27.496094 Q 353.939453 27.414062 353.453125 27.255859 L 353.453125 26.189453 Q 354.027344 26.458984 354.496094 26.587891 Q 354.964844 26.716797 355.357422 26.716797 Q 356.230469 26.716797 356.628906 26.242188 Q 357.027344 25.767578 357.027344 24.736328 L 357.027344 24.689453 L 357.027344 23.957031 Q 356.769531 24.507812 356.324219 24.777344 Q 355.878906 25.046875 355.240234 25.046875 Q 354.091797 25.046875 353.406250 24.126953 Q 352.720703 23.207031 352.720703 21.666016 Q 352.720703 20.119141 353.406250 19.199219 Q 354.091797 18.279297 355.240234 18.279297 Q 355.873047 18.279297 356.312500 18.531250 Q 356.751953 18.783203 357.027344 19.310547 L 357.027344 18.460938 L 358.105469 18.460938 Z " fill="rgb(0, 0, 0)" fill-opacity="1.000000" />
<path d="M 395.140625 28.621094 L 395.140625 13.328125 L 396.078125 13.328125 L 396.078125 28.621094 Z " fill="rgb(0, 0, 0)" fill-opacity="1.000000" />
<path d="M 47.882812 8.093750 L 47.882812 7.085938 L 55.341797 7.085938 L 55.341797 8.093750 Z " fill="rgb(0, 0, 0)" fill-opacity="1.000000" />
<path d="M 55.882812 8.093750 L 55.882812 7.085938 L 63.341797 7.085938 L 63.341797 8.093750 Z " fill="rgb(0, 0, 0)" fill-opacity="1.000000" />
<path d="M 63.882812 8.093750 L 63.882812 7.085938 L 71.341797 7.085938 L 71.341797 8.093750 Z " fill="rgb(0, 0, 0)" fill-opacity="1.000000" />
<path d="M 71.882812 8.093750 L 71.882812 7.085938 L 79.341797 7.085938 L 79.341797 8.093750 Z " fill="rgb(0, 0, 0)" fill-opacity="1.000000" />
<path d="M 79.882812 8.093750 L 79.882812 7.085938 L 87.341797 7.085938 L 87.341797 8.093750 Z " fill="rgb(0, 0, 0)" fill-opacity="1.000000" />
<path d="M 87.882812 8.093750 L 87.882812 7.085938 L 95.341797 7.085938 L 95.341797 8.093750 Z " fill="rgb(0, 0, 0)" fill-opacity="1.000000" />
<path d="M 95.882812 8.093750 L 95.882812 7.085938 L 103.341797 7.085938 L 103.341797 8.093750 Z " fill="rgb(0, 0, 0)" fill-opacity="1.000000" />
<path d="M 103.882812 8.093750 L 103.882812 7.085938 L 111.341797 7.085938 L 111.341797 8.093750 Z " fill="rgb(0, 0, 0)" fill-opacity="1.000000" />
<path d="M 111.882812 8.093750 L 111.882812 7.085938 L 119.341797 7.085938 L 119.341797 8.093750 Z " fill="rgb(0, 0, 0)" fill-opacity="1.000000" />
<path d="M 119.882812 8.093750 L 119.882812 7.085938 L 127.341797 7.085938 L 127.341797 8.093750 Z " fill="rgb(0, 0, 0)" fill-opacity="1.000000" />
<path d="M 127.882812 8.093750 L 127.882812 7.085938 L 135.341797 7.085938 L 135.341797 8.093750 Z " fill="rgb(0, 0, 0)" fill-opacity="1.000000" />
<path d="M 135.882812 8.093750 L 135.882812 7.085938 L 143.341797 7.085938 L 143.341797 8.093750 Z " fill="rgb(0, 0, 0)" fill-opacity="1.000000" />
<path d="M 143.882812 8.093750 L 143.882812 7.085938 L 151.341797 7.085938 L 151.341797 8.093750 Z " fill="rgb(0, 0, 0)" fill-opacity="1.000000" />
<path d="M 151.882812 8.093750 L 151.882812 7.085938 L 159.341797 7.085938 L 159.341797 8.093750 Z " fill="rgb(0, 0, 0)" fill-opacity="1.000000" />
<path d="M 159.882812 8.093750 L 159.882812 7.085938 L 167.341797 7.085938 L 167.341797 8.093750 Z " fill="rgb(0, 0, 0)" fill-opacity="1.000000" />
<path d="M 171.140625 14.621094 L 171.140625 8.093750 L 167.882812 8.093750 L 167.882812 7.085938 L 172.078125 7.085938 L 172.078125 14.621094 Z " fill="rgb(0, 0, 0)" fill-opacity="1.000000" />
<path d="M 267.140625 14.621094 L 267.140625 7.085938 L 271.341797 7.085938 L 271.341797 8.093750 L 268.078125 8.093750 L 268.078125 14.621094 Z " fill="rgb(0, 0, 0)" fill-opacity="1.000000" />
<path d="M 271.882812 8.093750 L 271.882812 7.085938 L 279.341797 7.085938 L 279.341797 8.093750 Z " fill="rgb(0, 0, 0)" fill-opacity="1.000000" />
<path d="M 279.882812 8.093750 L 279.882812 7.085938 L 287.341797 7.085938 L 287.341797 8.093750 Z " fill="rgb(0, 0, 0)" fill-opacity="1.000000" />
<path d="M 287.882812 8.093750 L 287.882812 7.085938 L 295.341797 7.085938 L 295.341797 8.093750 Z " fill="rgb(0, 0, 0)" fill-opacity="1.000000" />
<path d="M 295.882812 8.093750 L 295.882812 7.085938 L 303.341797 7.085938 L 303.341797 8.093750 Z " fill="rgb(0, 0, 0)" fill-opacity="1.000000" />
<path d="M 303.882812 8.093750 L 303.882812 7.085938 L 311.341797 7.085938 L 311.341797 8.093750 Z " fill="rgb(0, 0, 0)" fill-opacity="1.000000" />
<path d="M 311.882812 8.093750 L 311.882812 7.085938 L 319.341797 7.085938 L 319.341797 8.093750 Z " fill="rgb(0, 0, 0)" fill-opacity="1.000000" />
<path d="M 319.882812 8.093750 L 319.882812 7.085938 L 327.341797 7.085938 L 327.341797 8.093750 Z " fill="rgb(0, 0, 0)" fill-opacity="1.000000" />
<path d="M 327.882812 8.093750 L 327.882812 7.085938 L 335.341797 7.085938 L 335.341797 8.093750 Z " fill="rgb(0, 0, 0)" fill-opacity="1.000000" />
<path d="M 335.882812 8.093750 L 335.882812 7.085938 L 343.341797 7.085938 L 343.341797 8.093750 Z " fill="rgb(0, 0, 0)" fill-opacity="1.000000" />
<path d="M 343.882812 8.093750 L 343.882812 7.085938 L 351.341797 7.085938 L 351.341797 8.093750 Z " fill="rgb(0, 0, 0)" fill-opacity="1.000000" />
<path d="M 351.882812 8.093750 L 351.882812 7.085938 L 359.341797 7.085938 L 359.341797 8.093750 Z " fill="rgb(0, 0, 0)" fill-opacity="1.000000" />
<path d="M 359.882812 8.093750 L 359.882812 7.085938 L 367.341797 7.085938 L 367.341797 8.093750 Z " fill="rgb(0, 0, 0)" fill-opacity="1.000000" />
<path d="M 367.882812 8.093750 L 367.882812 7.085938 L 375.341797 7.085938 L 375.341797 8.093750 Z " fill="rgb(0, 0, 0)" fill-opacity="1.000000" />
<path d="M 375.882812 8.093750 L 375.882812 7.085938 L 383.341797 7.085938 L 383.341797 8.093750 Z " fill="rgb(0, 0, 0)" fill-opacity="1.000000" />
<path d="M 383.882812 8.093750 L 383.882812 7.085938 L 391.341797 7.085938 L 391.341797 8.093750 Z " fill="rgb(0, 0, 0)" fill-opacity="1.000000" />
<path d="M 395.140625 14.621094 L 395.140625 8.093750 L 391.882812 8.093750 L 391.882812 7.085938 L 396.078125 7.085938 L 396.078125 14.621094 Z " fill="rgb(0, 0, 0)" fill-opacity="1.000000" />
</svg>