<svg xmlns="http://www.w3.org/2000/svg" version="1.1" width="465" height="225">
<path d="M 43.140625 182.621094 L 43.140625 167.328125 L 44.078125 167.328125 L 44.078125 182.621094 Z " fill="rgb(0, 0, 0)" fill-opacity="1.000000" />
<path d="M 43.140625 196.621094 L 43.140625 181.328125 L 44.078125 181.328125 L 44.078125 196.621094 Z " fill="rgb(0, 0, 0)" fill-opacity="1.000000" />
<path d="M 43.140625 210.621094 L 43.140625 195.328125 L 44.078125 195.328125 L 44.078125 210.621094 Z " fill="rgb(0, 0, 0)" fill-opacity="1.000000" />
<path d="M 43.140625 218.093750 L 43.140625 209.328125 L 44.078125 209.328125 L 44.078125 217.085938 L 47.341797 217.085938 L 47.341797 218.093750 Z " fill="rgb(0, 0, 0)" fill-opacity="1.000000" />
<path d="M 47.882812 218.093750 L 47.882812 217.085938 L 55.341797 217.085938 L 55.341797 218.093750 Z " fill="rgb(0, 0, 0)" fill-opacity="1.000000" />
<path d="M 55.882812 218.093750 L 55.882812 217.085938 L 63.341797 217.085938 L 63.341797 218.093750 Z " fill="rgb(0, 0, 0)" fill-opacity="1.000000" />
<path d="M 63.882812 218.093750 L 63.882812 217.085938 L 71.341797 217.085938 L 71.341797 218.093750 Z " fill="rgb(0, 0, 0)" fill-opacity="1.000000" />
<path d="M 71.882812 218.093750 L 71.882812 217.085938 L 79.341797 217.085938 L 79.341797 218.093750 Z " fill="rgb(0, 0, 0)" fill-opacity="1.000000" />
<path d="M 79.882812 218.093750 L 79.882812 217.085938 L 87.341797 217.085938 L 87.341797 218.093750 Z " fill="rgb(0, 0, 0)" fill-opacity="1.000000" />
<path d="M 87.882812 218.093750 L 87.882812 217.085938 L 95.341797 217.085938 L 95.341797 218.093750 Z " fill="rgb(0, 0, 0)" fill-opacity="1.000000" />
<path d="M 95.882812 218.093750 L 95.882812 217.085938 L 103.341797 217.085938 L 103.341797 218.093750 Z " fill="rgb(0, 0, 0)" fill-opacity="1.000000" />
<path d="M 103.882812 218.093750 L 103.882812 217.085938 L 111.341797 217.085938 L 111.341797 218.093750 Z " fill="rgb(0, 0, 0)" fill-opacity="1.000000" />
<path d="M 111.882812 218.093750 L 111.882812 217.085938 L 119.341797 217.085938 L 119.341797 218.093750 Z " fill="rgb(0, 0, 0)" fill-opacity="1.000000" />
<path d="M 119.882812 218.093750 L 119.882812 217.085938 L 127.341797 217.085938 L 127.341797 218.093750 Z " fill="rgb(0, 0, 0)" fill-opacity="1.000000" />
<path d="M 127.882812 218.093750 L 127.882812 217.085938 L 135.341797 217.085938 L 135.341797 218.093750 Z " fill="rgb(0, 0, 0)" fill-opacity="1.000000" />
<path d="M 135.882812 218.093750 L 135.882812 217.085938 L 143.341797 217.085938 L 143.341797 218.093750 Z " fill="rgb(0, 0, 0)" fill-opacity="1.000000" />
<path d="M 143.882812 218.093750 L 143.882812 217.085938 L 151.341797 217.085938 L 151.341797 218.093750 Z " fill="rgb(0, 0, 0)" fill-opacity="1.000000" />
<path d="M 151.882812 218.093750 L 151.882812 217.085938 L 159.341797 217.085938 L 159.341797 218.093750 Z " fill="rgb(0, 0, 0)" fill-opacity="1.000000" />
<path d="M 159.882812 218.093750 L 159.882812 217.085938 L 167.341797 217.085938 L 167.341797 218.093750 Z " fill="rgb(0, 0, 0)" fill-opacity="1.000000" />
<path d="M 167.882812 218.093750 L 167.882812 217.085938 L 171.140625 217.085938 L 171.140625 209.328125 L 172.078125 209.328125 L 172.078125 218.093750 Z " fill="rgb(0, 0, 0)" fill-opacity="1.000000" />
<path d="M 267.140625 218.093750 L 267.140625 209.328125 L 268.078125 209.328125 L 268.078125 217.085938 L 271.341797 217.085938 L 271.341797 218.093750 Z " fill="rgb(0, 0, 0)" fill-opacity="1.000000" />
<path d="M 271.882812 218.093750 L 271.882812 217.085938 L 279.341797 217.085938 L 279.341797 218.093750 Z " fill="rgb(0, 0, 0)" fill-opacity="1.000000" />
<path d="M 279.882812 218.093750 L 279.882812 217.085938 L 287.341797 217.085938 L 287.341797 218.093750 Z " fill="rgb(0, 0, 0)" fill-opacity="1.000000" />
<path d="M 287.882812 218.093750 L 287.882812 217.085938 L 295.341797 217.085938 L 295.341797 218.093750 Z " fill="rgb(0, 0, 0)" fill-opacity="1.000000" />
<path d="M 295.882812 218.093750 L 295.882812 217.085938 L 303.341797 217.085938 L 303.341797 218.093750 Z " fill="rgb(0, 0, 0)" fill-opacity="1.000000" />
<path d="M 303.882812 218.093750 L 303.882812 217.085938 L 311.341797 217.085938 L 311.341797 218.093750 Z " fill="rgb(0, 0, 0)" fill-opacity="1.000000" />
<path d="M 311.882812 218.093750 L 311.882812 217.085938 L 319.341797 217.085938 L 319.341797 218.093750 Z " fill="rgb(0, 0, 0)" fill-opacity="1.000000" />
<path d="M 319.882812 218.093750 L 319.882812 217.085938 L 327.341797 217.085938 L 327.341797 218.093750 Z " fill="rgb(0, 0, 0)" fill-opacity="1.000000" />
<path d="M 327.882812 218.093750 L 327.882812 217.085938 L 335.341797 217.085938 L 335.341797 218.093750 Z " fill="rgb(0, 0, 0)" fill-opacity="1.000000" />
<path d="M 335.882812 218.093750 L 335.882812 217.085938 L 343.341797 217.085938 L 343.341797 218.093750 Z " fill="rgb(0, 0, 0)" fill-opacity="1.000000" />
<path d="M 343.882812 218.093750 L 343.882812 217.085938 L 351.341797 217.085938 L 351.341797 218.093750 Z " fill="rgb(0, 0, 0)" fill-opacity="1.000000" />
<path d="M 351.882812 218.093750 L 351.882812 217.085938 L 359.341797 217.085938 L 359.341797 218.093750 Z " fill="rgb(0, 0, 0)" fill-opacity="1.000000" />
<path d="M 359.882812 218.093750 L 359.882812 217.085938 L 367.341797 217.085938 L 367.341797 218.093750 Z " fill="rgb(0, 0, 0)" fill-opacity="1.000000" />
<path d="M 367.882812 218.093750 L 367.882812 217.085938 L 375.341797 217.085938 L 375.341797 218.093750 Z " fill="rgb(0, 0, 0)" fill-opacity="1.000000" />
<path d="M 375.882812 218.093750 L 375.882812 217.085938 L 383.341797 217.085938 L 383.341797 218.093750 Z " fill="rgb(0, 0, 0)" fill-opacity="1.000000" />
<path d="M 383.882812 218.093750 L 383.882812 217.085938 L 391.341797 217.085938 L 391.341797 218.093750 Z " fill="rgb(0, 0, 0)" fill-opacity="1.000000" />
<path d="M 391.882812 218.093750 L 391.882812 217.085938 L 395.140625 217.085938 L 395.140625 209.328125 L 396.078125 209.328125 L 396.078125 218.093750 Z " fill="rgb(0, 0, 0)" fill-opacity="1.000000" />
<path d="M 64.210938 184.281250 L 65.792969 184.281250 L 67.304688 188.722656 L 68.828125 184.281250 L 70.416016 184.281250 L 70.416016 193.000000 L 69.320312 193.000000 L 69.320312 185.294922 L 67.761719 189.888672 L 66.865234 189.888672 L 65.300781 185.294922 L 65.300781 193.000000 L 64.210938 193.000000 Z " fill="rgb(0, 0, 0)" fill-opacity="1.000000" />
<path d="M 171.140625 210.621094 L 171.140625 195.328125 L 172.078125 195.328125 L 172.078125 210.621094 Z " fill="rgb(0, 0, 0)" fill-opacity="1.000000" />
<path d="M 175.361328 210.621094 L 182.820312 195.328125 L 183.863281 195.328125 L 176.404297 210.621094 Z " fill="rgb(0, 0, 0)" fill-opacity="1.000000" />
<path d="M 267.140625 210.621094 L 267.140625 195.328125 L 268.078125 195.328125 L 268.078125 210.621094 Z " fill="rgb(0, 0, 0)" fill-opacity="1.000000" />
<path d="M 395.140625 210.621094 L 395.140625 195.328125 L 396.078125 195.328125 L 396.078125 210.621094 Z " fill="rgb(0, 0, 0)" fill-opacity="1.000000" />
<path d="M 75.609375 187.193359 Q 74.789062 187.193359 74.367188 187.832031 Q 73.945312 188.470703 73.945312 189.724609 Q 73.945312 190.972656 74.367188 191.614258 Q 74.789062 192.255859 75.609375 192.255859 Q 76.435547 192.255859 76.857422 191.614258 Q 77.279297 190.972656 77.279297 189.724609 Q 77.279297 188.470703 76.857422 187.832031 Q 76.435547 187.193359 75.609375 187.193359 Z M 75.609375 186.279297 Q 76.974609 186.279297 77.698242 187.164062 Q 78.421875 188.048828 78.421875 189.724609 Q 78.421875 191.406250 77.701172 192.288086 Q 76.980469 193.169922 75.609375 193.169922 Q 74.244141 193.169922 73.523438 192.288086 Q 72.802734 191.406250 72.802734 189.724609 Q 72.802734 188.048828 73.523438 187.164062 Q 74.244141 186.279297 75.609375 186.279297 Z " fill="rgb(0, 0, 0)" fill-opacity="1.000000" />
<path d="M 85.027344 187.275391 L 85.027344 183.882812 L 86.105469 183.882812 L 86.105469 193.000000 L 85.027344 193.000000 L 85.027344 192.173828 Q 84.757812 192.660156 84.309570 192.915039 Q 83.861328 193.169922 83.275391 193.169922 Q 82.085938 193.169922 81.403320 192.247070 Q 80.720703 191.324219 80.720703 189.701172 Q 80.720703 188.101562 81.406250 187.190430 Q 82.091797 186.279297 83.275391 186.279297 Q 83.867188 186.279297 84.318359 186.534180 Q 84.769531 186.789062 85.027344 187.275391 Z M 81.857422 189.724609 Q 81.857422 190.978516 82.255859 191.617188 Q 82.654297 192.255859 83.433594 192.255859 Q 84.212891 192.255859 84.620117 191.611328 Q 85.027344 190.966797 85.027344 189.724609 Q 85.027344 188.476562 84.620117 187.834961 Q 84.212891 187.193359 83.433594 187.193359 Q 82.654297 187.193359 82.255859 187.832031 Q 81.857422 188.470703 81.857422 189.724609 Z " fill="rgb(0, 0, 0)" fill-opacity="1.000000" />
<path d="M 94.562500 189.179688 L 94.562500 189.707031 L 89.892578 189.707031 L 89.892578 189.742188 Q 89.845703 191.083984 90.405273 191.669922 Q 90.964844 192.255859 91.984375 192.255859 Q 92.500000 192.255859 93.062500 192.091797 Q 93.625000 191.927734 94.263672 191.593750 L 94.263672 192.666016 Q 93.648438 192.917969 93.077148 193.043945 Q 92.505859 193.169922 91.972656 193.169922 Q 90.443359 193.169922 89.582031 192.252930 Q 88.720703 191.335938 88.720703 189.724609 Q 88.720703 188.154297 89.564453 187.216797 Q 90.408203 186.279297 91.814453 186.279297 Q 93.068359 186.279297 93.791992 187.128906 Q 94.515625 187.978516 94.562500 189.179688 Z M 93.484375 188.863281 Q 93.414062 188.183594 92.989258 187.688477 Q 92.564453 187.193359 91.767578 187.193359 Q 90.988281 187.193359 90.484375 187.708984 Q 89.980469 188.224609 89.933594 188.869141 Z " fill="rgb(0, 0, 0)" fill-opacity="1.000000" />
<path d="M 100.212891 190.626953 Q 100.212891 191.353516 100.479492 191.722656 Q 100.746094 192.091797 101.267578 192.091797 L 102.527344 192.091797 L 102.527344 193.000000 L 101.162109 193.000000 Q 100.195312 193.000000 99.665039 192.381836 Q 99.134766 191.763672 99.134766 190.626953 L 99.134766 184.691406 L 97.406250 184.691406 L 97.406250 183.847656 L 100.212891 183.847656 Z " fill="rgb(0, 0, 0)" fill-opacity="1.000000" />
<path d="M 113.365234 184.251953 L 118.515625 184.251953 L 118.515625 185.248047 L 114.554688 185.248047 L 114.554688 187.591797 L 118.146484 187.591797 L 118.146484 188.587891 L 114.554688 188.587891 L 114.554688 193.000000 L 113.365234 193.000000 Z " fill="rgb(0, 0, 0)" fill-opacity="1.000000" />
<path d="M 121.851562 186.460938 L 124.611328 186.460938 L 124.611328 192.162109 L 126.750000 192.162109 L 126.750000 193.000000 L 121.394531 193.000000 L 121.394531 192.162109 L 123.533203 192.162109 L 123.533203 187.298828 L 121.851562 187.298828 Z M 123.533203 183.912109 L 124.611328 183.912109 L 124.611328 185.271484 L 123.533203 185.271484 Z " fill="rgb(0, 0, 0)" fill-opacity="1.000000" />
<path d="M 132.212891 190.626953 Q 132.212891 191.353516 132.479492 191.722656 Q 132.746094 192.091797 133.267578 192.091797 L 134.527344 192.091797 L 134.527344 193.000000 L 133.162109 193.000000 Q 132.195312 193.000000 131.665039 192.381836 Q 131.134766 191.763672 131.134766 190.626953 L 131.134766 184.691406 L 129.406250 184.691406 L 129.406250 183.847656 L 132.212891 183.847656 Z " fill="rgb(0, 0, 0)" fill-opacity="1.000000" />
<path d="M 142.562500 189.179688 L 142.562500 189.707031 L 137.892578 189.707031 L 137.892578 189.742188 Q 137.845703 191.083984 138.405273 191.669922 Q 138.964844 192.255859 139.984375 192.255859 Q 140.500000 192.255859 141.062500 192.091797 Q 141.625000 191.927734 142.263672 191.593750 L 142.263672 192.666016 Q 141.648438 192.917969 141.077148 193.043945 Q 140.505859 193.169922 139.972656 193.169922 Q 138.443359 193.169922 137.582031 192.252930 Q 136.720703 191.335938 136.720703 189.724609 Q 136.720703 188.154297 137.564453 187.216797 Q 138.408203 186.279297 139.814453 186.279297 Q 141.068359 186.279297 141.791992 187.128906 Q 142.515625 187.978516 142.562500 189.179688 Z M 141.484375 188.863281 Q 141.414062 188.183594 140.989258 187.688477 Q 140.564453 187.193359 139.767578 187.193359 Q 138.988281 187.193359 138.484375 187.708984 Q 137.980469 188.224609 137.933594 188.869141 Z " fill="rgb(0, 0, 0)" fill-opacity="1.000000" />
<path d="M 171.140625 196.621094 L 171.140625 181.328125 L 172.078125 181.328125 L 172.078125 196.621094 Z " fill="rgb(0, 0, 0)" fill-opacity="1.000000" />
<path d="M 175.882812 190.093750 L 175.882812 189.085938 L 183.341797 189.085938 L 183.341797 190.093750 Z " fill="rgb(0, 0, 0)" fill-opacity="1.000000" />
<path d="M 186.179688 187.410156 Q 184.750000 188.230469 184.750000 189.882812 Q 184.750000 191.535156 186.179688 192.355469 Q 186.894531 192.771484 187.609375 192.771484 Q 188.324219 192.771484 189.039062 192.355469 Q 190.474609 191.529297 190.474609 189.882812 Q 190.474609 188.236328 189.039062 187.410156 Q 188.324219 186.994141 187.609375 186.994141 Q 186.894531 186.994141 186.179688 187.410156 Z M 185.822266 192.976562 Q 184.035156 191.945312 184.035156 189.882812 Q 184.035156 187.820312 185.822266 186.789062 Q 186.712891 186.273438 187.609375 186.273438 Q 188.500000 186.273438 189.396484 186.789062 Q 191.189453 187.820312 191.189453 189.882812 Q 191.189453 191.945312 189.396484 192.976562 Q 188.500000 193.492188 187.609375 193.492188 Q 186.712891 193.492188 185.822266 192.976562 Z " fill="rgb(0, 0, 0)" fill-opacity="1.000000" />
<path d="M 191.882812 190.093750 L 191.882812 189.085938 L 199.341797 189.085938 L 199.341797 190.093750 Z " fill="rgb(0, 0, 0)" fill-opacity="1.000000" />
<path d="M 199.882812 190.093750 L 199.882812 189.085938 L 207.341797 189.085938 L 207.341797 190.093750 Z " fill="rgb(0, 0, 0)" fill-opacity="1.000000" />
<path d="M 207.882812 190.093750 L 207.882812 189.085938 L 215.341797 189.085938 L 215.341797 190.093750 Z " fill="rgb(0, 0, 0)" fill-opacity="1.000000" />
<path d="M 215.882812 190.093750 L 215.882812 189.085938 L 223.341797 189.085938 L 223.341797 190.093750 Z " fill="rgb(0, 0, 0)" fill-opacity="1.000000" />
<path d="M 223.882812 190.093750 L 223.882812 189.085938 L 231.341797 189.085938 L 231.341797 190.093750 Z " fill="rgb(0, 0, 0)" fill-opacity="1.000000" />
<path d="M 231.882812 190.093750 L 231.882812 189.085938 L 239.341797 189.085938 L 239.341797 190.093750 Z " fill="rgb(0, 0, 0)" fill-opacity="1.000000" />
<path d="M 239.882812 190.093750 L 239.882812 189.085938 L 247.341797 189.085938 L 247.341797 190.093750 Z " fill="rgb(0, 0, 0)" fill-opacity="1.000000" />
<path d="M 247.882812 190.093750 L 247.882812 189.085938 L 255.341797 189.085938 L 255.341797 190.093750 Z " fill="rgb(0, 0, 0)" fill-opacity="1.000000" />
<path d="M 260.078125 190.093750 L 260.078125 196.621094 L 259.140625 196.621094 L 259.140625 190.093750 L 255.882812 190.093750 L 255.882812 189.085938 L 259.140625 189.085938 L 259.140625 181.328125 L 260.078125 181.328125 L 260.078125 189.085938 L 263.341797 189.085938 L 263.341797 190.093750 Z " fill="rgb(0, 0, 0)" fill-opacity="1.000000" />
<path d="M 267.140625 196.621094 L 267.140625 181.328125 L 268.078125 181.328125 L 268.078125 196.621094 Z " fill="rgb(0, 0, 0)" fill-opacity="1.000000" />
<path d="M 276.453125 188.869141 Q 276.910156 188.986328 277.232422 189.311523 Q 277.554688 189.636719 278.035156 190.609375 L 279.224609 193.000000 L 277.953125 193.000000 L 276.910156 190.791016 Q 276.458984 189.847656 276.098633 189.575195 Q 275.738281 189.302734 275.158203 189.302734 L 274.027344 189.302734 L 274.027344 193.000000 L 272.837891 193.000000 L 272.837891 184.251953 L 275.275391 184.251953 Q 276.716797 184.251953 277.484375 184.902344 Q 278.251953 185.552734 278.251953 186.783203 Q 278.251953 187.650391 277.780273 188.198242 Q 277.308594 188.746094 276.453125 188.869141 Z M 274.027344 185.224609 L 274.027344 188.330078 L 275.322266 188.330078 Q 276.171875 188.330078 276.587891 187.949219 Q 277.003906 187.568359 277.003906 186.783203 Q 277.003906 186.027344 276.561523 185.625977 Q 276.119141 185.224609 275.275391 185.224609 Z " fill="rgb(0, 0, 0)" fill-opacity="1.000000" />
<path d="M 286.562500 189.179688 L 286.562500 189.707031 L 281.892578 189.707031 L 281.892578 189.742188 Q 281.845703 191.083984 282.405273 191.669922 Q 282.964844 192.255859 283.984375 192.255859 Q 284.500000 192.255859 285.062500 192.091797 Q 285.625000 191.927734 286.263672 191.593750 L 286.263672 192.666016 Q 285.648438 192.917969 285.077148 193.043945 Q 284.505859 193.169922 283.972656 193.169922 Q 282.443359 193.169922 281.582031 192.252930 Q 280.720703 191.335938 280.720703 189.724609 Q 280.720703 188.154297 281.564453 187.216797 Q 282.408203 186.279297 283.814453 186.279297 Q 285.068359 186.279297 285.791992 187.128906 Q 286.515625 187.978516 286.562500 189.179688 Z M 285.484375 188.863281 Q 285.414062 188.183594 284.989258 187.688477 Q 284.564453 187.193359 283.767578 187.193359 Q 282.988281 187.193359 282.484375 187.708984 Q 281.980469 188.224609 281.933594 188.869141 Z " fill="rgb(0, 0, 0)" fill-opacity="1.000000" />
<path d="M 290.197266 192.173828 L 290.197266 195.496094 L 289.113281 195.496094 L 289.113281 186.437500 L 290.197266 186.437500 L 290.197266 187.275391 Q 290.466797 186.789062 290.915039 186.534180 Q 291.363281 186.279297 291.949219 186.279297 Q 293.138672 186.279297 293.815430 187.199219 Q 294.492188 188.119141 294.492188 189.748047 Q 294.492188 191.347656 293.812500 192.258789 Q 293.132812 193.169922 291.949219 193.169922 Q 291.351562 193.169922 290.903320 192.915039 Q 290.455078 192.660156 290.197266 192.173828 Z M 293.361328 189.724609 Q 293.361328 188.470703 292.965820 187.832031 Q 292.570312 187.193359 291.791016 187.193359 Q 291.005859 187.193359 290.601562 187.834961 Q 290.197266 188.476562 290.197266 189.724609 Q 290.197266 190.966797 290.601562 191.611328 Q 291.005859 192.255859 291.791016 192.255859 Q 292.570312 192.255859 292.965820 191.617188 Q 293.361328 190.978516 293.361328 189.724609 Z " fill="rgb(0, 0, 0)" fill-opacity="1.000000" />
<path d="M 302.767578 187.791016 Q 302.421875 187.521484 302.064453 187.398438 Q 301.707031 187.275391 301.279297 187.275391 Q 300.271484 187.275391 299.738281 187.908203 Q 299.205078 188.541016 299.205078 189.736328 L 299.205078 193.000000 L 298.121094 193.000000 L 298.121094 186.437500 L 299.205078 186.437500 L 299.205078 187.720703 Q 299.474609 187.023438 300.034180 186.651367 Q 300.593750 186.279297 301.361328 186.279297 Q 301.759766 186.279297 302.105469 186.378906 Q 302.451172 186.478516 302.767578 186.689453 Z " fill="rgb(0, 0, 0)" fill-opacity="1.000000" />
<path d="M 310.562500 189.179688 L 310.562500 189.707031 L 305.892578 189.707031 L 305.892578 189.742188 Q 305.845703 191.083984 306.405273 191.669922 Q 306.964844 192.255859 307.984375 192.255859 Q 308.500000 192.255859 309.062500 192.091797 Q 309.625000 191.927734 310.263672 191.593750 L 310.263672 192.666016 Q 309.648438 192.917969 309.077148 193.043945 Q 308.505859 193.169922 307.972656 193.169922 Q 306.443359 193.169922 305.582031 192.252930 Q 304.720703 191.335938 304.720703 189.724609 Q 304.720703 188.154297 305.564453 187.216797 Q 306.408203 186.279297 307.814453 186.279297 Q 309.068359 186.279297 309.791992 187.128906 Q 310.515625 187.978516 310.562500 189.179688 Z M 309.484375 188.863281 Q 309.414062 188.183594 308.989258 187.688477 Q 308.564453 187.193359 307.767578 187.193359 Q 306.988281 187.193359 306.484375 187.708984 Q 305.980469 188.224609 305.933594 188.869141 Z " fill="rgb(0, 0, 0)" fill-opacity="1.000000" />
<path d="M 317.701172 186.666016 L 317.701172 187.720703 Q 317.238281 187.451172 316.769531 187.316406 Q 316.300781 187.181641 315.814453 187.181641 Q 315.082031 187.181641 314.721680 187.418945 Q 314.361328 187.656250 314.361328 188.142578 Q 314.361328 188.582031 314.630859 188.798828 Q 314.900391 189.015625 315.972656 189.220703 L 316.406250 189.302734 Q 317.208984 189.455078 317.622070 189.912109 Q 318.035156 190.369141 318.035156 191.101562 Q 318.035156 192.074219 317.343750 192.622070 Q 316.652344 193.169922 315.421875 193.169922 Q 314.935547 193.169922 314.402344 193.067383 Q 313.869141 192.964844 313.248047 192.759766 L 313.248047 191.646484 Q 313.851562 191.957031 314.402344 192.112305 Q 314.953125 192.267578 315.445312 192.267578 Q 316.160156 192.267578 316.552734 191.977539 Q 316.945312 191.687500 316.945312 191.166016 Q 316.945312 190.416016 315.509766 190.128906 L 315.462891 190.117188 L 315.058594 190.035156 Q 314.126953 189.853516 313.699219 189.422852 Q 313.271484 188.992188 313.271484 188.248047 Q 313.271484 187.304688 313.910156 186.791992 Q 314.548828 186.279297 315.732422 186.279297 Q 316.259766 186.279297 316.746094 186.375977 Q 317.232422 186.472656 317.701172 186.666016 Z " fill="rgb(0, 0, 0)" fill-opacity="1.000000" />
<path d="M 326.562500 189.179688 L 326.562500 189.707031 L 321.892578 189.707031 L 321.892578 189.742188 Q 321.845703 191.083984 322.405273 191.669922 Q 322.964844 192.255859 323.984375 192.255859 Q 324.500000 192.255859 325.062500 192.091797 Q 325.625000 191.927734 326.263672 191.593750 L 326.263672 192.666016 Q 325.648438 192.917969 325.077148 193.043945 Q 324.505859 193.169922 323.972656 193.169922 Q 322.443359 193.169922 321.582031 192.252930 Q 320.720703 191.335938 320.720703 189.724609 Q 320.720703 188.154297 321.564453 187.216797 Q 322.408203 186.279297 323.814453 186.279297 Q 325.068359 186.279297 325.791992 187.128906 Q 326.515625 187.978516 326.562500 189.179688 Z M 325.484375 188.863281 Q 325.414062 188.183594 324.989258 187.688477 Q 324.564453 187.193359 323.767578 187.193359 Q 322.988281 187.193359 322.484375 187.708984 Q 321.980469 188.224609 321.933594 188.869141 Z " fill="rgb(0, 0, 0)" fill-opacity="1.000000" />
<path d="M 334.158203 188.933594 L 334.158203 193.000000 L 333.074219 193.000000 L 333.074219 188.933594 Q 333.074219 188.048828 332.763672 187.632812 Q 332.453125 187.216797 331.791016 187.216797 Q 331.035156 187.216797 330.627930 187.752930 Q 330.220703 188.289062 330.220703 189.291016 L 330.220703 193.000000 L 329.142578 193.000000 L 329.142578 186.437500 L 330.220703 186.437500 L 330.220703 187.421875 Q 330.507812 186.859375 331.000000 186.569336 Q 331.492188 186.279297 332.166016 186.279297 Q 333.167969 186.279297 333.663086 186.938477 Q 334.158203 187.597656 334.158203 188.933594 Z " fill="rgb(0, 0, 0)" fill-opacity="1.000000" />
<path d="M 339.597656 184.574219 L 339.597656 186.437500 L 342.046875 186.437500 L 342.046875 187.275391 L 339.597656 187.275391 L 339.597656 190.837891 Q 339.597656 191.564453 339.873047 191.851562 Q 340.148438 192.138672 340.833984 192.138672 L 342.046875 192.138672 L 342.046875 193.000000 L 340.728516 193.000000 Q 339.515625 193.000000 339.017578 192.513672 Q 338.519531 192.027344 338.519531 190.837891 L 338.519531 187.275391 L 336.767578 187.275391 L 336.767578 186.437500 L 338.519531 186.437500 L 338.519531 184.574219 Z " fill="rgb(0, 0, 0)" fill-opacity="1.000000" />
<path d="M 348.113281 189.701172 L 347.755859 189.701172 Q 346.812500 189.701172 346.334961 190.032227 Q 345.857422 190.363281 345.857422 191.019531 Q 345.857422 191.611328 346.214844 191.939453 Q 346.572266 192.267578 347.205078 192.267578 Q 348.095703 192.267578 348.605469 191.649414 Q 349.115234 191.031250 349.121094 189.941406 L 349.121094 189.701172 Z M 350.205078 189.255859 L 350.205078 193.000000 L 349.121094 193.000000 L 349.121094 192.027344 Q 348.775391 192.613281 348.250977 192.891602 Q 347.726562 193.169922 346.976562 193.169922 Q 345.974609 193.169922 345.376953 192.604492 Q 344.779297 192.039062 344.779297 191.089844 Q 344.779297 189.994141 345.514648 189.425781 Q 346.250000 188.857422 347.673828 188.857422 L 349.121094 188.857422 L 349.121094 188.687500 Q 349.115234 187.902344 348.722656 187.547852 Q 348.330078 187.193359 347.468750 187.193359 Q 346.917969 187.193359 346.355469 187.351562 Q 345.792969 187.509766 345.259766 187.814453 L 345.259766 186.736328 Q 345.857422 186.507812 346.405273 186.393555 Q 346.953125 186.279297 347.468750 186.279297 Q 348.283203 186.279297 348.860352 186.519531 Q 349.437500 186.759766 349.794922 187.240234 Q 350.017578 187.533203 350.111328 187.963867 Q 350.205078 188.394531 350.205078 189.255859 Z " fill="rgb(0, 0, 0)" fill-opacity="1.000000" />
<path d="M 355.597656 184.574219 L 355.597656 186.437500 L 358.046875 186.437500 L 358.046875 187.275391 L 355.597656 187.275391 L 355.597656 190.837891 Q 355.597656 191.564453 355.873047 191.851562 Q 356.148438 192.138672 356.833984 192.138672 L 358.046875 192.138672 L 358.046875 193.000000 L 356.728516 193.000000 Q 355.515625 193.000000 355.017578 192.513672 Q 354.519531 192.027344 354.519531 190.837891 L 354.519531 187.275391 L 352.767578 187.275391 L 352.767578 186.437500 L 354.519531 186.437500 L 354.519531 184.574219 Z " fill="rgb(0, 0, 0)" fill-opacity="1.000000" />
<path d="M 361.851562 186.460938 L 364.611328 186.460938 L 364.611328 192.162109 L 366.750000 192.162109 L 366.750000 193.000000 L 361.394531 193.000000 L 361.394531 192.162109 L 363.533203 192.162109 L 363.533203 187.298828 L 361.851562 187.298828 Z M 363.533203 183.912109 L 364.611328 183.912109 L 364.611328 185.271484 L 363.533203 185.271484 Z " fill="rgb(0, 0, 0)" fill-opacity="1.000000" />
<path d="M 371.609375 187.193359 Q 370.789062 187.193359 370.367188 187.832031 Q 369.945312 188.470703 369.945312 189.724609 Q 369.945312 190.972656 370.367188 191.614258 Q 370.789062 192.255859 371.609375 192.255859 Q 372.435547 192.255859 372.857422 191.614258 Q 373.279297 190.972656 373.279297 189.724609 Q 373.279297 188.470703 372.857422 187.832031 Q 372.435547 187.193359 371.609375 187.193359 Z M 371.609375 186.279297 Q 372.974609 186.279297 373.698242 187.164062 Q 374.421875 188.048828 374.421875 189.724609 Q 374.421875 191.406250 373.701172 192.288086 Q 372.980469 193.169922 371.609375 193.169922 Q 370.244141 193.169922 369.523438 192.288086 Q 368.802734 191.406250 368.802734 189.724609 Q 368.802734 188.048828 369.523438 187.164062 Q 370.244141 186.279297 371.609375 186.279297 Z " fill="rgb(0, 0, 0)" fill-opacity="1.000000" />
<path d="M 382.158203 188.933594 L 382.158203 193.000000 L 381.074219 193.000000 L 381.074219 188.933594 Q 381.074219 188.048828 380.763672 187.632812 Q 380.453125 187.216797 379.791016 187.216797 Q 379.035156 187.216797 378.627930 187.752930 Q 378.220703 188.289062 378.220703 189.291016 L 378.220703 193.000000 L 377.142578 193.000000 L 377.142578 186.437500 L 378.220703 186.437500 L 378.220703 187.421875 Q 378.507812 186.859375 379.000000 186.569336 Q 379.492188 186.279297 380.166016 186.279297 Q 381.167969 186.279297 381.663086 186.938477 Q 382.158203 187.597656 382.158203 188.933594 Z " fill="rgb(0, 0, 0)" fill-opacity="1.000000" />
<path d="M 395.140625 196.621094 L 395.140625 181.328125 L 396.078125 181.328125 L 396.078125 196.621094 Z " fill="rgb(0, 0, 0)" fill-opacity="1.000000" />
<path d="M 171.140625 182.621094 L 171.140625 167.328125 L 172.078125 167.328125 L 172.078125 182.621094 Z " fill="rgb(0, 0, 0)" fill-opacity="1.000000" />
<path d="M 183.863281 182.621094 L 182.820312 182.621094 L 175.361328 167.328125 L 176.404297 167.328125 Z " fill="rgb(0, 0, 0)" fill-opacity="1.000000" />
<path d="M 267.140625 182.621094 L 267.140625 167.328125 L 268.078125 167.328125 L 268.078125 182.621094 Z " fill="rgb(0, 0, 0)" fill-opacity="1.000000" />
<path d="M 395.140625 182.621094 L 395.140625 167.328125 L 396.078125 167.328125 L 396.078125 182.621094 Z " fill="rgb(0, 0, 0)" fill-opacity="1.000000" />
<path d="M 13.701172 144.666016 L 13.701172 145.720703 Q 13.238281 145.451172 12.769531 145.316406 Q 12.300781 145.181641 11.814453 145.181641 Q 11.082031 145.181641 10.721680 145.418945 Q 10.361328 145.656250 10.361328 146.142578 Q 10.361328 146.582031 10.630859 146.798828 Q 10.900391 147.015625 11.972656 147.220703 L 12.406250 147.302734 Q 13.208984 147.455078 13.622070 147.912109 Q 14.035156 148.369141 14.035156 149.101562 Q 14.035156 150.074219 13.343750 150.622070 Q 12.652344 151.169922 11.421875 151.169922 Q 10.935547 151.169922 10.402344 151.067383 Q 9.869141 150.964844 9.248047 150.759766 L 9.248047 149.646484 Q 9.851562 149.957031 10.402344 150.112305 Q 10.953125 150.267578 11.445312 150.267578 Q 12.160156 150.267578 12.552734 149.977539 Q 12.945312 149.687500 12.945312 149.166016 Q 12.945312 148.416016 11.509766 148.128906 L 11.462891 148.117188 L 11.058594 148.035156 Q 10.126953 147.853516 9.699219 147.422852 Q 9.271484 146.992188 9.271484 146.248047 Q 9.271484 145.304688 9.910156 144.791992 Q 10.548828 144.279297 11.732422 144.279297 Q 12.259766 144.279297 12.746094 144.375977 Q 13.232422 144.472656 13.701172 144.666016 Z " fill="rgb(0, 0, 0)" fill-opacity="1.000000" />
<path d="M 43.140625 168.621094 L 43.140625 161.085938 L 47.341797 161.085938 L 47.341797 162.093750 L 44.078125 162.093750 L 44.078125 168.621094 Z " fill="rgb(0, 0, 0)" fill-opacity="1.000000" />
<path d="M 47.882812 162.093750 L 47.882812 161.085938 L 55.341797 161.085938 L 55.341797 162.093750 Z " fill="rgb(0, 0, 0)" fill-opacity="1.000000" />
<path d="M 55.882812 162.093750 L 55.882812 161.085938 L 63.341797 161.085938 L 63.341797 162.093750 Z " fill="rgb(0, 0, 0)" fill-opacity="1.000000" />
<path d="M 63.882812 162.093750 L 63.882812 161.085938 L 71.341797 161.085938 L 71.341797 162.093750 Z " fill="rgb(0, 0, 0)" fill-opacity="1.000000" />
<path d="M 71.882812 162.093750 L 71.882812 161.085938 L 79.341797 161.085938 L 79.341797 162.093750 Z " fill="rgb(0, 0, 0)" fill-opacity="1.000000" />
<path d="M 79.882812 162.093750 L 79.882812 161.085938 L 87.341797 161.085938 L 87.341797 162.093750 Z " fill="rgb(0, 0, 0)" fill-opacity="1.000000" />
<path d="M 87.882812 162.093750 L 87.882812 161.085938 L 95.341797 161.085938 L 95.341797 162.093750 Z " fill="rgb(0, 0, 0)" fill-opacity="1.000000" />
<path d="M 95.882812 162.093750 L 95.882812 161.085938 L 103.341797 161.085938 L 103.341797 162.093750 Z " fill="rgb(0, 0, 0)" fill-opacity="1.000000" />
<path d="M 103.882812 162.093750 L 103.882812 161.085938 L 111.341797 161.085938 L 111.341797 162.093750 Z " fill="rgb(0, 0, 0)" fill-opacity="1.000000" />
<path d="M 111.882812 162.093750 L 111.882812 161.085938 L 119.341797 161.085938 L 119.341797 162.093750 Z " fill="rgb(0, 0, 0)" fill-opacity="1.000000" />
<path d="M 119.882812 162.093750 L 119.882812 161.085938 L 127.341797 161.085938 L 127.341797 162.093750 Z " fill="rgb(0, 0, 0)" fill-opacity="1.000000" />
<path d="M 127.882812 162.093750 L 127.882812 161.085938 L 135.341797 161.085938 L 135.341797 162.093750 Z " fill="rgb(0, 0, 0)" fill-opacity="1.000000" />
<path d="M 135.882812 162.093750 L 135.882812 161.085938 L 143.341797 161.085938 L 143.341797 162.093750 Z " fill="rgb(0, 0, 0)" fill-opacity="1.000000" />
<path d="M 143.882812 162.093750 L 143.882812 161.085938 L 151.341797 161.085938 L 151.341797 162.093750 Z " fill="rgb(0, 0, 0)" fill-opacity="1.000000" />
<path d="M 151.882812 162.093750 L 151.882812 161.085938 L 159.341797 161.085938 L 159.341797 162.093750 Z " fill="rgb(0, 0, 0)" fill-opacity="1.000000" />
<path d="M 159.882812 162.093750 L 159.882812 161.085938 L 167.341797 161.085938 L 167.341797 162.093750 Z " fill="rgb(0, 0, 0)" fill-opacity="1.000000" />
<path d="M 171.140625 168.621094 L 171.140625 162.093750 L 167.882812 162.093750 L 167.882812 161.085938 L 172.078125 161.085938 L 172.078125 168.621094 Z " fill="rgb(0, 0, 0)" fill-opacity="1.000000" />
<path d="M 267.140625 168.621094 L 267.140625 161.085938 L 271.341797 161.085938 L 271.341797 162.093750 L 268.078125 162.093750 L 268.078125 168.621094 Z " fill="rgb(0, 0, 0)" fill-opacity="1.000000" />
<path d="M 271.882812 162.093750 L 271.882812 161.085938 L 279.341797 161.085938 L 279.341797 162.093750 Z " fill="rgb(0, 0, 0)" fill-opacity="1.000000" />
<path d="M 279.882812 162.093750 L 279.882812 161.085938 L 287.341797 161.085938 L 287.341797 162.093750 Z " fill="rgb(0, 0, 0)" fill-opacity="1.000000" />
<path d="M 287.882812 162.093750 L 287.882812 161.085938 L 295.341797 161.085938 L 295.341797 162.093750 Z " fill="rgb(0, 0, 0)" fill-opacity="1.000000" />
<path d="M 295.882812 162.093750 L 295.882812 161.085938 L 303.341797 161.085938 L 303.341797 162.093750 Z " fill="rgb(0, 0, 0)" fill-opacity="1.000000" />
<path d="M 303.882812 162.093750 L 303.882812 161.085938 L 311.341797 161.085938 L 311.341797 162.093750 Z " fill="rgb(0, 0, 0)" fill-opacity="1.000000" />
<path d="M 311.882812 162.093750 L 311.882812 161.085938 L 319.341797 161.085938 L 319.341797 162.093750 Z " fill="rgb(0, 0, 0)" fill-opacity="1.000000" />
<path d="M 319.882812 162.093750 L 319.882812 161.085938 L 327.341797 161.085938 L 327.341797 162.093750 Z " fill="rgb(0, 0, 0)" fill-opacity="1.000000" />
<path d="M 327.882812 162.093750 L 327.882812 161.085938 L 335.341797 161.085938 L 335.341797 162.093750 Z " fill="rgb(0, 0, 0)" fill-opacity="1.000000" />
<path d="M 335.882812 162.093750 L 335.882812 161.085938 L 343.341797 161.085938 L 343.341797 162.093750 Z " fill="rgb(0, 0, 0)" fill-opacity="1.000000" />
<path d="M 343.882812 162.093750 L 343.882812 161.085938 L 351.341797 161.085938 L 351.341797 162.093750 Z " fill="rgb(0, 0, 0)" fill-opacity="1.000000" />
<path d="M 351.882812 162.093750 L 351.882812 161.085938 L 359.341797 161.085938 L 359.341797 162.093750 Z " fill="rgb(0, 0, 0)" fill-opacity="1.000000" />
<path d="M 359.882812 162.093750 L 359.882812 161.085938 L 367.341797 161.085938 L 367.341797 162.093750 Z " fill="rgb(0, 0, 0)" fill-opacity="1.000000" />
<path d="M 367.882812 162.093750 L 367.882812 161.085938 L 375.341797 161.085938 L 375.341797 162.093750 Z " fill="rgb(0, 0, 0)" fill-opacity="1.000000" />
<path d="M 375.882812 162.093750 L 375.882812 161.085938 L 383.341797 161.085938 L 383.341797 162.093750 Z " fill="rgb(0, 0, 0)" fill-opacity="1.000000" />
<path d="M 383.882812 162.093750 L 383.882812 161.085938 L 391.341797 161.085938 L 391.341797 162.093750 Z " fill="rgb(0, 0, 0)" fill-opacity="1.000000" />
<path d="M 395.140625 168.621094 L 395.140625 162.093750 L 391.882812 162.093750 L 391.882812 161.085938 L 396.078125 161.085938 L 396.078125 168.621094 Z " fill="rgb(0, 0, 0)" fill-opacity="1.000000" />
<path d="M 18.197266 150.173828 L 18.197266 153.496094 L 17.113281 153.496094 L 17.113281 144.437500 L 18.197266 144.437500 L 18.197266 145.275391 Q 18.466797 144.789062 18.915039 144.534180 Q 19.363281 144.279297 19.949219 144.279297 Q 21.138672 144.279297 21.815430 145.199219 Q 22.492188 146.119141 22.492188 147.748047 Q 22.492188 149.347656 21.812500 150.258789 Q 21.132812 151.169922 19.949219 151.169922 Q 19.351562 151.169922 18.903320 150.915039 Q 18.455078 150.660156 18.197266 150.173828 Z M 21.361328 147.724609 Q 21.361328 146.470703 20.965820 145.832031 Q 20.570312 145.193359 19.791016 145.193359 Q 19.005859 145.193359 18.601562 145.834961 Q 18.197266 146.476562 18.197266 147.724609 Q 18.197266 148.966797 18.601562 149.611328 Q 19.005859 150.255859 19.791016 150.255859 Q 20.570312 150.255859 20.965820 149.617188 Q 21.361328 148.978516 21.361328 147.724609 Z " fill="rgb(0, 0, 0)" fill-opacity="1.000000" />
<path d="M 28.212891 148.626953 Q 28.212891 149.353516 28.479492 149.722656 Q 28.746094 150.091797 29.267578 150.091797 L 30.527344 150.091797 L 30.527344 151.000000 L 29.162109 151.000000 Q 28.195312 151.000000 27.665039 150.381836 Q 27.134766 149.763672 27.134766 148.626953 L 27.134766 142.691406 L 25.406250 142.691406 L 25.406250 141.847656 L 28.212891 141.847656 Z " fill="rgb(0, 0, 0)" fill-opacity="1.000000" />
<path d="M 33.851562 144.460938 L 36.611328 144.460938 L 36.611328 150.162109 L 38.750000 150.162109 L 38.750000 151.000000 L 33.394531 151.000000 L 33.394531 150.162109 L 35.533203 150.162109 L 35.533203 145.298828 L 33.851562 145.298828 Z M 35.533203 141.912109 L 36.611328 141.912109 L 36.611328 143.271484 L 35.533203 143.271484 Z " fill="rgb(0, 0, 0)" fill-opacity="1.000000" />
<path d="M 43.597656 142.574219 L 43.597656 144.437500 L 46.046875 144.437500 L 46.046875 145.275391 L 43.597656 145.275391 L 43.597656 148.837891 Q 43.597656 149.564453 43.873047 149.851562 Q 44.148438 150.138672 44.833984 150.138672 L 46.046875 150.138672 L 46.046875 151.000000 L 44.728516 151.000000 Q 43.515625 151.000000 43.017578 150.513672 Q 42.519531 150.027344 42.519531 148.837891 L 42.519531 145.275391 L 40.767578 145.275391 L 40.767578 144.437500 L 42.519531 144.437500 L 42.519531 142.574219 Z " fill="rgb(0, 0, 0)" fill-opacity="1.000000" />
<path d="M 48.597656 146.757812 L 54.808594 146.757812 L 54.808594 147.748047 L 48.597656 147.748047 Z " fill="rgb(0, 0, 0)" fill-opacity="1.000000" />
<path d="M 57.851562 144.460938 L 60.611328 144.460938 L 60.611328 150.162109 L 62.750000 150.162109 L 62.750000 151.000000 L 57.394531 151.000000 L 57.394531 150.162109 L 59.533203 150.162109 L 59.533203 145.298828 L 57.851562 145.298828 Z M 59.533203 141.912109 L 60.611328 141.912109 L 60.611328 143.271484 L 59.533203 143.271484 Z " fill="rgb(0, 0, 0)" fill-opacity="1.000000" />
<path d="M 70.158203 146.933594 L 70.158203 151.000000 L 69.074219 151.000000 L 69.074219 146.933594 Q 69.074219 146.048828 68.763672 145.632812 Q 68.453125 145.216797 67.791016 145.216797 Q 67.035156 145.216797 66.627930 145.752930 Q 66.220703 146.289062 66.220703 147.291016 L 66.220703 151.000000 L 65.142578 151.000000 L 65.142578 144.437500 L 66.220703 144.437500 L 66.220703 145.421875 Q 66.507812 144.859375 67.000000 144.569336 Q 67.492188 144.279297 68.166016 144.279297 Q 69.167969 144.279297 69.663086 144.938477 Q 70.158203 145.597656 70.158203 146.933594 Z " fill="rgb(0, 0, 0)" fill-opacity="1.000000" />
<path d="M 75.597656 142.574219 L 75.597656 144.437500 L 78.046875 144.437500 L 78.046875 145.275391 L 75.597656 145.275391 L 75.597656 148.837891 Q 75.597656 149.564453 75.873047 149.851562 Q 76.148438 150.138672 76.833984 150.138672 L 78.046875 150.138672 L 78.046875 151.000000 L 76.728516 151.000000 Q 75.515625 151.000000 75.017578 150.513672 Q 74.519531 150.027344 74.519531 148.837891 L 74.519531 145.275391 L 72.767578 145.275391 L 72.767578 144.437500 L 74.519531 144.437500 L 74.519531 142.574219 Z " fill="rgb(0, 0, 0)" fill-opacity="1.000000" />
<path d="M 83.609375 145.193359 Q 82.789062 145.193359 82.367188 145.832031 Q 81.945312 146.470703 81.945312 147.724609 Q 81.945312 148.972656 82.367188 149.614258 Q 82.789062 150.255859 83.609375 150.255859 Q 84.435547 150.255859 84.857422 149.614258 Q 85.279297 148.972656 85.279297 147.724609 Q 85.279297 146.470703 84.857422 145.832031 Q 84.435547 145.193359 83.609375 145.193359 Z M 83.609375 144.279297 Q 84.974609 144.279297 85.698242 145.164062 Q 86.421875 146.048828 86.421875 147.724609 Q 86.421875 149.406250 85.701172 150.288086 Q 84.980469 151.169922 83.609375 151.169922 Q 82.244141 151.169922 81.523438 150.288086 Q 80.802734 149.406250 80.802734 147.724609 Q 80.802734 146.048828 81.523438 145.164062 Q 82.244141 144.279297 83.609375 144.279297 Z " fill="rgb(0, 0, 0)" fill-opacity="1.000000" />
<path d="M 95.361328 154.621094 L 102.820312 139.328125 L 103.863281 139.328125 L 96.404297 154.621094 Z " fill="rgb(0, 0, 0)" fill-opacity="1.000000" />
<path d="M 107.140625 154.621094 L 107.140625 139.328125 L 108.078125 139.328125 L 108.078125 154.621094 Z " fill="rgb(0, 0, 0)" fill-opacity="1.000000" />
<path d="M 119.863281 154.621094 L 118.820312 154.621094 L 111.361328 139.328125 L 112.404297 139.328125 Z " fill="rgb(0, 0, 0)" fill-opacity="1.000000" />
<path d="M 275.140625 154.621094 L 275.140625 139.328125 L 276.078125 139.328125 L 276.078125 154.621094 Z " fill="rgb(0, 0, 0)" fill-opacity="1.000000" />
<path d="M 387.140625 154.621094 L 387.140625 139.328125 L 388.078125 139.328125 L 388.078125 154.621094 Z " fill="rgb(0, 0, 0)" fill-opacity="1.000000" />
<path d="M 106.179688 131.410156 Q 104.750000 132.230469 104.750000 133.882812 Q 104.750000 135.535156 106.179688 136.355469 Q 106.894531 136.771484 107.609375 136.771484 Q 108.324219 136.771484 109.039062 136.355469 Q 110.474609 135.529297 110.474609 133.882812 Q 110.474609 132.236328 109.039062 131.410156 Q 108.324219 130.994141 107.609375 130.994141 Q 106.894531 130.994141 106.179688 131.410156 Z M 105.822266 136.976562 Q 104.035156 135.945312 104.035156 133.882812 Q 104.035156 131.820312 105.822266 130.789062 Q 106.712891 130.273438 107.609375 130.273438 Q 108.500000 130.273438 109.396484 130.789062 Q 111.189453 131.820312 111.189453 133.882812 Q 111.189453 135.945312 109.396484 136.976562 Q 108.500000 137.492188 107.609375 137.492188 Q 106.712891 137.492188 105.822266 136.976562 Z " fill="rgb(0, 0, 0)" fill-opacity="1.000000" />
<path d="M 275.140625 140.621094 L 275.140625 125.328125 L 276.078125 125.328125 L 276.078125 140.621094 Z " fill="rgb(0, 0, 0)" fill-opacity="1.000000" />
<path d="M 387.140625 140.621094 L 387.140625 125.328125 L 388.078125 125.328125 L 388.078125 140.621094 Z " fill="rgb(0, 0, 0)" fill-opacity="1.000000" />
<path d="M 107.140625 112.621094 L 107.140625 97.328125 L 108.078125 97.328125 L 108.078125 112.621094 Z " fill="rgb(0, 0, 0)" fill-opacity="1.000000" />
<path d="M 107.140625 126.621094 L 107.140625 111.328125 L 108.078125 111.328125 L 108.078125 126.621094 Z " fill="rgb(0, 0, 0)" fill-opacity="1.000000" />
<path d="M 275.140625 112.621094 L 275.140625 97.328125 L 276.078125 97.328125 L 276.078125 112.621094 Z " fill="rgb(0, 0, 0)" fill-opacity="1.000000" />
<path d="M 275.140625 126.621094 L 275.140625 111.328125 L 276.078125 111.328125 L 276.078125 126.621094 Z " fill="rgb(0, 0, 0)" fill-opacity="1.000000" />
<path d="M 387.140625 112.621094 L 387.140625 97.328125 L 388.078125 97.328125 L 388.078125 112.621094 Z " fill="rgb(0, 0, 0)" fill-opacity="1.000000" />
<path d="M 387.140625 126.621094 L 387.140625 111.328125 L 388.078125 111.328125 L 388.078125 126.621094 Z " fill="rgb(0, 0, 0)" fill-opacity="1.000000" />
<path d="M 34.197266 80.173828 L 34.197266 83.496094 L 33.113281 83.496094 L 33.113281 74.437500 L 34.197266 74.437500 L 34.197266 75.275391 Q 34.466797 74.789062 34.915039 74.534180 Q 35.363281 74.279297 35.949219 74.279297 Q 37.138672 74.279297 37.815430 75.199219 Q 38.492188 76.119141 38.492188 77.748047 Q 38.492188 79.347656 37.812500 80.258789 Q 37.132812 81.169922 35.949219 81.169922 Q 35.351562 81.169922 34.903320 80.915039 Q 34.455078 80.660156 34.197266 80.173828 Z M 37.361328 77.724609 Q 37.361328 76.470703 36.965820 75.832031 Q 36.570312 75.193359 35.791016 75.193359 Q 35.005859 75.193359 34.601562 75.834961 Q 34.197266 76.476562 34.197266 77.724609 Q 34.197266 78.966797 34.601562 79.611328 Q 35.005859 80.255859 35.791016 80.255859 Q 36.570312 80.255859 36.965820 79.617188 Q 37.361328 78.978516 37.361328 77.724609 Z " fill="rgb(0, 0, 0)" fill-opacity="1.000000" />
<path d="M 106.179688 89.410156 Q 104.750000 90.230469 104.750000 91.882812 Q 104.750000 93.535156 106.179688 94.355469 Q 106.894531 94.771484 107.609375 94.771484 Q 108.324219 94.771484 109.039062 94.355469 Q 110.474609 93.529297 110.474609 91.882812 Q 110.474609 90.236328 109.039062 89.410156 Q 108.324219 88.994141 107.609375 88.994141 Q 106.894531 88.994141 106.179688 89.410156 Z M 105.822266 94.976562 Q 104.035156 93.945312 104.035156 91.882812 Q 104.035156 89.820312 105.822266 88.789062 Q 106.712891 88.273438 107.609375 88.273438 Q 108.500000 88.273438 109.396484 88.789062 Q 111.189453 89.820312 111.189453 91.882812 Q 111.189453 93.945312 109.396484 94.976562 Q 108.500000 95.492188 107.609375 95.492188 Q 106.712891 95.492188 105.822266 94.976562 Z " fill="rgb(0, 0, 0)" fill-opacity="1.000000" />
<path d="M 274.179688 89.410156 Q 272.750000 90.230469 272.750000 91.882812 Q 272.750000 93.535156 274.179688 94.355469 Q 274.894531 94.771484 275.609375 94.771484 Q 276.324219 94.771484 277.039062 94.355469 Q 278.474609 93.529297 278.474609 91.882812 Q 278.474609 90.236328 277.039062 89.410156 Q 276.324219 88.994141 275.609375 88.994141 Q 274.894531 88.994141 274.179688 89.410156 Z M 273.822266 94.976562 Q 272.035156 93.945312 272.035156 91.882812 Q 272.035156 89.820312 273.822266 88.789062 Q 274.712891 88.273438 275.609375 88.273438 Q 276.500000 88.273438 277.396484 88.789062 Q 279.189453 89.820312 279.189453 91.882812 Q 279.189453 93.945312 277.396484 94.976562 Q 276.500000 95.492188 275.609375 95.492188 Q 274.712891 95.492188 273.822266 94.976562 Z " fill="rgb(0, 0, 0)" fill-opacity="1.000000" />
<path d="M 386.179688 89.410156 Q 384.750000 90.230469 384.750000 91.882812 Q 384.750000 93.535156 386.179688 94.355469 Q 386.894531 94.771484 387.609375 94.771484 Q 388.324219 94.771484 389.039062 94.355469 Q 390.474609 93.529297 390.474609 91.882812 Q 390.474609 90.236328 389.039062 89.410156 Q 388.324219 88.994141 387.609375 88.994141 Q 386.894531 88.994141 386.179688 89.410156 Z M 385.822266 94.976562 Q 384.035156 93.945312 384.035156 91.882812 Q 384.035156 89.820312 385.822266 88.789062 Q 386.712891 88.273438 387.609375 88.273438 Q 388.500000 88.273438 389.396484 88.789062 Q 391.189453 89.820312 391.189453 91.882812 Q 391.189453 93.945312 389.396484 94.976562 Q 388.500000 95.492188 387.609375 95.492188 Q 386.712891 95.492188 385.822266 94.976562 Z " fill="rgb(0, 0, 0)" fill-opacity="1.000000" />
<path d="M 44.113281 77.701172 L 43.755859 77.701172 Q 42.812500 77.701172 42.334961 78.032227 Q 41.857422 78.363281 41.857422 79.019531 Q 41.857422 79.611328 42.214844 79.939453 Q 42.572266 80.267578 43.205078 80.267578 Q 44.095703 80.267578 44.605469 79.649414 Q 45.115234 79.031250 45.121094 77.941406 L 45.121094 77.701172 Z M 46.205078 77.255859 L 46.205078 81.000000 L 45.121094 81.000000 L 45.121094 80.027344 Q 44.775391 80.613281 44.250977 80.891602 Q 43.726562 81.169922 42.976562 81.169922 Q 41.974609 81.169922 41.376953 80.604492 Q 40.779297 80.039062 40.779297 79.089844 Q 40.779297 77.994141 41.514648 77.425781 Q 42.250000 76.857422 43.673828 76.857422 L 45.121094 76.857422 L 45.121094 76.687500 Q 45.115234 75.902344 44.722656 75.547852 Q 44.330078 75.193359 43.468750 75.193359 Q 42.917969 75.193359 42.355469 75.351562 Q 41.792969 75.509766 41.259766 75.814453 L 41.259766 74.736328 Q 41.857422 74.507812 42.405273 74.393555 Q 42.953125 74.279297 43.468750 74.279297 Q 44.283203 74.279297 44.860352 74.519531 Q 45.437500 74.759766 45.794922 75.240234 Q 46.017578 75.533203 46.111328 75.963867 Q 46.205078 76.394531 46.205078 77.255859 Z " fill="rgb(0, 0, 0)" fill-opacity="1.000000" />
<path d="M 54.767578 75.791016 Q 54.421875 75.521484 54.064453 75.398438 Q 53.707031 75.275391 53.279297 75.275391 Q 52.271484 75.275391 51.738281 75.908203 Q 51.205078 76.541016 51.205078 77.736328 L 51.205078 81.000000 L 50.121094 81.000000 L 50.121094 74.437500 L 51.205078 74.437500 L 51.205078 75.720703 Q 51.474609 75.023438 52.034180 74.651367 Q 52.593750 74.279297 53.361328 74.279297 Q 53.759766 74.279297 54.105469 74.378906 Q 54.451172 74.478516 54.767578 74.689453 Z " fill="rgb(0, 0, 0)" fill-opacity="1.000000" />
<path d="M 59.597656 72.574219 L 59.597656 74.437500 L 62.046875 74.437500 L 62.046875 75.275391 L 59.597656 75.275391 L 59.597656 78.837891 Q 59.597656 79.564453 59.873047 79.851562 Q 60.148438 80.138672 60.833984 80.138672 L 62.046875 80.138672 L 62.046875 81.000000 L 60.728516 81.000000 Q 59.515625 81.000000 59.017578 80.513672 Q 58.519531 80.027344 58.519531 78.837891 L 58.519531 75.275391 L 56.767578 75.275391 L 56.767578 74.437500 L 58.519531 74.437500 L 58.519531 72.574219 Z " fill="rgb(0, 0, 0)" fill-opacity="1.000000" />
<path d="M 64.597656 76.757812 L 70.808594 76.757812 L 70.808594 77.748047 L 64.597656 77.748047 Z " fill="rgb(0, 0, 0)" fill-opacity="1.000000" />
<path d="M 75.609375 75.193359 Q 74.789062 75.193359 74.367188 75.832031 Q 73.945312 76.470703 73.945312 77.724609 Q 73.945312 78.972656 74.367188 79.614258 Q 74.789062 80.255859 75.609375 80.255859 Q 76.435547 80.255859 76.857422 79.614258 Q 77.279297 78.972656 77.279297 77.724609 Q 77.279297 76.470703 76.857422 75.832031 Q 76.435547 75.193359 75.609375 75.193359 Z M 75.609375 74.279297 Q 76.974609 74.279297 77.698242 75.164062 Q 78.421875 76.048828 78.421875 77.724609 Q 78.421875 79.406250 77.701172 80.288086 Q 76.980469 81.169922 75.609375 81.169922 Q 74.244141 81.169922 73.523438 80.288086 Q 72.802734 79.406250 72.802734 77.724609 Q 72.802734 76.048828 73.523438 75.164062 Q 74.244141 74.279297 75.609375 74.279297 Z " fill="rgb(0, 0, 0)" fill-opacity="1.000000" />
<path d="M 86.228516 71.882812 L 86.228516 72.779297 L 85.003906 72.779297 Q 84.423828 72.779297 84.198242 73.016602 Q 83.972656 73.253906 83.972656 73.857422 L 83.972656 74.437500 L 86.228516 74.437500 L 86.228516 75.275391 L 83.972656 75.275391 L 83.972656 81.000000 L 82.894531 81.000000 L 82.894531 75.275391 L 81.142578 75.275391 L 81.142578 74.437500 L 82.894531 74.437500 L 82.894531 73.980469 Q 82.894531 72.902344 83.389648 72.392578 Q 83.884766 71.882812 84.933594 71.882812 Z " fill="rgb(0, 0, 0)" fill-opacity="1.000000" />
<path d="M 103.863281 84.621094 L 102.820312 84.621094 L 95.361328 69.328125 L 96.404297 69.328125 Z " fill="rgb(0, 0, 0)" fill-opacity="1.000000" />
<path d="M 107.140625 84.621094 L 107.140625 69.328125 L 108.078125 69.328125 L 108.078125 84.621094 Z " fill="rgb(0, 0, 0)" fill-opacity="1.000000" />
<path d="M 111.361328 84.621094 L 118.820312 69.328125 L 119.863281 69.328125 L 112.404297 84.621094 Z " fill="rgb(0, 0, 0)" fill-opacity="1.000000" />
<path d="M 276.078125 78.093750 L 276.078125 84.621094 L 275.140625 84.621094 L 275.140625 78.093750 L 271.882812 78.093750 L 271.882812 77.085938 L 275.140625 77.085938 L 275.140625 69.328125 L 276.078125 69.328125 L 276.078125 77.085938 L 279.341797 77.085938 L 279.341797 78.093750 Z " fill="rgb(0, 0, 0)" fill-opacity="1.000000" />
<path d="M 288.000000 74.437500 L 289.066406 74.437500 L 290.208984 79.740234 L 291.146484 76.353516 L 292.066406 76.353516 L 293.015625 79.740234 L 294.158203 74.437500 L 295.224609 74.437500 L 293.689453 81.000000 L 292.658203 81.000000 L 291.609375 77.402344 L 290.566406 81.000000 L 289.535156 81.000000 Z " fill="rgb(0, 0, 0)" fill-opacity="1.000000" />
<path d="M 302.767578 75.791016 Q 302.421875 75.521484 302.064453 75.398438 Q 301.707031 75.275391 301.279297 75.275391 Q 300.271484 75.275391 299.738281 75.908203 Q 299.205078 76.541016 299.205078 77.736328 L 299.205078 81.000000 L 298.121094 81.000000 L 298.121094 74.437500 L 299.205078 74.437500 L 299.205078 75.720703 Q 299.474609 75.023438 300.034180 74.651367 Q 300.593750 74.279297 301.361328 74.279297 Q 301.759766 74.279297 302.105469 74.378906 Q 302.451172 74.478516 302.767578 74.689453 Z " fill="rgb(0, 0, 0)" fill-opacity="1.000000" />
<path d="M 305.851562 74.460938 L 308.611328 74.460938 L 308.611328 80.162109 L 310.750000 80.162109 L 310.750000 81.000000 L 305.394531 81.000000 L 305.394531 80.162109 L 307.533203 80.162109 L 307.533203 75.298828 L 305.851562 75.298828 Z M 307.533203 71.912109 L 308.611328 71.912109 L 308.611328 73.271484 L 307.533203 73.271484 Z " fill="rgb(0, 0, 0)" fill-opacity="1.000000" />
<path d="M 315.597656 72.574219 L 315.597656 74.437500 L 318.046875 74.437500 L 318.046875 75.275391 L 315.597656 75.275391 L 315.597656 78.837891 Q 315.597656 79.564453 315.873047 79.851562 Q 316.148438 80.138672 316.833984 80.138672 L 318.046875 80.138672 L 318.046875 81.000000 L 316.728516 81.000000 Q 315.515625 81.000000 315.017578 80.513672 Q 314.519531 80.027344 314.519531 78.837891 L 314.519531 75.275391 L 312.767578 75.275391 L 312.767578 74.437500 L 314.519531 74.437500 L 314.519531 72.574219 Z " fill="rgb(0, 0, 0)" fill-opacity="1.000000" />
<path d="M 326.562500 77.179688 L 326.562500 77.707031 L 321.892578 77.707031 L 321.892578 77.742188 Q 321.845703 79.083984 322.405273 79.669922 Q 322.964844 80.255859 323.984375 80.255859 Q 324.500000 80.255859 325.062500 80.091797 Q 325.625000 79.927734 326.263672 79.593750 L 326.263672 80.666016 Q 325.648438 80.917969 325.077148 81.043945 Q 324.505859 81.169922 323.972656 81.169922 Q 322.443359 81.169922 321.582031 80.252930 Q 320.720703 79.335938 320.720703 77.724609 Q 320.720703 76.154297 321.564453 75.216797 Q 322.408203 74.279297 323.814453 74.279297 Q 325.068359 74.279297 325.791992 75.128906 Q 326.515625 75.978516 326.562500 77.179688 Z M 325.484375 76.863281 Q 325.414062 76.183594 324.989258 75.688477 Q 324.564453 75.193359 323.767578 75.193359 Q 322.988281 75.193359 322.484375 75.708984 Q 321.980469 76.224609 321.933594 76.869141 Z " fill="rgb(0, 0, 0)" fill-opacity="1.000000" />
<path d="M 388.078125 78.093750 L 388.078125 84.621094 L 387.140625 84.621094 L 387.140625 78.093750 L 383.882812 78.093750 L 383.882812 77.085938 L 387.140625 77.085938 L 387.140625 69.328125 L 388.078125 69.328125 L 388.078125 77.085938 L 391.341797 77.085938 L 391.341797 78.093750 Z " fill="rgb(0, 0, 0)" fill-opacity="1.000000" />
<path d="M 406.767578 75.791016 Q 406.421875 75.521484 406.064453 75.398438 Q 405.707031 75.275391 405.279297 75.275391 Q 404.271484 75.275391 403.738281 75.908203 Q 403.205078 76.541016 403.205078 77.736328 L 403.205078 81.000000 L 402.121094 81.000000 L 402.121094 74.437500 L 403.205078 74.437500 L 403.205078 75.720703 Q 403.474609 75.023438 404.034180 74.651367 Q 404.593750 74.279297 405.361328 74.279297 Q 405.759766 74.279297 406.105469 74.378906 Q 406.451172 74.478516 406.767578 74.689453 Z " fill="rgb(0, 0, 0)" fill-opacity="1.000000" />
<path d="M 414.562500 77.179688 L 414.562500 77.707031 L 409.892578 77.707031 L 409.892578 77.742188 Q 409.845703 79.083984 410.405273 79.669922 Q 410.964844 80.255859 411.984375 80.255859 Q 412.500000 80.255859 413.062500 80.091797 Q 413.625000 79.927734 414.263672 79.593750 L 414.263672 80.666016 Q 413.648438 80.917969 413.077148 81.043945 Q 412.505859 81.169922 411.972656 81.169922 Q 410.443359 81.169922 409.582031 80.252930 Q 408.720703 79.335938 408.720703 77.724609 Q 408.720703 76.154297 409.564453 75.216797 Q 410.408203 74.279297 411.814453 74.279297 Q 413.068359 74.279297 413.791992 75.128906 Q 414.515625 75.978516 414.562500 77.179688 Z M 413.484375 76.863281 Q 413.414062 76.183594 412.989258 75.688477 Q 412.564453 75.193359 411.767578 75.193359 Q 410.988281 75.193359 410.484375 75.708984 Q 409.980469 76.224609 409.933594 76.869141 Z " fill="rgb(0, 0, 0)" fill-opacity="1.000000" />
<path d="M 420.113281 77.701172 L 419.755859 77.701172 Q 418.812500 77.701172 418.334961 78.032227 Q 417.857422 78.363281 417.857422 79.019531 Q 417.857422 79.611328 418.214844 79.939453 Q 418.572266 80.267578 419.205078 80.267578 Q 420.095703 80.267578 420.605469 79.649414 Q 421.115234 79.031250 421.121094 77.941406 L 421.121094 77.701172 Z M 422.205078 77.255859 L 422.205078 81.000000 L 421.121094 81.000000 L 421.121094 80.027344 Q 420.775391 80.613281 420.250977 80.891602 Q 419.726562 81.169922 418.976562 81.169922 Q 417.974609 81.169922 417.376953 80.604492 Q 416.779297 80.039062 416.779297 79.089844 Q 416.779297 77.994141 417.514648 77.425781 Q 418.250000 76.857422 419.673828 76.857422 L 421.121094 76.857422 L 421.121094 76.687500 Q 421.115234 75.902344 420.722656 75.547852 Q 420.330078 75.193359 419.468750 75.193359 Q 418.917969 75.193359 418.355469 75.351562 Q 417.792969 75.509766 417.259766 75.814453 L 417.259766 74.736328 Q 417.857422 74.507812 418.405273 74.393555 Q 418.953125 74.279297 419.468750 74.279297 Q 420.283203 74.279297 420.860352 74.519531 Q 421.437500 74.759766 421.794922 75.240234 Q 422.017578 75.533203 422.111328 75.963867 Q 422.205078 76.394531 422.205078 77.255859 Z " fill="rgb(0, 0, 0)" fill-opacity="1.000000" />
<path d="M 429.027344 75.275391 L 429.027344 71.882812 L 430.105469 71.882812 L 430.105469 81.000000 L 429.027344 81.000000 L 429.027344 80.173828 Q 428.757812 80.660156 428.309570 80.915039 Q 427.861328 81.169922 427.275391 81.169922 Q 426.085938 81.169922 425.403320 80.247070 Q 424.720703 79.324219 424.720703 77.701172 Q 424.720703 76.101562 425.406250 75.190430 Q 426.091797 74.279297 427.275391 74.279297 Q 427.867188 74.279297 428.318359 74.534180 Q 428.769531 74.789062 429.027344 75.275391 Z M 425.857422 77.724609 Q 425.857422 78.978516 426.255859 79.617188 Q 426.654297 80.255859 427.433594 80.255859 Q 428.212891 80.255859 428.620117 79.611328 Q 429.027344 78.966797 429.027344 77.724609 Q 429.027344 76.476562 428.620117 75.834961 Q 428.212891 75.193359 427.433594 75.193359 Q 426.654297 75.193359 426.255859 75.832031 Q 425.857422 76.470703 425.857422 77.724609 Z " fill="rgb(0, 0, 0)" fill-opacity="1.000000" />
<path d="M 43.140625 64.093750 L 43.140625 55.328125 L 44.078125 55.328125 L 44.078125 63.085938 L 47.341797 63.085938 L 47.341797 64.093750 Z " fill="rgb(0, 0, 0)" fill-opacity="1.000000" />
<path d="M 47.882812 64.093750 L 47.882812 63.085938 L 55.341797 63.085938 L 55.341797 64.093750 Z " fill="rgb(0, 0, 0)" fill-opacity="1.000000" />
<path d="M 55.882812 64.093750 L 55.882812 63.085938 L 63.341797 63.085938 L 63.341797 64.093750 Z " fill="rgb(0, 0, 0)" fill-opacity="1.000000" />
<path d="M 63.882812 64.093750 L 63.882812 63.085938 L 71.341797 63.085938 L 71.341797 64.093750 Z " fill="rgb(0, 0, 0)" fill-opacity="1.000000" />
<path d="M 71.882812 64.093750 L 71.882812 63.085938 L 79.341797 63.085938 L 79.341797 64.093750 Z " fill="rgb(0, 0, 0)" fill-opacity="1.000000" />
<path d="M 79.882812 64.093750 L 79.882812 63.085938 L 87.341797 63.085938 L 87.341797 64.093750 Z " fill="rgb(0, 0, 0)" fill-opacity="1.000000" />
<path d="M 87.882812 64.093750 L 87.882812 63.085938 L 95.341797 63.085938 L 95.341797 64.093750 Z " fill="rgb(0, 0, 0)" fill-opacity="1.000000" />
<path d="M 95.882812 64.093750 L 95.882812 63.085938 L 103.341797 63.085938 L 103.341797 64.093750 Z " fill="rgb(0, 0, 0)" fill-opacity="1.000000" />
<path d="M 103.882812 64.093750 L 103.882812 63.085938 L 111.341797 63.085938 L 111.341797 64.093750 Z " fill="rgb(0, 0, 0)" fill-opacity="1.000000" />
<path d="M 111.882812 64.093750 L 111.882812 63.085938 L 119.341797 63.085938 L 119.341797 64.093750 Z " fill="rgb(0, 0, 0)" fill-opacity="1.000000" />
<path d="M 119.882812 64.093750 L 119.882812 63.085938 L 127.341797 63.085938 L 127.341797 64.093750 Z " fill="rgb(0, 0, 0)" fill-opacity="1.000000" />
<path d="M 127.882812 64.093750 L 127.882812 63.085938 L 135.341797 63.085938 L 135.341797 64.093750 Z " fill="rgb(0, 0, 0)" fill-opacity="1.000000" />
<path d="M 135.882812 64.093750 L 135.882812 63.085938 L 143.341797 63.085938 L 143.341797 64.093750 Z " fill="rgb(0, 0, 0)" fill-opacity="1.000000" />
<path d="M 143.882812 64.093750 L 143.882812 63.085938 L 151.341797 63.085938 L 151.341797 64.093750 Z " fill="rgb(0, 0, 0)" fill-opacity="1.000000" />
<path d="M 151.882812 64.093750 L 151.882812 63.085938 L 159.341797 63.085938 L 159.341797 64.093750 Z " fill="rgb(0, 0, 0)" fill-opacity="1.000000" />
<path d="M 159.882812 64.093750 L 159.882812 63.085938 L 167.341797 63.085938 L 167.341797 64.093750 Z " fill="rgb(0, 0, 0)" fill-opacity="1.000000" />
<path d="M 167.882812 64.093750 L 167.882812 63.085938 L 171.140625 63.085938 L 171.140625 55.328125 L 172.078125 55.328125 L 172.078125 64.093750 Z " fill="rgb(0, 0, 0)" fill-opacity="1.000000" />
<path d="M 267.140625 64.093750 L 267.140625 55.328125 L 268.078125 55.328125 L 268.078125 63.085938 L 271.341797 63.085938 L 271.341797 64.093750 Z " fill="rgb(0, 0, 0)" fill-opacity="1.000000" />
<path d="M 271.882812 64.093750 L 271.882812 63.085938 L 279.341797 63.085938 L 279.341797 64.093750 Z " fill="rgb(0, 0, 0)" fill-opacity="1.000000" />
<path d="M 279.882812 64.093750 L 279.882812 63.085938 L 287.341797 63.085938 L 287.341797 64.093750 Z " fill="rgb(0, 0, 0)" fill-opacity="1.000000" />
<path d="M 287.882812 64.093750 L 287.882812 63.085938 L 295.341797 63.085938 L 295.341797 64.093750 Z " fill="rgb(0, 0, 0)" fill-opacity="1.000000" />
<path d="M 295.882812 64.093750 L 295.882812 63.085938 L 303.341797 63.085938 L 303.341797 64.093750 Z " fill="rgb(0, 0, 0)" fill-opacity="1.000000" />
<path d="M 303.882812 64.093750 L 303.882812 63.085938 L 311.341797 63.085938 L 311.341797 64.093750 Z " fill="rgb(0, 0, 0)" fill-opacity="1.000000" />
<path d="M 311.882812 64.093750 L 311.882812 63.085938 L 319.341797 63.085938 L 319.341797 64.093750 Z " fill="rgb(0, 0, 0)" fill-opacity="1.000000" />
<path d="M 319.882812 64.093750 L 319.882812 63.085938 L 327.341797 63.085938 L 327.341797 64.093750 Z " fill="rgb(0, 0, 0)" fill-opacity="1.000000" />
<path d="M 327.882812 64.093750 L 327.882812 63.085938 L 335.341797 63.085938 L 335.341797 64.093750 Z " fill="rgb(0, 0, 0)" fill-opacity="1.000000" />
<path d="M 335.882812 64.093750 L 335.882812 63.085938 L 343.341797 63.085938 L 343.341797 64.093750 Z " fill="rgb(0, 0, 0)" fill-opacity="1.000000" />
<path d="M 343.882812 64.093750 L 343.882812 63.085938 L 351.341797 63.085938 L 351.341797 64.093750 Z " fill="rgb(0, 0, 0)" fill-opacity="1.000000" />
<path d="M 351.882812 64.093750 L 351.882812 63.085938 L 359.341797 63.085938 L 359.341797 64.093750 Z " fill="rgb(0, 0, 0)" fill-opacity="1.000000" />
<path d="M 359.882812 64.093750 L 359.882812 63.085938 L 367.341797 63.085938 L 367.341797 64.093750 Z " fill="rgb(0, 0, 0)" fill-opacity="1.000000" />
<path d="M 367.882812 64.093750 L 367.882812 63.085938 L 375.341797 63.085938 L 375.341797 64.093750 Z " fill="rgb(0, 0, 0)" fill-opacity="1.000000" />
<path d="M 375.882812 64.093750 L 375.882812 63.085938 L 383.341797 63.085938 L 383.341797 64.093750 Z " fill="rgb(0, 0, 0)" fill-opacity="1.000000" />
<path d="M 383.882812 64.093750 L 383.882812 63.085938 L 391.341797 63.085938 L 391.341797 64.093750 Z " fill="rgb(0, 0, 0)" fill-opacity="1.000000" />
<path d="M 391.882812 64.093750 L 391.882812 63.085938 L 395.140625 63.085938 L 395.140625 55.328125 L 396.078125 55.328125 L 396.078125 64.093750 Z " fill="rgb(0, 0, 0)" fill-opacity="1.000000" />
<path d="M 43.140625 14.621094 L 43.140625 7.085938 L 47.341797 7.085938 L 47.341797 8.093750 L 44.078125 8.093750 L 44.078125 14.621094 Z " fill="rgb(0, 0, 0)" fill-opacity="1.000000" />
<path d="M 43.140625 28.621094 L 43.140625 13.328125 L 44.078125 13.328125 L 44.078125 28.621094 Z " fill="rgb(0, 0, 0)" fill-opacity="1.000000" />
<path d="M 43.140625 42.621094 L 43.140625 27.328125 L 44.078125 27.328125 L 44.078125 42.621094 Z " fill="rgb(0, 0, 0)" fill-opacity="1.000000" />
<path d="M 43.140625 56.621094 L 43.140625 41.328125 L 44.078125 41.328125 L 44.078125 56.621094 Z " fill="rgb(0, 0, 0)" fill-opacity="1.000000" />
<path d="M 53.929688 30.550781 L 53.929688 31.751953 Q 53.390625 31.406250 52.848633 31.230469 Q 52.306641 31.054688 51.755859 31.054688 Q 50.917969 31.054688 50.431641 31.444336 Q 49.945312 31.833984 49.945312 32.496094 Q 49.945312 33.076172 50.264648 33.380859 Q 50.583984 33.685547 51.457031 33.890625 L 52.078125 34.031250 Q 53.308594 34.318359 53.871094 34.933594 Q 54.433594 35.548828 54.433594 36.609375 Q 54.433594 37.857422 53.660156 38.513672 Q 52.886719 39.169922 51.410156 39.169922 Q 50.794922 39.169922 50.173828 39.038086 Q 49.552734 38.906250 48.925781 38.642578 L 48.925781 37.382812 Q 49.599609 37.810547 50.200195 38.009766 Q 50.800781 38.208984 51.410156 38.208984 Q 52.306641 38.208984 52.804688 37.807617 Q 53.302734 37.406250 53.302734 36.685547 Q 53.302734 36.029297 52.959961 35.683594 Q 52.617188 35.337891 51.767578 35.150391 L 51.134766 35.003906 Q 49.916016 34.728516 49.365234 34.171875 Q 48.814453 33.615234 48.814453 32.677734 Q 48.814453 31.505859 49.602539 30.799805 Q 50.390625 30.093750 51.697266 30.093750 Q 52.201172 30.093750 52.757812 30.208008 Q 53.314453 30.322266 53.929688 30.550781 Z " fill="rgb(0, 0, 0)" fill-opacity="1.000000" />
<path d="M 171.140625 56.621094 L 171.140625 41.328125 L 172.078125 41.328125 L 172.078125 56.621094 Z " fill="rgb(0, 0, 0)" fill-opacity="1.000000" />
<path d="M 267.140625 56.621094 L 267.140625 41.328125 L 268.078125 41.328125 L 268.078125 56.621094 Z " fill="rgb(0, 0, 0)" fill-opacity="1.000000" />
<path d="M 395.140625 56.621094 L 395.140625 41.328125 L 396.078125 41.328125 L 396.078125 56.621094 Z " fill="rgb(0, 0, 0)" fill-opacity="1.000000" />
<path d="M 62.562500 35.179688 L 62.562500 35.707031 L 57.892578 35.707031 L 57.892578 35.742188 Q 57.845703 37.083984 58.405273 37.669922 Q 58.964844 38.255859 59.984375 38.255859 Q 60.500000 38.255859 61.062500 38.091797 Q 61.625000 37.927734 62.263672 37.593750 L 62.263672 38.666016 Q 61.648438 38.917969 61.077148 39.043945 Q 60.505859 39.169922 59.972656 39.169922 Q 58.443359 39.169922 57.582031 38.252930 Q 56.720703 37.335938 56.720703 35.724609 Q 56.720703 34.154297 57.564453 33.216797 Q 58.408203 32.279297 59.814453 32.279297 Q 61.068359 32.279297 61.791992 33.128906 Q 62.515625 33.978516 62.562500 35.179688 Z M 61.484375 34.863281 Q 61.414062 34.183594 60.989258 33.688477 Q 60.564453 33.193359 59.767578 33.193359 Q 58.988281 33.193359 58.484375 33.708984 Q 57.980469 34.224609 57.933594 34.869141 Z " fill="rgb(0, 0, 0)" fill-opacity="1.000000" />
<path d="M 67.960938 33.105469 Q 68.160156 32.683594 68.467773 32.481445 Q 68.775391 32.279297 69.208984 32.279297 Q 70.000000 32.279297 70.325195 32.891602 Q 70.650391 33.503906 70.650391 35.197266 L 70.650391 39.000000 L 69.666016 39.000000 L 69.666016 35.244141 Q 69.666016 33.855469 69.510742 33.518555 Q 69.355469 33.181641 68.945312 33.181641 Q 68.476562 33.181641 68.303711 33.541992 Q 68.130859 33.902344 68.130859 35.244141 L 68.130859 39.000000 L 67.146484 39.000000 L 67.146484 35.244141 Q 67.146484 33.837891 66.979492 33.509766 Q 66.812500 33.181641 66.378906 33.181641 Q 65.951172 33.181641 65.784180 33.541992 Q 65.617188 33.902344 65.617188 35.244141 L 65.617188 39.000000 L 64.638672 39.000000 L 64.638672 32.437500 L 65.617188 32.437500 L 65.617188 33.000000 Q 65.810547 32.648438 66.100586 32.463867 Q 66.390625 32.279297 66.759766 32.279297 Q 67.205078 32.279297 67.500977 32.484375 Q 67.796875 32.689453 67.960938 33.105469 Z " fill="rgb(0, 0, 0)" fill-opacity="1.000000" />
<path d="M 76.113281 35.701172 L 75.755859 35.701172 Q 74.812500 35.701172 74.334961 36.032227 Q 73.857422 36.363281 73.857422 37.019531 Q 73.857422 37.611328 74.214844 37.939453 Q 74.572266 38.267578 75.205078 38.267578 Q 76.095703 38.267578 76.605469 37.649414 Q 77.115234 37.031250 77.121094 35.941406 L 77.121094 35.701172 Z M 78.205078 35.255859 L 78.205078 39.000000 L 77.121094 39.000000 L 77.121094 38.027344 Q 76.775391 38.613281 76.250977 38.891602 Q 75.726562 39.169922 74.976562 39.169922 Q 73.974609 39.169922 73.376953 38.604492 Q 72.779297 38.039062 72.779297 37.089844 Q 72.779297 35.994141 73.514648 35.425781 Q 74.250000 34.857422 75.673828 34.857422 L 77.121094 34.857422 L 77.121094 34.687500 Q 77.115234 33.902344 76.722656 33.547852 Q 76.330078 33.193359 75.468750 33.193359 Q 74.917969 33.193359 74.355469 33.351562 Q 73.792969 33.509766 73.259766 33.814453 L 73.259766 32.736328 Q 73.857422 32.507812 74.405273 32.393555 Q 74.953125 32.279297 75.468750 32.279297 Q 76.283203 32.279297 76.860352 32.519531 Q 77.437500 32.759766 77.794922 33.240234 Q 78.017578 33.533203 78.111328 33.963867 Q 78.205078 34.394531 78.205078 35.255859 Z " fill="rgb(0, 0, 0)" fill-opacity="1.000000" />
<path d="M 86.158203 34.933594 L 86.158203 39.000000 L 85.074219 39.000000 L 85.074219 34.933594 Q 85.074219 34.048828 84.763672 33.632812 Q 84.453125 33.216797 83.791016 33.216797 Q 83.035156 33.216797 82.627930 33.752930 Q 82.220703 34.289062 82.220703 35.291016 L 82.220703 39.000000 L 81.142578 39.000000 L 81.142578 32.437500 L 82.220703 32.437500 L 82.220703 33.421875 Q 82.507812 32.859375 83.000000 32.569336 Q 83.492188 32.279297 84.166016 32.279297 Q 85.167969 32.279297 85.663086 32.938477 Q 86.158203 33.597656 86.158203 34.933594 Z " fill="rgb(0, 0, 0)" fill-opacity="1.000000" />
<path d="M 91.597656 30.574219 L 91.597656 32.437500 L 94.046875 32.437500 L 94.046875 33.275391 L 91.597656 33.275391 L 91.597656 36.837891 Q 91.597656 37.564453 91.873047 37.851562 Q 92.148438 38.138672 92.833984 38.138672 L 94.046875 38.138672 L 94.046875 39.000000 L 92.728516 39.000000 Q 91.515625 39.000000 91.017578 38.513672 Q 90.519531 38.027344 90.519531 36.837891 L 90.519531 33.275391 L 88.767578 33.275391 L 88.767578 32.437500 L 90.519531 32.437500 L 90.519531 30.574219 Z " fill="rgb(0, 0, 0)" fill-opacity="1.000000" />
<path d="M 97.851562 32.460938 L 100.611328 32.460938 L 100.611328 38.162109 L 102.750000 38.162109 L 102.750000 39.000000 L 97.394531 39.000000 L 97.394531 38.162109 L 99.533203 38.162109 L 99.533203 33.298828 L 97.851562 33.298828 Z M 99.533203 29.912109 L 100.611328 29.912109 L 100.611328 31.271484 L 99.533203 31.271484 Z " fill="rgb(0, 0, 0)" fill-opacity="1.000000" />
<path d="M 110.216797 38.666016 Q 109.783203 38.917969 109.323242 39.043945 Q 108.863281 39.169922 108.382812 39.169922 Q 106.859375 39.169922 106.000977 38.255859 Q 105.142578 37.341797 105.142578 35.724609 Q 105.142578 34.107422 106.000977 33.193359 Q 106.859375 32.279297 108.382812 32.279297 Q 108.857422 32.279297 109.308594 32.402344 Q 109.759766 32.525391 110.216797 32.783203 L 110.216797 33.914062 Q 109.789062 33.533203 109.358398 33.363281 Q 108.927734 33.193359 108.382812 33.193359 Q 107.369141 33.193359 106.824219 33.849609 Q 106.279297 34.505859 106.279297 35.724609 Q 106.279297 36.937500 106.827148 37.596680 Q 107.375000 38.255859 108.382812 38.255859 Q 108.945312 38.255859 109.390625 38.083008 Q 109.835938 37.910156 110.216797 37.546875 Z " fill="rgb(0, 0, 0)" fill-opacity="1.000000" />
<path d="M 120.210938 30.281250 L 121.792969 30.281250 L 123.304688 34.722656 L 124.828125 30.281250 L 126.416016 30.281250 L 126.416016 39.000000 L 125.320312 39.000000 L 125.320312 31.294922 L 123.761719 35.888672 L 122.865234 35.888672 L 121.300781 31.294922 L 121.300781 39.000000 L 120.210938 39.000000 Z " fill="rgb(0, 0, 0)" fill-opacity="1.000000" />
<path d="M 131.609375 33.193359 Q 130.789062 33.193359 130.367188 33.832031 Q 129.945312 34.470703 129.945312 35.724609 Q 129.945312 36.972656 130.367188 37.614258 Q 130.789062 38.255859 131.609375 38.255859 Q 132.435547 38.255859 132.857422 37.614258 Q 133.279297 36.972656 133.279297 35.724609 Q 133.279297 34.470703 132.857422 33.832031 Q 132.435547 33.193359 131.609375 33.193359 Z M 131.609375 32.279297 Q 132.974609 32.279297 133.698242 33.164062 Q 134.421875 34.048828 134.421875 35.724609 Q 134.421875 37.406250 133.701172 38.288086 Q 132.980469 39.169922 131.609375 39.169922 Q 130.244141 39.169922 129.523438 38.288086 Q 128.802734 37.406250 128.802734 35.724609 Q 128.802734 34.048828 129.523438 33.164062 Q 130.244141 32.279297 131.609375 32.279297 Z " fill="rgb(0, 0, 0)" fill-opacity="1.000000" />
<path d="M 141.027344 33.275391 L 141.027344 29.882812 L 142.105469 29.882812 L 142.105469 39.000000 L 141.027344 39.000000 L 141.027344 38.173828 Q 140.757812 38.660156 140.309570 38.915039 Q 139.861328 39.169922 139.275391 39.169922 Q 138.085938 39.169922 137.403320 38.247070 Q 136.720703 37.324219 136.720703 35.701172 Q 136.720703 34.101562 137.406250 33.190430 Q 138.091797 32.279297 139.275391 32.279297 Q 139.867188 32.279297 140.318359 32.534180 Q 140.769531 32.789062 141.027344 33.275391 Z M 137.857422 35.724609 Q 137.857422 36.978516 138.255859 37.617188 Q 138.654297 38.255859 139.433594 38.255859 Q 140.212891 38.255859 140.620117 37.611328 Q 141.027344 36.966797 141.027344 35.724609 Q 141.027344 34.476562 140.620117 33.834961 Q 140.212891 33.193359 139.433594 33.193359 Q 138.654297 33.193359 138.255859 33.832031 Q 137.857422 34.470703 137.857422 35.724609 Z " fill="rgb(0, 0, 0)" fill-opacity="1.000000" />
<path d="M 150.562500 35.179688 L 150.562500 35.707031 L 145.892578 35.707031 L 145.892578 35.742188 Q 145.845703 37.083984 146.405273 37.669922 Q 146.964844 38.255859 147.984375 38.255859 Q 148.500000 38.255859 149.062500 38.091797 Q 149.625000 37.927734 150.263672 37.593750 L 150.263672 38.666016 Q 149.648438 38.917969 149.077148 39.043945 Q 148.505859 39.169922 147.972656 39.169922 Q 146.443359 39.169922 145.582031 38.252930 Q 144.720703 37.335938 144.720703 35.724609 Q 144.720703 34.154297 145.564453 33.216797 Q 146.408203 32.279297 147.814453 32.279297 Q 149.068359 32.279297 149.791992 33.128906 Q 150.515625 33.978516 150.562500 35.179688 Z M 149.484375 34.863281 Q 149.414062 34.183594 148.989258 33.688477 Q 148.564453 33.193359 147.767578 33.193359 Q 146.988281 33.193359 146.484375 33.708984 Q 145.980469 34.224609 145.933594 34.869141 Z " fill="rgb(0, 0, 0)" fill-opacity="1.000000" />
<path d="M 156.212891 36.626953 Q 156.212891 37.353516 156.479492 37.722656 Q 156.746094 38.091797 157.267578 38.091797 L 158.527344 38.091797 L 158.527344 39.000000 L 157.162109 39.000000 Q 156.195312 39.000000 155.665039 38.381836 Q 155.134766 37.763672 155.134766 36.626953 L 155.134766 30.691406 L 153.406250 30.691406 L 153.406250 29.847656 L 156.212891 29.847656 Z " fill="rgb(0, 0, 0)" fill-opacity="1.000000" />
<path d="M 171.140625 42.621094 L 171.140625 27.328125 L 172.078125 27.328125 L 172.078125 42.621094 Z " fill="rgb(0, 0, 0)" fill-opacity="1.000000" />
<path d="M 175.882812 36.093750 L 175.882812 35.085938 L 183.341797 35.085938 L 183.341797 36.093750 Z " fill="rgb(0, 0, 0)" fill-opacity="1.000000" />
<path d="M 191.882812 36.093750 L 191.882812 35.085938 L 199.341797 35.085938 L 199.341797 36.093750 Z " fill="rgb(0, 0, 0)" fill-opacity="1.000000" />
<path d="M 207.882812 36.093750 L 207.882812 35.085938 L 215.341797 35.085938 L 215.341797 36.093750 Z " fill="rgb(0, 0, 0)" fill-opacity="1.000000" />
<path d="M 223.882812 36.093750 L 223.882812 35.085938 L 231.341797 35.085938 L 231.341797 36.093750 Z " fill="rgb(0, 0, 0)" fill-opacity="1.000000" />
<path d="M 239.882812 36.093750 L 239.882812 35.085938 L 247.341797 35.085938 L 247.341797 36.093750 Z " fill="rgb(0, 0, 0)" fill-opacity="1.000000" />
<path d="M 255.882812 36.093750 L 255.882812 35.085938 L 263.341797 35.085938 L 263.341797 36.093750 Z " fill="rgb(0, 0, 0)" fill-opacity="1.000000" />
<path d="M 267.140625 42.621094 L 267.140625 27.328125 L 268.078125 27.328125 L 268.078125 42.621094 Z " fill="rgb(0, 0, 0)" fill-opacity="1.000000" />
<path d="M 304.210938 30.281250 L 305.792969 30.281250 L 307.304688 34.722656 L 308.828125 30.281250 L 310.416016 30.281250 L 310.416016 39.000000 L 309.320312 39.000000 L 309.320312 31.294922 L 307.761719 35.888672 L 306.865234 35.888672 L 305.300781 31.294922 L 305.300781 39.000000 L 304.210938 39.000000 Z " fill="rgb(0, 0, 0)" fill-opacity="1.000000" />
<path d="M 316.113281 35.701172 L 315.755859 35.701172 Q 314.812500 35.701172 314.334961 36.032227 Q 313.857422 36.363281 313.857422 37.019531 Q 313.857422 37.611328 314.214844 37.939453 Q 314.572266 38.267578 315.205078 38.267578 Q 316.095703 38.267578 316.605469 37.649414 Q 317.115234 37.031250 317.121094 35.941406 L 317.121094 35.701172 Z M 318.205078 35.255859 L 318.205078 39.000000 L 317.121094 39.000000 L 317.121094 38.027344 Q 316.775391 38.613281 316.250977 38.891602 Q 315.726562 39.169922 314.976562 39.169922 Q 313.974609 39.169922 313.376953 38.604492 Q 312.779297 38.039062 312.779297 37.089844 Q 312.779297 35.994141 313.514648 35.425781 Q 314.250000 34.857422 315.673828 34.857422 L 317.121094 34.857422 L 317.121094 34.687500 Q 317.115234 33.902344 316.722656 33.547852 Q 316.330078 33.193359 315.468750 33.193359 Q 314.917969 33.193359 314.355469 33.351562 Q 313.792969 33.509766 313.259766 33.814453 L 313.259766 32.736328 Q 313.857422 32.507812 314.405273 32.393555 Q 314.953125 32.279297 315.468750 32.279297 Q 316.283203 32.279297 316.860352 32.519531 Q 317.437500 32.759766 317.794922 33.240234 Q 318.017578 33.533203 318.111328 33.963867 Q 318.205078 34.394531 318.205078 35.255859 Z " fill="rgb(0, 0, 0)" fill-opacity="1.000000" />
<path d="M 322.197266 38.173828 L 322.197266 41.496094 L 321.113281 41.496094 L 321.113281 32.437500 L 322.197266 32.437500 L 322.197266 33.275391 Q 322.466797 32.789062 322.915039 32.534180 Q 323.363281 32.279297 323.949219 32.279297 Q 325.138672 32.279297 325.815430 33.199219 Q 326.492188 34.119141 326.492188 35.748047 Q 326.492188 37.347656 325.812500 38.258789 Q 325.132812 39.169922 323.949219 39.169922 Q 323.351562 39.169922 322.903320 38.915039 Q 322.455078 38.660156 322.197266 38.173828 Z M 325.361328 35.724609 Q 325.361328 34.470703 324.965820 33.832031 Q 324.570312 33.193359 323.791016 33.193359 Q 323.005859 33.193359 322.601562 33.834961 Q 322.197266 34.476562 322.197266 35.724609 Q 322.197266 36.966797 322.601562 37.611328 Q 323.005859 38.255859 323.791016 38.255859 Q 324.570312 38.255859 324.965820 37.617188 Q 325.361328 36.978516 325.361328 35.724609 Z " fill="rgb(0, 0, 0)" fill-opacity="1.000000" />
<path d="M 330.197266 38.173828 L 330.197266 41.496094 L 329.113281 41.496094 L 329.113281 32.437500 L 330.197266 32.437500 L 330.197266 33.275391 Q 330.466797 32.789062 330.915039 32.534180 Q 331.363281 32.279297 331.949219 32.279297 Q 333.138672 32.279297 333.815430 33.199219 Q 334.492188 34.119141 334.492188 35.748047 Q 334.492188 37.347656 333.812500 38.258789 Q 333.132812 39.169922 331.949219 39.169922 Q 331.351562 39.169922 330.903320 38.915039 Q 330.455078 38.660156 330.197266 38.173828 Z M 333.361328 35.724609 Q 333.361328 34.470703 332.965820 33.832031 Q 332.570312 33.193359 331.791016 33.193359 Q 331.005859 33.193359 330.601562 33.834961 Q 330.197266 34.476562 330.197266 35.724609 Q 330.197266 36.966797 330.601562 37.611328 Q 331.005859 38.255859 331.791016 38.255859 Q 332.570312 38.255859 332.965820 37.617188 Q 333.361328 36.978516 333.361328 35.724609 Z " fill="rgb(0, 0, 0)" fill-opacity="1.000000" />
<path d="M 337.851562 32.460938 L 340.611328 32.460938 L 340.611328 38.162109 L 342.750000 38.162109 L 342.750000 39.000000 L 337.394531 39.000000 L 337.394531 38.162109 L 339.533203 38.162109 L 339.533203 33.298828 L 337.851562 33.298828 Z M 339.533203 29.912109 L 340.611328 29.912109 L 340.611328 31.271484 L 339.533203 31.271484 Z " fill="rgb(0, 0, 0)" fill-opacity="1.000000" />
<path d="M 350.158203 34.933594 L 350.158203 39.000000 L 349.074219 39.000000 L 349.074219 34.933594 Q 349.074219 34.048828 348.763672 33.632812 Q 348.453125 33.216797 347.791016 33.216797 Q 347.035156 33.216797 346.627930 33.752930 Q 346.220703 34.289062 346.220703 35.291016 L 346.220703 39.000000 L 345.142578 39.000000 L 345.142578 32.437500 L 346.220703 32.437500 L 346.220703 33.421875 Q 346.507812 32.859375 347.000000 32.569336 Q 347.492188 32.279297 348.166016 32.279297 Q 349.167969 32.279297 349.663086 32.938477 Q 350.158203 33.597656 350.158203 34.933594 Z " fill="rgb(0, 0, 0)" fill-opacity="1.000000" />
<path d="M 357.027344 35.666016 Q 357.027344 34.453125 356.631836 33.823242 Q 356.236328 33.193359 355.480469 33.193359 Q 354.689453 33.193359 354.273438 33.823242 Q 353.857422 34.453125 353.857422 35.666016 Q 353.857422 36.878906 354.276367 37.514648 Q 354.695312 38.150391 355.492188 38.150391 Q 356.236328 38.150391 356.631836 37.511719 Q 357.027344 36.873047 357.027344 35.666016 Z M 358.105469 38.578125 Q 358.105469 40.054688 357.408203 40.816406 Q 356.710938 41.578125 355.357422 41.578125 Q 354.912109 41.578125 354.425781 41.496094 Q 353.939453 41.414062 353.453125 41.255859 L 353.453125 40.189453 Q 354.027344 40.458984 354.496094 40.587891 Q 354.964844 40.716797 355.357422 40.716797 Q 356.230469 40.716797 356.628906 40.242188 Q 357.027344 39.767578 357.027344 38.736328 L 357.027344 38.689453 L 357.027344 37.957031 Q 356.769531 38.507812 356.324219 38.777344 Q 355.878906 39.046875 355.240234 39.046875 Q 354.091797 39.046875 353.406250 38.126953 Q 352.720703 37.207031 352.720703 35.666016 Q 352.720703 34.119141 353.406250 33.199219 Q 354.091797 32.279297 355.240234 32.279297 Q 355.873047 32.279297 356.312500 32.531250 Q 356.751953 32.783203 357.027344 33.310547 L 357.027344 32.460938 L 358.105469 32.460938 Z " fill="rgb(0, 0, 0)" fill-opacity="1.000000" />
<path d="M 395.140625 42.621094 L 395.140625 27.328125 L 396.078125 27.328125 L 396.078125 42.621094 Z " fill="rgb(0, 0, 0)" fill-opacity="1.000000" />
<path d="M 171.140625 28.621094 L 171.140625 13.328125 L 172.078125 13.328125 L 172.078125 28.621094 Z " fill="rgb(0, 0, 0)" fill-opacity="1.000000" />
<path d="M 267.140625 28.621094 L 267.140625 13.328125 L 268.078125 13.328125 L 268.078125 28.621094 Z " fill="rgb(0, 0, 0)" fill-opacity="1.000000" />
<path d="M 395.140625 28.621094 L 395.140625 13.328125 L 396.078125 13.328125 L 396.078125 28.621094 Z " fill="rgb(0, 0, 0)" fill-opacity="1.000000" />
<path d="M 47.882812 8.093750 L 47.882812 7.085938 L 55.341797 7.085938 L 55.341797 8.093750 Z " fill="rgb(0, 0, 0)" fill-opacity="1.000000" />
<path d="M 55.882812 8.093750 L 55.882812 7.085938 L 63.341797 7.085938 L 63.341797 8.093750 Z " fill="rgb(0, 0, 0)" fill-opacity="1.000000" />
<path d="M 63.882812 8.093750 L 63.882812 7.085938 L 71.341797 7.085938 L 71.341797 8.093750 Z " fill="rgb(0, 0, 0)" fill-opacity="1.000000" />
<path d="M 71.882812 8.093750 L 71.882812 7.085938 L 79.341797 7.085938 L 79.341797 8.093750 Z " fill="rgb(0, 0, 0)" fill-opacity="1.000000" />
<path d="M 79.882812 8.093750 L 79.882812 7.085938 L 87.341797 7.085938 L 87.341797 8.093750 Z " fill="rgb(0, 0, 0)" fill-opacity="1.000000" />
<path d="M 87.882812 8.093750 L 87.882812 7.085938 L 95.341797 7.085938 L 95.341797 8.093750 Z " fill="rgb(0, 0, 0)" fill-opacity="1.000000" />
<path d="M 95.882812 8.093750 L 95.882812 7.085938 L 103.341797 7.085938 L 103.341797 8.093750 Z " fill="rgb(0, 0, 0)" fill-opacity="1.000000" />
<path d="M 103.882812 8.093750 L 103.882812 7.085938 L 111.341797 7.085938 L 111.341797 8.093750 Z " fill="rgb(0, 0, 0)" fill-opacity="1.000000" />
<path d="M 111.882812 8.093750 L 111.882812 7.085938 L 119.341797 7.085938 L 119.341797 8.093750 Z " fill="rgb(0, 0, 0)" fill-opacity="1.000000" />
<path d="M 119.882812 8.093750 L 119.882812 7.085938 L 127.341797 7.085938 L 127.341797 8.093750 Z " fill="rgb(0, 0, 0)" fill-opacity="1.000000" />
<path d="M 127.882812 8.093750 L 127.882812 7.085938 L 135.341797 7.085938 L 135.341797 8.093750 Z " fill="rgb(0, 0, 0)" fill-opacity="1.000000" />
<path d="M 135.882812 8.093750 L 135.882812 7.085938 L 143.341797 7.085938 L 143.341797 8.093750 Z " fill="rgb(0, 0, 0)" fill-opacity="1.000000" />
<path d="M 143.882812 8.093750 L 143.882812 7.085938 L 151.341797 7.085938 L 151.341797 8.093750 Z " fill="rgb(0, 0, 0)" fill-opacity="1.000000" />
<path d="M 151.882812 8.093750 L 151.882812 7.085938 L 159.341797 7.085938 L 159.341797 8.093750 Z " fill="rgb(0, 0, 0)" fill-opacity="1.000000" />
<path d="M 159.882812 8.093750 L 159.882812 7.085938 L 167.341797 7.085938 L 167.341797 8.093750 Z " fill="rgb(0, 0, 0)" fill-opacity="1.000000" />
<path d="M 171.140625 14.621094 L 171.140625 8.093750 L 167.882812 8.093750 L 167.882812 7.085938 L 172.078125 7.085938 L 172.078125 14.621094 Z " fill="rgb(0, 0, 0)" fill-opacity="1.000000" />
<path d="M 267.140625 14.621094 L 267.140625 7.085938 L 271.341797 7.085938 L 271.341797 8.093750 L 268.078125 8.093750 L 268.078125 14.621094 Z " fill="rgb(0, 0, 0)" fill-opacity="1.000000" />
<path d="M 271.882812 8.093750 L 271.882812 7.085938 L 279.341797 7.085938 L 279.341797 8.093750 Z " fill="rgb(0, 0, 0)" fill-opacity="1.000000" />
<path d="M 279.882812 8.093750 L 279.882812 7.085938 L 287.341797 7.085938 L 287.341797 8.093750 Z " fill="rgb(0, 0, 0)" fill-opacity="1.000000" />
<path d="M 287.882812 8.093750 L 287.882812 7.085938 L 295.341797 7.085938 L 295.341797 8.093750 Z " fill="rgb(0, 0, 0)" fill-opacity="1.000000" />
<path d="M 295.882812 8.093750 L 295.882812 7.085938 L 303.341797 7.085938 L 303.341797 8.093750 Z " fill="rgb(0, 0, 0)" fill-opacity="1.000000" />
<path d="M 303.882812 8.093750 L 303.882812 7.085938 L 311.341797 7.085938 L 311.341797 8.093750 Z " fill="rgb(0, 0, 0)" fill-opacity="1.000000" />
<path d="M 311.882812 8.093750 L 311.882812 7.085938 L 319.341797 7.085938 L 319.341797 8.093750 Z " fill="rgb(0, 0, 0)" fill-opacity="1.000000" />
<path d="M 319.882812 8.093750 L 319.882812 7.085938 L 327.341797 7.085938 L 327.341797 8.093750 Z " fill="rgb(0, 0, 0)" fill-opacity="1.000000" />
<path d="M 327.882812 8.093750 L 327.882812 7.085938 L 335.341797 7.085938 L 335.341797 8.093750 Z " fill="rgb(0, 0, 0)" fill-opacity="1.000000" />
<path d="M 335.882812 8.093750 L 335.882812 7.085938 L 343.341797 7.085938 L 343.341797 8.093750 Z " fill="rgb(0, 0, 0)" fill-opacity="1.000000" />
<path d="M 343.882812 8.093750 L 343.882812 7.085938 L 351.341797 7.085938 L 351.341797 8.093750 Z " fill="rgb(0, 0, 0)" fill-opacity="1.000000" />
<path d="M 351.882812 8.093750 L 351.882812 7.085938 L 359.341797 7.085938 L 359.341797 8.093750 Z " fill="rgb(0, 0, 0)" fill-opacity="1.000000" />
<path d="M 359.882812 8.093750 L 359.882812 7.085938 L 367.341797 7.085938 L 367.341797 8.093750 Z " fill="rgb(0, 0, 0)" fill-opacity="1.000000" />
<path d="M 367.882812 8.093750 L 367.882812 7.085938 L 375.341797 7.085938 L 375.341797 8.093750 Z " fill="rgb(0, 0, 0)" fill-opacity="1.000000" />
<path d="M 375.882812 8.093750 L 375.882812 7.085938 L 383.341797 7.085938 L 383.341797 8.093750 Z " fill="rgb(0, 0, 0)" fill-opacity="1.000000" />
<path d="M 383.882812 8.093750 L 383.882812 7.085938 L 391.341797 7.085938 L 391.341797 8.093750 Z " fill="rgb(0, 0, 0)" fill-opacity="1.000000" />
<path d="M 395.140625 14.621094 L 395.140625 8.093750 L 391.882812 8.093750 L 391.882812 7.085938 L 396.078125 7.085938 L 396.078125 14.621094 Z " fill="rgb(0, 0, 0)" fill-opacity="1.000000" />
</svg>