<svg xmlns="http://www.w3.org/2000/svg" version="1.1" width="601" height="71">
<path d="M 3.140625 14.621094 L 3.140625 7.085938 L 7.341797 7.085938 L 7.341797 8.093750 L 4.078125 8.093750 L 4.078125 14.621094 Z " fill="rgb(0, 0, 0)" fill-opacity="1.000000" />
<path d="M 3.140625 28.621094 L 3.140625 13.328125 L 4.078125 13.328125 L 4.078125 28.621094 Z " fill="rgb(0, 0, 0)" fill-opacity="1.000000" />
<path d="M 3.140625 42.621094 L 3.140625 27.328125 L 4.078125 27.328125 L 4.078125 42.621094 Z " fill="rgb(0, 0, 0)" fill-opacity="1.000000" />
<path d="M 3.140625 56.621094 L 3.140625 41.328125 L 4.078125 41.328125 L 4.078125 56.621094 Z " fill="rgb(0, 0, 0)" fill-opacity="1.000000" />
<path d="M 3.140625 64.093750 L 3.140625 55.328125 L 4.078125 55.328125 L 4.078125 63.085938 L 7.341797 63.085938 L 7.341797 64.093750 Z " fill="rgb(0, 0, 0)" fill-opacity="1.000000" />
<path d="M 7.882812 64.093750 L 7.882812 63.085938 L 15.341797 63.085938 L 15.341797 64.093750 Z " fill="rgb(0, 0, 0)" fill-opacity="1.000000" />
<path d="M 15.882812 64.093750 L 15.882812 63.085938 L 23.341797 63.085938 L 23.341797 64.093750 Z " fill="rgb(0, 0, 0)" fill-opacity="1.000000" />
<path d="M 23.882812 64.093750 L 23.882812 63.085938 L 31.341797 63.085938 L 31.341797 64.093750 Z " fill="rgb(0, 0, 0)" fill-opacity="1.000000" />
<path d="M 31.882812 64.093750 L 31.882812 63.085938 L 39.341797 63.085938 L 39.341797 64.093750 Z " fill="rgb(0, 0, 0)" fill-opacity="1.000000" />
<path d="M 39.882812 64.093750 L 39.882812 63.085938 L 47.341797 63.085938 L 47.341797 64.093750 Z " fill="rgb(0, 0, 0)" fill-opacity="1.000000" />
<path d="M 47.882812 64.093750 L 47.882812 63.085938 L 55.341797 63.085938 L 55.341797 64.093750 Z " fill="rgb(0, 0, 0)" fill-opacity="1.000000" />
<path d="M 55.882812 64.093750 L 55.882812 63.085938 L 63.341797 63.085938 L 63.341797 64.093750 Z " fill="rgb(0, 0, 0)" fill-opacity="1.000000" />
<path d="M 63.882812 64.093750 L 63.882812 63.085938 L 71.341797 63.085938 L 71.341797 64.093750 Z " fill="rgb(0, 0, 0)" fill-opacity="1.000000" />
<path d="M 71.882812 64.093750 L 71.882812 63.085938 L 79.341797 63.085938 L 79.341797 64.093750 Z " fill="rgb(0, 0, 0)" fill-opacity="1.000000" />
<path d="M 79.882812 64.093750 L 79.882812 63.085938 L 87.341797 63.085938 L 87.341797 64.093750 Z " fill="rgb(0, 0, 0)" fill-opacity="1.000000" />
<path d="M 87.882812 64.093750 L 87.882812 63.085938 L 95.341797 63.085938 L 95.341797 64.093750 Z " fill="rgb(0, 0, 0)" fill-opacity="1.000000" />
<path d="M 95.882812 64.093750 L 95.882812 63.085938 L 103.341797 63.085938 L 103.341797 64.093750 Z " fill="rgb(0, 0, 0)" fill-opacity="1.000000" />
<path d="M 103.882812 64.093750 L 103.882812 63.085938 L 111.341797 63.085938 L 111.341797 64.093750 Z " fill="rgb(0, 0, 0)" fill-opacity="1.000000" />
<path d="M 111.882812 64.093750 L 111.882812 63.085938 L 119.341797 63.085938 L 119.341797 64.093750 Z " fill="rgb(0, 0, 0)" fill-opacity="1.000000" />
<path d="M 119.882812 64.093750 L 119.882812 63.085938 L 127.341797 63.085938 L 127.341797 64.093750 Z " fill="rgb(0, 0, 0)" fill-opacity="1.000000" />
<path d="M 127.882812 64.093750 L 127.882812 63.085938 L 131.140625 63.085938 L 131.140625 55.328125 L 132.078125 55.328125 L 132.078125 64.093750 Z " fill="rgb(0, 0, 0)" fill-opacity="1.000000" />
<path d="M 235.140625 64.093750 L 235.140625 55.328125 L 236.078125 55.328125 L 236.078125 63.085938 L 239.341797 63.085938 L 239.341797 64.093750 Z " fill="rgb(0, 0, 0)" fill-opacity="1.000000" />
<path d="M 239.882812 64.093750 L 239.882812 63.085938 L 247.341797 63.085938 L 247.341797 64.093750 Z " fill="rgb(0, 0, 0)" fill-opacity="1.000000" />
<path d="M 247.882812 64.093750 L 247.882812 63.085938 L 255.341797 63.085938 L 255.341797 64.093750 Z " fill="rgb(0, 0, 0)" fill-opacity="1.000000" />
<path d="M 255.882812 64.093750 L 255.882812 63.085938 L 263.341797 63.085938 L 263.341797 64.093750 Z " fill="rgb(0, 0, 0)" fill-opacity="1.000000" />
<path d="M 263.882812 64.093750 L 263.882812 63.085938 L 271.341797 63.085938 L 271.341797 64.093750 Z " fill="rgb(0, 0, 0)" fill-opacity="1.000000" />
<path d="M 271.882812 64.093750 L 271.882812 63.085938 L 279.341797 63.085938 L 279.341797 64.093750 Z " fill="rgb(0, 0, 0)" fill-opacity="1.000000" />
<path d="M 279.882812 64.093750 L 279.882812 63.085938 L 287.341797 63.085938 L 287.341797 64.093750 Z " fill="rgb(0, 0, 0)" fill-opacity="1.000000" />
<path d="M 287.882812 64.093750 L 287.882812 63.085938 L 295.341797 63.085938 L 295.341797 64.093750 Z " fill="rgb(0, 0, 0)" fill-opacity="1.000000" />
<path d="M 295.882812 64.093750 L 295.882812 63.085938 L 303.341797 63.085938 L 303.341797 64.093750 Z " fill="rgb(0, 0, 0)" fill-opacity="1.000000" />
<path d="M 303.882812 64.093750 L 303.882812 63.085938 L 311.341797 63.085938 L 311.341797 64.093750 Z " fill="rgb(0, 0, 0)" fill-opacity="1.000000" />
<path d="M 311.882812 64.093750 L 311.882812 63.085938 L 319.341797 63.085938 L 319.341797 64.093750 Z " fill="rgb(0, 0, 0)" fill-opacity="1.000000" />
<path d="M 319.882812 64.093750 L 319.882812 63.085938 L 327.341797 63.085938 L 327.341797 64.093750 Z " fill="rgb(0, 0, 0)" fill-opacity="1.000000" />
<path d="M 327.882812 64.093750 L 327.882812 63.085938 L 335.341797 63.085938 L 335.341797 64.093750 Z " fill="rgb(0, 0, 0)" fill-opacity="1.000000" />
<path d="M 335.882812 64.093750 L 335.882812 63.085938 L 343.341797 63.085938 L 343.341797 64.093750 Z " fill="rgb(0, 0, 0)" fill-opacity="1.000000" />
<path d="M 343.882812 64.093750 L 343.882812 63.085938 L 351.341797 63.085938 L 351.341797 64.093750 Z " fill="rgb(0, 0, 0)" fill-opacity="1.000000" />
<path d="M 351.882812 64.093750 L 351.882812 63.085938 L 359.341797 63.085938 L 359.341797 64.093750 Z " fill="rgb(0, 0, 0)" fill-opacity="1.000000" />
<path d="M 359.882812 64.093750 L 359.882812 63.085938 L 363.140625 63.085938 L 363.140625 55.328125 L 364.078125 55.328125 L 364.078125 64.093750 Z " fill="rgb(0, 0, 0)" fill-opacity="1.000000" />
<path d="M 467.140625 64.093750 L 467.140625 55.328125 L 468.078125 55.328125 L 468.078125 63.085938 L 471.341797 63.085938 L 471.341797 64.093750 Z " fill="rgb(0, 0, 0)" fill-opacity="1.000000" />
<path d="M 471.882812 64.093750 L 471.882812 63.085938 L 479.341797 63.085938 L 479.341797 64.093750 Z " fill="rgb(0, 0, 0)" fill-opacity="1.000000" />
<path d="M 479.882812 64.093750 L 479.882812 63.085938 L 487.341797 63.085938 L 487.341797 64.093750 Z " fill="rgb(0, 0, 0)" fill-opacity="1.000000" />
<path d="M 487.882812 64.093750 L 487.882812 63.085938 L 495.341797 63.085938 L 495.341797 64.093750 Z " fill="rgb(0, 0, 0)" fill-opacity="1.000000" />
<path d="M 495.882812 64.093750 L 495.882812 63.085938 L 503.341797 63.085938 L 503.341797 64.093750 Z " fill="rgb(0, 0, 0)" fill-opacity="1.000000" />
<path d="M 503.882812 64.093750 L 503.882812 63.085938 L 511.341797 63.085938 L 511.341797 64.093750 Z " fill="rgb(0, 0, 0)" fill-opacity="1.000000" />
<path d="M 511.882812 64.093750 L 511.882812 63.085938 L 519.341797 63.085938 L 519.341797 64.093750 Z " fill="rgb(0, 0, 0)" fill-opacity="1.000000" />
<path d="M 519.882812 64.093750 L 519.882812 63.085938 L 527.341797 63.085938 L 527.341797 64.093750 Z " fill="rgb(0, 0, 0)" fill-opacity="1.000000" />
<path d="M 527.882812 64.093750 L 527.882812 63.085938 L 535.341797 63.085938 L 535.341797 64.093750 Z " fill="rgb(0, 0, 0)" fill-opacity="1.000000" />
<path d="M 535.882812 64.093750 L 535.882812 63.085938 L 543.341797 63.085938 L 543.341797 64.093750 Z " fill="rgb(0, 0, 0)" fill-opacity="1.000000" />
<path d="M 543.882812 64.093750 L 543.882812 63.085938 L 551.341797 63.085938 L 551.341797 64.093750 Z " fill="rgb(0, 0, 0)" fill-opacity="1.000000" />
<path d="M 551.882812 64.093750 L 551.882812 63.085938 L 559.341797 63.085938 L 559.341797 64.093750 Z " fill="rgb(0, 0, 0)" fill-opacity="1.000000" />
<path d="M 559.882812 64.093750 L 559.882812 63.085938 L 567.341797 63.085938 L 567.341797 64.093750 Z " fill="rgb(0, 0, 0)" fill-opacity="1.000000" />
<path d="M 567.882812 64.093750 L 567.882812 63.085938 L 575.341797 63.085938 L 575.341797 64.093750 Z " fill="rgb(0, 0, 0)" fill-opacity="1.000000" />
<path d="M 575.882812 64.093750 L 575.882812 63.085938 L 583.341797 63.085938 L 583.341797 64.093750 Z " fill="rgb(0, 0, 0)" fill-opacity="1.000000" />
<path d="M 583.882812 64.093750 L 583.882812 63.085938 L 591.341797 63.085938 L 591.341797 64.093750 Z " fill="rgb(0, 0, 0)" fill-opacity="1.000000" />
<path d="M 591.882812 64.093750 L 591.882812 63.085938 L 595.140625 63.085938 L 595.140625 55.328125 L 596.078125 55.328125 L 596.078125 64.093750 Z " fill="rgb(0, 0, 0)" fill-opacity="1.000000" />
<path d="M 48.210938 30.281250 L 49.792969 30.281250 L 51.304688 34.722656 L 52.828125 30.281250 L 54.416016 30.281250 L 54.416016 39.000000 L 53.320312 39.000000 L 53.320312 31.294922 L 51.761719 35.888672 L 50.865234 35.888672 L 49.300781 31.294922 L 49.300781 39.000000 L 48.210938 39.000000 Z " fill="rgb(0, 0, 0)" fill-opacity="1.000000" />
<path d="M 131.140625 56.621094 L 131.140625 41.328125 L 132.078125 41.328125 L 132.078125 56.621094 Z " fill="rgb(0, 0, 0)" fill-opacity="1.000000" />
<path d="M 135.361328 56.621094 L 142.820312 41.328125 L 143.863281 41.328125 L 136.404297 56.621094 Z " fill="rgb(0, 0, 0)" fill-opacity="1.000000" />
<path d="M 235.140625 56.621094 L 235.140625 41.328125 L 236.078125 41.328125 L 236.078125 56.621094 Z " fill="rgb(0, 0, 0)" fill-opacity="1.000000" />
<path d="M 363.140625 56.621094 L 363.140625 41.328125 L 364.078125 41.328125 L 364.078125 56.621094 Z " fill="rgb(0, 0, 0)" fill-opacity="1.000000" />
<path d="M 463.863281 56.621094 L 462.820312 56.621094 L 455.361328 41.328125 L 456.404297 41.328125 Z " fill="rgb(0, 0, 0)" fill-opacity="1.000000" />
<path d="M 467.140625 56.621094 L 467.140625 41.328125 L 468.078125 41.328125 L 468.078125 56.621094 Z " fill="rgb(0, 0, 0)" fill-opacity="1.000000" />
<path d="M 595.140625 56.621094 L 595.140625 41.328125 L 596.078125 41.328125 L 596.078125 56.621094 Z " fill="rgb(0, 0, 0)" fill-opacity="1.000000" />
<path d="M 59.609375 33.193359 Q 58.789062 33.193359 58.367188 33.832031 Q 57.945312 34.470703 57.945312 35.724609 Q 57.945312 36.972656 58.367188 37.614258 Q 58.789062 38.255859 59.609375 38.255859 Q 60.435547 38.255859 60.857422 37.614258 Q 61.279297 36.972656 61.279297 35.724609 Q 61.279297 34.470703 60.857422 33.832031 Q 60.435547 33.193359 59.609375 33.193359 Z M 59.609375 32.279297 Q 60.974609 32.279297 61.698242 33.164062 Q 62.421875 34.048828 62.421875 35.724609 Q 62.421875 37.406250 61.701172 38.288086 Q 60.980469 39.169922 59.609375 39.169922 Q 58.244141 39.169922 57.523438 38.288086 Q 56.802734 37.406250 56.802734 35.724609 Q 56.802734 34.048828 57.523438 33.164062 Q 58.244141 32.279297 59.609375 32.279297 Z " fill="rgb(0, 0, 0)" fill-opacity="1.000000" />
<path d="M 69.027344 33.275391 L 69.027344 29.882812 L 70.105469 29.882812 L 70.105469 39.000000 L 69.027344 39.000000 L 69.027344 38.173828 Q 68.757812 38.660156 68.309570 38.915039 Q 67.861328 39.169922 67.275391 39.169922 Q 66.085938 39.169922 65.403320 38.247070 Q 64.720703 37.324219 64.720703 35.701172 Q 64.720703 34.101562 65.406250 33.190430 Q 66.091797 32.279297 67.275391 32.279297 Q 67.867188 32.279297 68.318359 32.534180 Q 68.769531 32.789062 69.027344 33.275391 Z M 65.857422 35.724609 Q 65.857422 36.978516 66.255859 37.617188 Q 66.654297 38.255859 67.433594 38.255859 Q 68.212891 38.255859 68.620117 37.611328 Q 69.027344 36.966797 69.027344 35.724609 Q 69.027344 34.476562 68.620117 33.834961 Q 68.212891 33.193359 67.433594 33.193359 Q 66.654297 33.193359 66.255859 33.832031 Q 65.857422 34.470703 65.857422 35.724609 Z " fill="rgb(0, 0, 0)" fill-opacity="1.000000" />
<path d="M 78.562500 35.179688 L 78.562500 35.707031 L 73.892578 35.707031 L 73.892578 35.742188 Q 73.845703 37.083984 74.405273 37.669922 Q 74.964844 38.255859 75.984375 38.255859 Q 76.500000 38.255859 77.062500 38.091797 Q 77.625000 37.927734 78.263672 37.593750 L 78.263672 38.666016 Q 77.648438 38.917969 77.077148 39.043945 Q 76.505859 39.169922 75.972656 39.169922 Q 74.443359 39.169922 73.582031 38.252930 Q 72.720703 37.335938 72.720703 35.724609 Q 72.720703 34.154297 73.564453 33.216797 Q 74.408203 32.279297 75.814453 32.279297 Q 77.068359 32.279297 77.791992 33.128906 Q 78.515625 33.978516 78.562500 35.179688 Z M 77.484375 34.863281 Q 77.414062 34.183594 76.989258 33.688477 Q 76.564453 33.193359 75.767578 33.193359 Q 74.988281 33.193359 74.484375 33.708984 Q 73.980469 34.224609 73.933594 34.869141 Z " fill="rgb(0, 0, 0)" fill-opacity="1.000000" />
<path d="M 84.212891 36.626953 Q 84.212891 37.353516 84.479492 37.722656 Q 84.746094 38.091797 85.267578 38.091797 L 86.527344 38.091797 L 86.527344 39.000000 L 85.162109 39.000000 Q 84.195312 39.000000 83.665039 38.381836 Q 83.134766 37.763672 83.134766 36.626953 L 83.134766 30.691406 L 81.406250 30.691406 L 81.406250 29.847656 L 84.212891 29.847656 Z " fill="rgb(0, 0, 0)" fill-opacity="1.000000" />
<path d="M 131.140625 42.621094 L 131.140625 27.328125 L 132.078125 27.328125 L 132.078125 42.621094 Z " fill="rgb(0, 0, 0)" fill-opacity="1.000000" />
<path d="M 135.882812 36.093750 L 135.882812 35.085938 L 143.341797 35.085938 L 143.341797 36.093750 Z " fill="rgb(0, 0, 0)" fill-opacity="1.000000" />
<path d="M 143.882812 36.093750 L 143.882812 35.085938 L 151.341797 35.085938 L 151.341797 36.093750 Z " fill="rgb(0, 0, 0)" fill-opacity="1.000000" />
<path d="M 156.078125 36.093750 L 156.078125 42.621094 L 155.140625 42.621094 L 155.140625 36.093750 L 151.882812 36.093750 L 151.882812 35.085938 L 155.140625 35.085938 L 155.140625 27.328125 L 156.078125 27.328125 L 156.078125 35.085938 L 159.341797 35.085938 L 159.341797 36.093750 Z " fill="rgb(0, 0, 0)" fill-opacity="1.000000" />
<path d="M 159.882812 36.093750 L 159.882812 35.085938 L 167.341797 35.085938 L 167.341797 36.093750 Z " fill="rgb(0, 0, 0)" fill-opacity="1.000000" />
<path d="M 167.882812 36.093750 L 167.882812 35.085938 L 175.341797 35.085938 L 175.341797 36.093750 Z " fill="rgb(0, 0, 0)" fill-opacity="1.000000" />
<path d="M 175.882812 36.093750 L 175.882812 35.085938 L 183.341797 35.085938 L 183.341797 36.093750 Z " fill="rgb(0, 0, 0)" fill-opacity="1.000000" />
<path d="M 183.882812 36.093750 L 183.882812 35.085938 L 191.341797 35.085938 L 191.341797 36.093750 Z " fill="rgb(0, 0, 0)" fill-opacity="1.000000" />
<path d="M 191.882812 36.093750 L 191.882812 35.085938 L 199.341797 35.085938 L 199.341797 36.093750 Z " fill="rgb(0, 0, 0)" fill-opacity="1.000000" />
<path d="M 199.882812 36.093750 L 199.882812 35.085938 L 207.341797 35.085938 L 207.341797 36.093750 Z " fill="rgb(0, 0, 0)" fill-opacity="1.000000" />
<path d="M 207.882812 36.093750 L 207.882812 35.085938 L 215.341797 35.085938 L 215.341797 36.093750 Z " fill="rgb(0, 0, 0)" fill-opacity="1.000000" />
<path d="M 215.882812 36.093750 L 215.882812 35.085938 L 223.341797 35.085938 L 223.341797 36.093750 Z " fill="rgb(0, 0, 0)" fill-opacity="1.000000" />
<path d="M 223.882812 36.093750 L 223.882812 35.085938 L 231.341797 35.085938 L 231.341797 36.093750 Z " fill="rgb(0, 0, 0)" fill-opacity="1.000000" />
<path d="M 235.140625 42.621094 L 235.140625 27.328125 L 236.078125 27.328125 L 236.078125 42.621094 Z " fill="rgb(0, 0, 0)" fill-opacity="1.000000" />
<path d="M 240.275391 30.251953 L 246.949219 30.251953 L 246.949219 31.248047 L 244.212891 31.248047 L 244.212891 39.000000 L 243.023438 39.000000 L 243.023438 31.248047 L 240.275391 31.248047 Z " fill="rgb(0, 0, 0)" fill-opacity="1.000000" />
<path d="M 254.767578 33.791016 Q 254.421875 33.521484 254.064453 33.398438 Q 253.707031 33.275391 253.279297 33.275391 Q 252.271484 33.275391 251.738281 33.908203 Q 251.205078 34.541016 251.205078 35.736328 L 251.205078 39.000000 L 250.121094 39.000000 L 250.121094 32.437500 L 251.205078 32.437500 L 251.205078 33.720703 Q 251.474609 33.023438 252.034180 32.651367 Q 252.593750 32.279297 253.361328 32.279297 Q 253.759766 32.279297 254.105469 32.378906 Q 254.451172 32.478516 254.767578 32.689453 Z " fill="rgb(0, 0, 0)" fill-opacity="1.000000" />
<path d="M 260.113281 35.701172 L 259.755859 35.701172 Q 258.812500 35.701172 258.334961 36.032227 Q 257.857422 36.363281 257.857422 37.019531 Q 257.857422 37.611328 258.214844 37.939453 Q 258.572266 38.267578 259.205078 38.267578 Q 260.095703 38.267578 260.605469 37.649414 Q 261.115234 37.031250 261.121094 35.941406 L 261.121094 35.701172 Z M 262.205078 35.255859 L 262.205078 39.000000 L 261.121094 39.000000 L 261.121094 38.027344 Q 260.775391 38.613281 260.250977 38.891602 Q 259.726562 39.169922 258.976562 39.169922 Q 257.974609 39.169922 257.376953 38.604492 Q 256.779297 38.039062 256.779297 37.089844 Q 256.779297 35.994141 257.514648 35.425781 Q 258.250000 34.857422 259.673828 34.857422 L 261.121094 34.857422 L 261.121094 34.687500 Q 261.115234 33.902344 260.722656 33.547852 Q 260.330078 33.193359 259.468750 33.193359 Q 258.917969 33.193359 258.355469 33.351562 Q 257.792969 33.509766 257.259766 33.814453 L 257.259766 32.736328 Q 257.857422 32.507812 258.405273 32.393555 Q 258.953125 32.279297 259.468750 32.279297 Q 260.283203 32.279297 260.860352 32.519531 Q 261.437500 32.759766 261.794922 33.240234 Q 262.017578 33.533203 262.111328 33.963867 Q 262.205078 34.394531 262.205078 35.255859 Z " fill="rgb(0, 0, 0)" fill-opacity="1.000000" />
<path d="M 270.158203 34.933594 L 270.158203 39.000000 L 269.074219 39.000000 L 269.074219 34.933594 Q 269.074219 34.048828 268.763672 33.632812 Q 268.453125 33.216797 267.791016 33.216797 Q 267.035156 33.216797 266.627930 33.752930 Q 266.220703 34.289062 266.220703 35.291016 L 266.220703 39.000000 L 265.142578 39.000000 L 265.142578 32.437500 L 266.220703 32.437500 L 266.220703 33.421875 Q 266.507812 32.859375 267.000000 32.569336 Q 267.492188 32.279297 268.166016 32.279297 Q 269.167969 32.279297 269.663086 32.938477 Q 270.158203 33.597656 270.158203 34.933594 Z " fill="rgb(0, 0, 0)" fill-opacity="1.000000" />
<path d="M 277.701172 32.666016 L 277.701172 33.720703 Q 277.238281 33.451172 276.769531 33.316406 Q 276.300781 33.181641 275.814453 33.181641 Q 275.082031 33.181641 274.721680 33.418945 Q 274.361328 33.656250 274.361328 34.142578 Q 274.361328 34.582031 274.630859 34.798828 Q 274.900391 35.015625 275.972656 35.220703 L 276.406250 35.302734 Q 277.208984 35.455078 277.622070 35.912109 Q 278.035156 36.369141 278.035156 37.101562 Q 278.035156 38.074219 277.343750 38.622070 Q 276.652344 39.169922 275.421875 39.169922 Q 274.935547 39.169922 274.402344 39.067383 Q 273.869141 38.964844 273.248047 38.759766 L 273.248047 37.646484 Q 273.851562 37.957031 274.402344 38.112305 Q 274.953125 38.267578 275.445312 38.267578 Q 276.160156 38.267578 276.552734 37.977539 Q 276.945312 37.687500 276.945312 37.166016 Q 276.945312 36.416016 275.509766 36.128906 L 275.462891 36.117188 L 275.058594 36.035156 Q 274.126953 35.853516 273.699219 35.422852 Q 273.271484 34.992188 273.271484 34.248047 Q 273.271484 33.304688 273.910156 32.791992 Q 274.548828 32.279297 275.732422 32.279297 Q 276.259766 32.279297 276.746094 32.375977 Q 277.232422 32.472656 277.701172 32.666016 Z " fill="rgb(0, 0, 0)" fill-opacity="1.000000" />
<path d="M 286.228516 29.882812 L 286.228516 30.779297 L 285.003906 30.779297 Q 284.423828 30.779297 284.198242 31.016602 Q 283.972656 31.253906 283.972656 31.857422 L 283.972656 32.437500 L 286.228516 32.437500 L 286.228516 33.275391 L 283.972656 33.275391 L 283.972656 39.000000 L 282.894531 39.000000 L 282.894531 33.275391 L 281.142578 33.275391 L 281.142578 32.437500 L 282.894531 32.437500 L 282.894531 31.980469 Q 282.894531 30.902344 283.389648 30.392578 Q 283.884766 29.882812 284.933594 29.882812 Z " fill="rgb(0, 0, 0)" fill-opacity="1.000000" />
<path d="M 291.609375 33.193359 Q 290.789062 33.193359 290.367188 33.832031 Q 289.945312 34.470703 289.945312 35.724609 Q 289.945312 36.972656 290.367188 37.614258 Q 290.789062 38.255859 291.609375 38.255859 Q 292.435547 38.255859 292.857422 37.614258 Q 293.279297 36.972656 293.279297 35.724609 Q 293.279297 34.470703 292.857422 33.832031 Q 292.435547 33.193359 291.609375 33.193359 Z M 291.609375 32.279297 Q 292.974609 32.279297 293.698242 33.164062 Q 294.421875 34.048828 294.421875 35.724609 Q 294.421875 37.406250 293.701172 38.288086 Q 292.980469 39.169922 291.609375 39.169922 Q 290.244141 39.169922 289.523438 38.288086 Q 288.802734 37.406250 288.802734 35.724609 Q 288.802734 34.048828 289.523438 33.164062 Q 290.244141 32.279297 291.609375 32.279297 Z " fill="rgb(0, 0, 0)" fill-opacity="1.000000" />
<path d="M 302.767578 33.791016 Q 302.421875 33.521484 302.064453 33.398438 Q 301.707031 33.275391 301.279297 33.275391 Q 300.271484 33.275391 299.738281 33.908203 Q 299.205078 34.541016 299.205078 35.736328 L 299.205078 39.000000 L 298.121094 39.000000 L 298.121094 32.437500 L 299.205078 32.437500 L 299.205078 33.720703 Q 299.474609 33.023438 300.034180 32.651367 Q 300.593750 32.279297 301.361328 32.279297 Q 301.759766 32.279297 302.105469 32.378906 Q 302.451172 32.478516 302.767578 32.689453 Z " fill="rgb(0, 0, 0)" fill-opacity="1.000000" />
<path d="M 307.960938 33.105469 Q 308.160156 32.683594 308.467773 32.481445 Q 308.775391 32.279297 309.208984 32.279297 Q 310.000000 32.279297 310.325195 32.891602 Q 310.650391 33.503906 310.650391 35.197266 L 310.650391 39.000000 L 309.666016 39.000000 L 309.666016 35.244141 Q 309.666016 33.855469 309.510742 33.518555 Q 309.355469 33.181641 308.945312 33.181641 Q 308.476562 33.181641 308.303711 33.541992 Q 308.130859 33.902344 308.130859 35.244141 L 308.130859 39.000000 L 307.146484 39.000000 L 307.146484 35.244141 Q 307.146484 33.837891 306.979492 33.509766 Q 306.812500 33.181641 306.378906 33.181641 Q 305.951172 33.181641 305.784180 33.541992 Q 305.617188 33.902344 305.617188 35.244141 L 305.617188 39.000000 L 304.638672 39.000000 L 304.638672 32.437500 L 305.617188 32.437500 L 305.617188 33.000000 Q 305.810547 32.648438 306.100586 32.463867 Q 306.390625 32.279297 306.759766 32.279297 Q 307.205078 32.279297 307.500977 32.484375 Q 307.796875 32.689453 307.960938 33.105469 Z " fill="rgb(0, 0, 0)" fill-opacity="1.000000" />
<path d="M 316.113281 35.701172 L 315.755859 35.701172 Q 314.812500 35.701172 314.334961 36.032227 Q 313.857422 36.363281 313.857422 37.019531 Q 313.857422 37.611328 314.214844 37.939453 Q 314.572266 38.267578 315.205078 38.267578 Q 316.095703 38.267578 316.605469 37.649414 Q 317.115234 37.031250 317.121094 35.941406 L 317.121094 35.701172 Z M 318.205078 35.255859 L 318.205078 39.000000 L 317.121094 39.000000 L 317.121094 38.027344 Q 316.775391 38.613281 316.250977 38.891602 Q 315.726562 39.169922 314.976562 39.169922 Q 313.974609 39.169922 313.376953 38.604492 Q 312.779297 38.039062 312.779297 37.089844 Q 312.779297 35.994141 313.514648 35.425781 Q 314.250000 34.857422 315.673828 34.857422 L 317.121094 34.857422 L 317.121094 34.687500 Q 317.115234 33.902344 316.722656 33.547852 Q 316.330078 33.193359 315.468750 33.193359 Q 314.917969 33.193359 314.355469 33.351562 Q 313.792969 33.509766 313.259766 33.814453 L 313.259766 32.736328 Q 313.857422 32.507812 314.405273 32.393555 Q 314.953125 32.279297 315.468750 32.279297 Q 316.283203 32.279297 316.860352 32.519531 Q 317.437500 32.759766 317.794922 33.240234 Q 318.017578 33.533203 318.111328 33.963867 Q 318.205078 34.394531 318.205078 35.255859 Z " fill="rgb(0, 0, 0)" fill-opacity="1.000000" />
<path d="M 323.597656 30.574219 L 323.597656 32.437500 L 326.046875 32.437500 L 326.046875 33.275391 L 323.597656 33.275391 L 323.597656 36.837891 Q 323.597656 37.564453 323.873047 37.851562 Q 324.148438 38.138672 324.833984 38.138672 L 326.046875 38.138672 L 326.046875 39.000000 L 324.728516 39.000000 Q 323.515625 39.000000 323.017578 38.513672 Q 322.519531 38.027344 322.519531 36.837891 L 322.519531 33.275391 L 320.767578 33.275391 L 320.767578 32.437500 L 322.519531 32.437500 L 322.519531 30.574219 Z " fill="rgb(0, 0, 0)" fill-opacity="1.000000" />
<path d="M 329.851562 32.460938 L 332.611328 32.460938 L 332.611328 38.162109 L 334.750000 38.162109 L 334.750000 39.000000 L 329.394531 39.000000 L 329.394531 38.162109 L 331.533203 38.162109 L 331.533203 33.298828 L 329.851562 33.298828 Z M 331.533203 29.912109 L 332.611328 29.912109 L 332.611328 31.271484 L 331.533203 31.271484 Z " fill="rgb(0, 0, 0)" fill-opacity="1.000000" />
<path d="M 339.609375 33.193359 Q 338.789062 33.193359 338.367188 33.832031 Q 337.945312 34.470703 337.945312 35.724609 Q 337.945312 36.972656 338.367188 37.614258 Q 338.789062 38.255859 339.609375 38.255859 Q 340.435547 38.255859 340.857422 37.614258 Q 341.279297 36.972656 341.279297 35.724609 Q 341.279297 34.470703 340.857422 33.832031 Q 340.435547 33.193359 339.609375 33.193359 Z M 339.609375 32.279297 Q 340.974609 32.279297 341.698242 33.164062 Q 342.421875 34.048828 342.421875 35.724609 Q 342.421875 37.406250 341.701172 38.288086 Q 340.980469 39.169922 339.609375 39.169922 Q 338.244141 39.169922 337.523438 38.288086 Q 336.802734 37.406250 336.802734 35.724609 Q 336.802734 34.048828 337.523438 33.164062 Q 338.244141 32.279297 339.609375 32.279297 Z " fill="rgb(0, 0, 0)" fill-opacity="1.000000" />
<path d="M 350.158203 34.933594 L 350.158203 39.000000 L 349.074219 39.000000 L 349.074219 34.933594 Q 349.074219 34.048828 348.763672 33.632812 Q 348.453125 33.216797 347.791016 33.216797 Q 347.035156 33.216797 346.627930 33.752930 Q 346.220703 34.289062 346.220703 35.291016 L 346.220703 39.000000 L 345.142578 39.000000 L 345.142578 32.437500 L 346.220703 32.437500 L 346.220703 33.421875 Q 346.507812 32.859375 347.000000 32.569336 Q 347.492188 32.279297 348.166016 32.279297 Q 349.167969 32.279297 349.663086 32.938477 Q 350.158203 33.597656 350.158203 34.933594 Z " fill="rgb(0, 0, 0)" fill-opacity="1.000000" />
<path d="M 363.140625 42.621094 L 363.140625 27.328125 L 364.078125 27.328125 L 364.078125 42.621094 Z " fill="rgb(0, 0, 0)" fill-opacity="1.000000" />
<path d="M 367.882812 36.093750 L 367.882812 35.085938 L 375.341797 35.085938 L 375.341797 36.093750 Z " fill="rgb(0, 0, 0)" fill-opacity="1.000000" />
<path d="M 375.882812 36.093750 L 375.882812 35.085938 L 383.341797 35.085938 L 383.341797 36.093750 Z " fill="rgb(0, 0, 0)" fill-opacity="1.000000" />
<path d="M 383.882812 36.093750 L 383.882812 35.085938 L 391.341797 35.085938 L 391.341797 36.093750 Z " fill="rgb(0, 0, 0)" fill-opacity="1.000000" />
<path d="M 391.882812 36.093750 L 391.882812 35.085938 L 399.341797 35.085938 L 399.341797 36.093750 Z " fill="rgb(0, 0, 0)" fill-opacity="1.000000" />
<path d="M 399.882812 36.093750 L 399.882812 35.085938 L 407.341797 35.085938 L 407.341797 36.093750 Z " fill="rgb(0, 0, 0)" fill-opacity="1.000000" />
<path d="M 407.882812 36.093750 L 407.882812 35.085938 L 415.341797 35.085938 L 415.341797 36.093750 Z " fill="rgb(0, 0, 0)" fill-opacity="1.000000" />
<path d="M 415.882812 36.093750 L 415.882812 35.085938 L 423.341797 35.085938 L 423.341797 36.093750 Z " fill="rgb(0, 0, 0)" fill-opacity="1.000000" />
<path d="M 423.882812 36.093750 L 423.882812 35.085938 L 431.341797 35.085938 L 431.341797 36.093750 Z " fill="rgb(0, 0, 0)" fill-opacity="1.000000" />
<path d="M 431.882812 36.093750 L 431.882812 35.085938 L 439.341797 35.085938 L 439.341797 36.093750 Z " fill="rgb(0, 0, 0)" fill-opacity="1.000000" />
<path d="M 439.882812 36.093750 L 439.882812 35.085938 L 447.341797 35.085938 L 447.341797 36.093750 Z " fill="rgb(0, 0, 0)" fill-opacity="1.000000" />
<path d="M 450.179688 33.410156 Q 448.750000 34.230469 448.750000 35.882812 Q 448.750000 37.535156 450.179688 38.355469 Q 450.894531 38.771484 451.609375 38.771484 Q 452.324219 38.771484 453.039062 38.355469 Q 454.474609 37.529297 454.474609 35.882812 Q 454.474609 34.236328 453.039062 33.410156 Q 452.324219 32.994141 451.609375 32.994141 Q 450.894531 32.994141 450.179688 33.410156 Z M 449.822266 38.976562 Q 448.035156 37.945312 448.035156 35.882812 Q 448.035156 33.820312 449.822266 32.789062 Q 450.712891 32.273438 451.609375 32.273438 Q 452.500000 32.273438 453.396484 32.789062 Q 455.189453 33.820312 455.189453 35.882812 Q 455.189453 37.945312 453.396484 38.976562 Q 452.500000 39.492188 451.609375 39.492188 Q 450.712891 39.492188 449.822266 38.976562 Z " fill="rgb(0, 0, 0)" fill-opacity="1.000000" />
<path d="M 455.882812 36.093750 L 455.882812 35.085938 L 463.341797 35.085938 L 463.341797 36.093750 Z " fill="rgb(0, 0, 0)" fill-opacity="1.000000" />
<path d="M 467.140625 42.621094 L 467.140625 27.328125 L 468.078125 27.328125 L 468.078125 42.621094 Z " fill="rgb(0, 0, 0)" fill-opacity="1.000000" />
<path d="M 499.609375 31.294922 L 498.361328 35.771484 L 500.857422 35.771484 Z M 498.894531 30.251953 L 500.330078 30.251953 L 503.007812 39.000000 L 501.783203 39.000000 L 501.138672 36.720703 L 498.074219 36.720703 L 497.441406 39.000000 L 496.216797 39.000000 Z " fill="rgb(0, 0, 0)" fill-opacity="1.000000" />
<path d="M 510.767578 33.791016 Q 510.421875 33.521484 510.064453 33.398438 Q 509.707031 33.275391 509.279297 33.275391 Q 508.271484 33.275391 507.738281 33.908203 Q 507.205078 34.541016 507.205078 35.736328 L 507.205078 39.000000 L 506.121094 39.000000 L 506.121094 32.437500 L 507.205078 32.437500 L 507.205078 33.720703 Q 507.474609 33.023438 508.034180 32.651367 Q 508.593750 32.279297 509.361328 32.279297 Q 509.759766 32.279297 510.105469 32.378906 Q 510.451172 32.478516 510.767578 32.689453 Z " fill="rgb(0, 0, 0)" fill-opacity="1.000000" />
<path d="M 515.597656 30.574219 L 515.597656 32.437500 L 518.046875 32.437500 L 518.046875 33.275391 L 515.597656 33.275391 L 515.597656 36.837891 Q 515.597656 37.564453 515.873047 37.851562 Q 516.148438 38.138672 516.833984 38.138672 L 518.046875 38.138672 L 518.046875 39.000000 L 516.728516 39.000000 Q 515.515625 39.000000 515.017578 38.513672 Q 514.519531 38.027344 514.519531 36.837891 L 514.519531 33.275391 L 512.767578 33.275391 L 512.767578 32.437500 L 514.519531 32.437500 L 514.519531 30.574219 Z " fill="rgb(0, 0, 0)" fill-opacity="1.000000" />
<path d="M 521.851562 32.460938 L 524.611328 32.460938 L 524.611328 38.162109 L 526.750000 38.162109 L 526.750000 39.000000 L 521.394531 39.000000 L 521.394531 38.162109 L 523.533203 38.162109 L 523.533203 33.298828 L 521.851562 33.298828 Z M 523.533203 29.912109 L 524.611328 29.912109 L 524.611328 31.271484 L 523.533203 31.271484 Z " fill="rgb(0, 0, 0)" fill-opacity="1.000000" />
<path d="M 534.228516 29.882812 L 534.228516 30.779297 L 533.003906 30.779297 Q 532.423828 30.779297 532.198242 31.016602 Q 531.972656 31.253906 531.972656 31.857422 L 531.972656 32.437500 L 534.228516 32.437500 L 534.228516 33.275391 L 531.972656 33.275391 L 531.972656 39.000000 L 530.894531 39.000000 L 530.894531 33.275391 L 529.142578 33.275391 L 529.142578 32.437500 L 530.894531 32.437500 L 530.894531 31.980469 Q 530.894531 30.902344 531.389648 30.392578 Q 531.884766 29.882812 532.933594 29.882812 Z " fill="rgb(0, 0, 0)" fill-opacity="1.000000" />
<path d="M 540.113281 35.701172 L 539.755859 35.701172 Q 538.812500 35.701172 538.334961 36.032227 Q 537.857422 36.363281 537.857422 37.019531 Q 537.857422 37.611328 538.214844 37.939453 Q 538.572266 38.267578 539.205078 38.267578 Q 540.095703 38.267578 540.605469 37.649414 Q 541.115234 37.031250 541.121094 35.941406 L 541.121094 35.701172 Z M 542.205078 35.255859 L 542.205078 39.000000 L 541.121094 39.000000 L 541.121094 38.027344 Q 540.775391 38.613281 540.250977 38.891602 Q 539.726562 39.169922 538.976562 39.169922 Q 537.974609 39.169922 537.376953 38.604492 Q 536.779297 38.039062 536.779297 37.089844 Q 536.779297 35.994141 537.514648 35.425781 Q 538.250000 34.857422 539.673828 34.857422 L 541.121094 34.857422 L 541.121094 34.687500 Q 541.115234 33.902344 540.722656 33.547852 Q 540.330078 33.193359 539.468750 33.193359 Q 538.917969 33.193359 538.355469 33.351562 Q 537.792969 33.509766 537.259766 33.814453 L 537.259766 32.736328 Q 537.857422 32.507812 538.405273 32.393555 Q 538.953125 32.279297 539.468750 32.279297 Q 540.283203 32.279297 540.860352 32.519531 Q 541.437500 32.759766 541.794922 33.240234 Q 542.017578 33.533203 542.111328 33.963867 Q 542.205078 34.394531 542.205078 35.255859 Z " fill="rgb(0, 0, 0)" fill-opacity="1.000000" />
<path d="M 550.216797 38.666016 Q 549.783203 38.917969 549.323242 39.043945 Q 548.863281 39.169922 548.382812 39.169922 Q 546.859375 39.169922 546.000977 38.255859 Q 545.142578 37.341797 545.142578 35.724609 Q 545.142578 34.107422 546.000977 33.193359 Q 546.859375 32.279297 548.382812 32.279297 Q 548.857422 32.279297 549.308594 32.402344 Q 549.759766 32.525391 550.216797 32.783203 L 550.216797 33.914062 Q 549.789062 33.533203 549.358398 33.363281 Q 548.927734 33.193359 548.382812 33.193359 Q 547.369141 33.193359 546.824219 33.849609 Q 546.279297 34.505859 546.279297 35.724609 Q 546.279297 36.937500 546.827148 37.596680 Q 547.375000 38.255859 548.382812 38.255859 Q 548.945312 38.255859 549.390625 38.083008 Q 549.835938 37.910156 550.216797 37.546875 Z " fill="rgb(0, 0, 0)" fill-opacity="1.000000" />
<path d="M 555.597656 30.574219 L 555.597656 32.437500 L 558.046875 32.437500 L 558.046875 33.275391 L 555.597656 33.275391 L 555.597656 36.837891 Q 555.597656 37.564453 555.873047 37.851562 Q 556.148438 38.138672 556.833984 38.138672 L 558.046875 38.138672 L 558.046875 39.000000 L 556.728516 39.000000 Q 555.515625 39.000000 555.017578 38.513672 Q 554.519531 38.027344 554.519531 36.837891 L 554.519531 33.275391 L 552.767578 33.275391 L 552.767578 32.437500 L 554.519531 32.437500 L 554.519531 30.574219 Z " fill="rgb(0, 0, 0)" fill-opacity="1.000000" />
<path d="M 595.140625 42.621094 L 595.140625 27.328125 L 596.078125 27.328125 L 596.078125 42.621094 Z " fill="rgb(0, 0, 0)" fill-opacity="1.000000" />
<path d="M 131.140625 28.621094 L 131.140625 13.328125 L 132.078125 13.328125 L 132.078125 28.621094 Z " fill="rgb(0, 0, 0)" fill-opacity="1.000000" />
<path d="M 143.863281 28.621094 L 142.820312 28.621094 L 135.361328 13.328125 L 136.404297 13.328125 Z " fill="rgb(0, 0, 0)" fill-opacity="1.000000" />
<path d="M 235.140625 28.621094 L 235.140625 13.328125 L 236.078125 13.328125 L 236.078125 28.621094 Z " fill="rgb(0, 0, 0)" fill-opacity="1.000000" />
<path d="M 363.140625 28.621094 L 363.140625 13.328125 L 364.078125 13.328125 L 364.078125 28.621094 Z " fill="rgb(0, 0, 0)" fill-opacity="1.000000" />
<path d="M 455.361328 28.621094 L 462.820312 13.328125 L 463.863281 13.328125 L 456.404297 28.621094 Z " fill="rgb(0, 0, 0)" fill-opacity="1.000000" />
<path d="M 467.140625 28.621094 L 467.140625 13.328125 L 468.078125 13.328125 L 468.078125 28.621094 Z " fill="rgb(0, 0, 0)" fill-opacity="1.000000" />
<path d="M 595.140625 28.621094 L 595.140625 13.328125 L 596.078125 13.328125 L 596.078125 28.621094 Z " fill="rgb(0, 0, 0)" fill-opacity="1.000000" />
<path d="M 7.882812 8.093750 L 7.882812 7.085938 L 15.341797 7.085938 L 15.341797 8.093750 Z " fill="rgb(0, 0, 0)" fill-opacity="1.000000" />
<path d="M 15.882812 8.093750 L 15.882812 7.085938 L 23.341797 7.085938 L 23.341797 8.093750 Z " fill="rgb(0, 0, 0)" fill-opacity="1.000000" />
<path d="M 23.882812 8.093750 L 23.882812 7.085938 L 31.341797 7.085938 L 31.341797 8.093750 Z " fill="rgb(0, 0, 0)" fill-opacity="1.000000" />
<path d="M 31.882812 8.093750 L 31.882812 7.085938 L 39.341797 7.085938 L 39.341797 8.093750 Z " fill="rgb(0, 0, 0)" fill-opacity="1.000000" />
<path d="M 39.882812 8.093750 L 39.882812 7.085938 L 47.341797 7.085938 L 47.341797 8.093750 Z " fill="rgb(0, 0, 0)" fill-opacity="1.000000" />
<path d="M 47.882812 8.093750 L 47.882812 7.085938 L 55.341797 7.085938 L 55.341797 8.093750 Z " fill="rgb(0, 0, 0)" fill-opacity="1.000000" />
<path d="M 55.882812 8.093750 L 55.882812 7.085938 L 63.341797 7.085938 L 63.341797 8.093750 Z " fill="rgb(0, 0, 0)" fill-opacity="1.000000" />
<path d="M 63.882812 8.093750 L 63.882812 7.085938 L 71.341797 7.085938 L 71.341797 8.093750 Z " fill="rgb(0, 0, 0)" fill-opacity="1.000000" />
<path d="M 71.882812 8.093750 L 71.882812 7.085938 L 79.341797 7.085938 L 79.341797 8.093750 Z " fill="rgb(0, 0, 0)" fill-opacity="1.000000" />
<path d="M 79.882812 8.093750 L 79.882812 7.085938 L 87.341797 7.085938 L 87.341797 8.093750 Z " fill="rgb(0, 0, 0)" fill-opacity="1.000000" />
<path d="M 87.882812 8.093750 L 87.882812 7.085938 L 95.341797 7.085938 L 95.341797 8.093750 Z " fill="rgb(0, 0, 0)" fill-opacity="1.000000" />
<path d="M 95.882812 8.093750 L 95.882812 7.085938 L 103.341797 7.085938 L 103.341797 8.093750 Z " fill="rgb(0, 0, 0)" fill-opacity="1.000000" />
<path d="M 103.882812 8.093750 L 103.882812 7.085938 L 111.341797 7.085938 L 111.341797 8.093750 Z " fill="rgb(0, 0, 0)" fill-opacity="1.000000" />
<path d="M 111.882812 8.093750 L 111.882812 7.085938 L 119.341797 7.085938 L 119.341797 8.093750 Z " fill="rgb(0, 0, 0)" fill-opacity="1.000000" />
<path d="M 119.882812 8.093750 L 119.882812 7.085938 L 127.341797 7.085938 L 127.341797 8.093750 Z " fill="rgb(0, 0, 0)" fill-opacity="1.000000" />
<path d="M 131.140625 14.621094 L 131.140625 8.093750 L 127.882812 8.093750 L 127.882812 7.085938 L 132.078125 7.085938 L 132.078125 14.621094 Z " fill="rgb(0, 0, 0)" fill-opacity="1.000000" />
<path d="M 235.140625 14.621094 L 235.140625 7.085938 L 239.341797 7.085938 L 239.341797 8.093750 L 236.078125 8.093750 L 236.078125 14.621094 Z " fill="rgb(0, 0, 0)" fill-opacity="1.000000" />
<path d="M 239.882812 8.093750 L 239.882812 7.085938 L 247.341797 7.085938 L 247.341797 8.093750 Z " fill="rgb(0, 0, 0)" fill-opacity="1.000000" />
<path d="M 247.882812 8.093750 L 247.882812 7.085938 L 255.341797 7.085938 L 255.341797 8.093750 Z " fill="rgb(0, 0, 0)" fill-opacity="1.000000" />
<path d="M 255.882812 8.093750 L 255.882812 7.085938 L 263.341797 7.085938 L 263.341797 8.093750 Z " fill="rgb(0, 0, 0)" fill-opacity="1.000000" />
<path d="M 263.882812 8.093750 L 263.882812 7.085938 L 271.341797 7.085938 L 271.341797 8.093750 Z " fill="rgb(0, 0, 0)" fill-opacity="1.000000" />
<path d="M 271.882812 8.093750 L 271.882812 7.085938 L 279.341797 7.085938 L 279.341797 8.093750 Z " fill="rgb(0, 0, 0)" fill-opacity="1.000000" />
<path d="M 279.882812 8.093750 L 279.882812 7.085938 L 287.341797 7.085938 L 287.341797 8.093750 Z " fill="rgb(0, 0, 0)" fill-opacity="1.000000" />
<path d="M 287.882812 8.093750 L 287.882812 7.085938 L 295.341797 7.085938 L 295.341797 8.093750 Z " fill="rgb(0, 0, 0)" fill-opacity="1.000000" />
<path d="M 295.882812 8.093750 L 295.882812 7.085938 L 303.341797 7.085938 L 303.341797 8.093750 Z " fill="rgb(0, 0, 0)" fill-opacity="1.000000" />
<path d="M 303.882812 8.093750 L 303.882812 7.085938 L 311.341797 7.085938 L 311.341797 8.093750 Z " fill="rgb(0, 0, 0)" fill-opacity="1.000000" />
<path d="M 311.882812 8.093750 L 311.882812 7.085938 L 319.341797 7.085938 L 319.341797 8.093750 Z " fill="rgb(0, 0, 0)" fill-opacity="1.000000" />
<path d="M 319.882812 8.093750 L 319.882812 7.085938 L 327.341797 7.085938 L 327.341797 8.093750 Z " fill="rgb(0, 0, 0)" fill-opacity="1.000000" />
<path d="M 327.882812 8.093750 L 327.882812 7.085938 L 335.341797 7.085938 L 335.341797 8.093750 Z " fill="rgb(0, 0, 0)" fill-opacity="1.000000" />
<path d="M 335.882812 8.093750 L 335.882812 7.085938 L 343.341797 7.085938 L 343.341797 8.093750 Z " fill="rgb(0, 0, 0)" fill-opacity="1.000000" />
<path d="M 343.882812 8.093750 L 343.882812 7.085938 L 351.341797 7.085938 L 351.341797 8.093750 Z " fill="rgb(0, 0, 0)" fill-opacity="1.000000" />
<path d="M 351.882812 8.093750 L 351.882812 7.085938 L 359.341797 7.085938 L 359.341797 8.093750 Z " fill="rgb(0, 0, 0)" fill-opacity="1.000000" />
<path d="M 363.140625 14.621094 L 363.140625 8.093750 L 359.882812 8.093750 L 359.882812 7.085938 L 364.078125 7.085938 L 364.078125 14.621094 Z " fill="rgb(0, 0, 0)" fill-opacity="1.000000" />
<path d="M 467.140625 14.621094 L 467.140625 7.085938 L 471.341797 7.085938 L 471.341797 8.093750 L 468.078125 8.093750 L 468.078125 14.621094 Z " fill="rgb(0, 0, 0)" fill-opacity="1.000000" />
<path d="M 471.882812 8.093750 L 471.882812 7.085938 L 479.341797 7.085938 L 479.341797 8.093750 Z " fill="rgb(0, 0, 0)" fill-opacity="1.000000" />
<path d="M 479.882812 8.093750 L 479.882812 7.085938 L 487.341797 7.085938 L 487.341797 8.093750 Z " fill="rgb(0, 0, 0)" fill-opacity="1.000000" />
<path d="M 487.882812 8.093750 L 487.882812 7.085938 L 495.341797 7.085938 L 495.341797 8.093750 Z " fill="rgb(0, 0, 0)" fill-opacity="1.000000" />
<path d="M 495.882812 8.093750 L 495.882812 7.085938 L 503.341797 7.085938 L 503.341797 8.093750 Z " fill="rgb(0, 0, 0)" fill-opacity="1.000000" />
<path d="M 503.882812 8.093750 L 503.882812 7.085938 L 511.341797 7.085938 L 511.341797 8.093750 Z " fill="rgb(0, 0, 0)" fill-opacity="1.000000" />
<path d="M 511.882812 8.093750 L 511.882812 7.085938 L 519.341797 7.085938 L 519.341797 8.093750 Z " fill="rgb(0, 0, 0)" fill-opacity="1.000000" />
<path d="M 519.882812 8.093750 L 519.882812 7.085938 L 527.341797 7.085938 L 527.341797 8.093750 Z " fill="rgb(0, 0, 0)" fill-opacity="1.000000" />
<path d="M 527.882812 8.093750 L 527.882812 7.085938 L 535.341797 7.085938 L 535.341797 8.093750 Z " fill="rgb(0, 0, 0)" fill-opacity="1.000000" />
<path d="M 535.882812 8.093750 L 535.882812 7.085938 L 543.341797 7.085938 L 543.341797 8.093750 Z " fill="rgb(0, 0, 0)" fill-opacity="1.000000" />
<path d="M 543.882812 8.093750 L 543.882812 7.085938 L 551.341797 7.085938 L 551.341797 8.093750 Z " fill="rgb(0, 0, 0)" fill-opacity="1.000000" />
<path d="M 551.882812 8.093750 L 551.882812 7.085938 L 559.341797 7.085938 L 559.341797 8.093750 Z " fill="rgb(0, 0, 0)" fill-opacity="1.000000" />
<path d="M 559.882812 8.093750 L 559.882812 7.085938 L 567.341797 7.085938 L 567.341797 8.093750 Z " fill="rgb(0, 0, 0)" fill-opacity="1.000000" />
<path d="M 567.882812 8.093750 L 567.882812 7.085938 L 575.341797 7.085938 L 575.341797 8.093750 Z " fill="rgb(0, 0, 0)" fill-opacity="1.000000" />
<path d="M 575.882812 8.093750 L 575.882812 7.085938 L 583.341797 7.085938 L 583.341797 8.093750 Z " fill="rgb(0, 0, 0)" fill-opacity="1.000000" />
<path d="M 583.882812 8.093750 L 583.882812 7.085938 L 591.341797 7.085938 L 591.341797 8.093750 Z " fill="rgb(0, 0, 0)" fill-opacity="1.000000" />
<path d="M 595.140625 14.621094 L 595.140625 8.093750 L 591.882812 8.093750 L 591.882812 7.085938 L 596.078125 7.085938 L 596.078125 14.621094 Z " fill="rgb(0, 0, 0)" fill-opacity="1.000000" />
</svg>