<svg xmlns="http://www.w3.org/2000/svg" version="1.1" width="633" height="267">
<path d="M 3.140625 238.621094 L 3.140625 231.085938 L 7.341797 231.085938 L 7.341797 232.093750 L 4.078125 232.093750 L 4.078125 238.621094 Z " fill="rgb(0, 0, 0)" fill-opacity="1.000000" />
<path d="M 3.140625 252.621094 L 3.140625 237.328125 L 4.078125 237.328125 L 4.078125 252.621094 Z " fill="rgb(0, 0, 0)" fill-opacity="1.000000" />
<path d="M 3.140625 260.093750 L 3.140625 251.328125 L 4.078125 251.328125 L 4.078125 259.085938 L 7.341797 259.085938 L 7.341797 260.093750 Z " fill="rgb(0, 0, 0)" fill-opacity="1.000000" />
<path d="M 7.882812 260.093750 L 7.882812 259.085938 L 15.341797 259.085938 L 15.341797 260.093750 Z " fill="rgb(0, 0, 0)" fill-opacity="1.000000" />
<path d="M 15.882812 260.093750 L 15.882812 259.085938 L 23.341797 259.085938 L 23.341797 260.093750 Z " fill="rgb(0, 0, 0)" fill-opacity="1.000000" />
<path d="M 23.882812 260.093750 L 23.882812 259.085938 L 31.341797 259.085938 L 31.341797 260.093750 Z " fill="rgb(0, 0, 0)" fill-opacity="1.000000" />
<path d="M 31.882812 260.093750 L 31.882812 259.085938 L 39.341797 259.085938 L 39.341797 260.093750 Z " fill="rgb(0, 0, 0)" fill-opacity="1.000000" />
<path d="M 39.882812 260.093750 L 39.882812 259.085938 L 47.341797 259.085938 L 47.341797 260.093750 Z " fill="rgb(0, 0, 0)" fill-opacity="1.000000" />
<path d="M 47.882812 260.093750 L 47.882812 259.085938 L 55.341797 259.085938 L 55.341797 260.093750 Z " fill="rgb(0, 0, 0)" fill-opacity="1.000000" />
<path d="M 55.882812 260.093750 L 55.882812 259.085938 L 63.341797 259.085938 L 63.341797 260.093750 Z " fill="rgb(0, 0, 0)" fill-opacity="1.000000" />
<path d="M 63.882812 260.093750 L 63.882812 259.085938 L 71.341797 259.085938 L 71.341797 260.093750 Z " fill="rgb(0, 0, 0)" fill-opacity="1.000000" />
<path d="M 71.882812 260.093750 L 71.882812 259.085938 L 79.341797 259.085938 L 79.341797 260.093750 Z " fill="rgb(0, 0, 0)" fill-opacity="1.000000" />
<path d="M 79.882812 260.093750 L 79.882812 259.085938 L 87.341797 259.085938 L 87.341797 260.093750 Z " fill="rgb(0, 0, 0)" fill-opacity="1.000000" />
<path d="M 87.882812 260.093750 L 87.882812 259.085938 L 95.341797 259.085938 L 95.341797 260.093750 Z " fill="rgb(0, 0, 0)" fill-opacity="1.000000" />
<path d="M 95.882812 260.093750 L 95.882812 259.085938 L 103.341797 259.085938 L 103.341797 260.093750 Z " fill="rgb(0, 0, 0)" fill-opacity="1.000000" />
<path d="M 103.882812 260.093750 L 103.882812 259.085938 L 111.341797 259.085938 L 111.341797 260.093750 Z " fill="rgb(0, 0, 0)" fill-opacity="1.000000" />
<path d="M 111.882812 260.093750 L 111.882812 259.085938 L 119.341797 259.085938 L 119.341797 260.093750 Z " fill="rgb(0, 0, 0)" fill-opacity="1.000000" />
<path d="M 119.882812 260.093750 L 119.882812 259.085938 L 127.341797 259.085938 L 127.341797 260.093750 Z " fill="rgb(0, 0, 0)" fill-opacity="1.000000" />
<path d="M 127.882812 260.093750 L 127.882812 259.085938 L 131.140625 259.085938 L 131.140625 251.328125 L 132.078125 251.328125 L 132.078125 260.093750 Z " fill="rgb(0, 0, 0)" fill-opacity="1.000000" />
<path d="M 251.140625 260.093750 L 251.140625 251.328125 L 252.078125 251.328125 L 252.078125 259.085938 L 255.341797 259.085938 L 255.341797 260.093750 Z " fill="rgb(0, 0, 0)" fill-opacity="1.000000" />
<path d="M 255.882812 260.093750 L 255.882812 259.085938 L 263.341797 259.085938 L 263.341797 260.093750 Z " fill="rgb(0, 0, 0)" fill-opacity="1.000000" />
<path d="M 263.882812 260.093750 L 263.882812 259.085938 L 271.341797 259.085938 L 271.341797 260.093750 Z " fill="rgb(0, 0, 0)" fill-opacity="1.000000" />
<path d="M 271.882812 260.093750 L 271.882812 259.085938 L 279.341797 259.085938 L 279.341797 260.093750 Z " fill="rgb(0, 0, 0)" fill-opacity="1.000000" />
<path d="M 279.882812 260.093750 L 279.882812 259.085938 L 287.341797 259.085938 L 287.341797 260.093750 Z " fill="rgb(0, 0, 0)" fill-opacity="1.000000" />
<path d="M 287.882812 260.093750 L 287.882812 259.085938 L 295.341797 259.085938 L 295.341797 260.093750 Z " fill="rgb(0, 0, 0)" fill-opacity="1.000000" />
<path d="M 295.882812 260.093750 L 295.882812 259.085938 L 303.341797 259.085938 L 303.341797 260.093750 Z " fill="rgb(0, 0, 0)" fill-opacity="1.000000" />
<path d="M 303.882812 260.093750 L 303.882812 259.085938 L 311.341797 259.085938 L 311.341797 260.093750 Z " fill="rgb(0, 0, 0)" fill-opacity="1.000000" />
<path d="M 311.882812 260.093750 L 311.882812 259.085938 L 319.341797 259.085938 L 319.341797 260.093750 Z " fill="rgb(0, 0, 0)" fill-opacity="1.000000" />
<path d="M 319.882812 260.093750 L 319.882812 259.085938 L 327.341797 259.085938 L 327.341797 260.093750 Z " fill="rgb(0, 0, 0)" fill-opacity="1.000000" />
<path d="M 327.882812 260.093750 L 327.882812 259.085938 L 335.341797 259.085938 L 335.341797 260.093750 Z " fill="rgb(0, 0, 0)" fill-opacity="1.000000" />
<path d="M 335.882812 260.093750 L 335.882812 259.085938 L 343.341797 259.085938 L 343.341797 260.093750 Z " fill="rgb(0, 0, 0)" fill-opacity="1.000000" />
<path d="M 343.882812 260.093750 L 343.882812 259.085938 L 351.341797 259.085938 L 351.341797 260.093750 Z " fill="rgb(0, 0, 0)" fill-opacity="1.000000" />
<path d="M 351.882812 260.093750 L 351.882812 259.085938 L 359.341797 259.085938 L 359.341797 260.093750 Z " fill="rgb(0, 0, 0)" fill-opacity="1.000000" />
<path d="M 359.882812 260.093750 L 359.882812 259.085938 L 367.341797 259.085938 L 367.341797 260.093750 Z " fill="rgb(0, 0, 0)" fill-opacity="1.000000" />
<path d="M 367.882812 260.093750 L 367.882812 259.085938 L 375.341797 259.085938 L 375.341797 260.093750 Z " fill="rgb(0, 0, 0)" fill-opacity="1.000000" />
<path d="M 375.882812 260.093750 L 375.882812 259.085938 L 379.140625 259.085938 L 379.140625 251.328125 L 380.078125 251.328125 L 380.078125 260.093750 Z " fill="rgb(0, 0, 0)" fill-opacity="1.000000" />
<path d="M 54.216797 248.666016 Q 53.783203 248.917969 53.323242 249.043945 Q 52.863281 249.169922 52.382812 249.169922 Q 50.859375 249.169922 50.000977 248.255859 Q 49.142578 247.341797 49.142578 245.724609 Q 49.142578 244.107422 50.000977 243.193359 Q 50.859375 242.279297 52.382812 242.279297 Q 52.857422 242.279297 53.308594 242.402344 Q 53.759766 242.525391 54.216797 242.783203 L 54.216797 243.914062 Q 53.789062 243.533203 53.358398 243.363281 Q 52.927734 243.193359 52.382812 243.193359 Q 51.369141 243.193359 50.824219 243.849609 Q 50.279297 244.505859 50.279297 245.724609 Q 50.279297 246.937500 50.827148 247.596680 Q 51.375000 248.255859 52.382812 248.255859 Q 52.945312 248.255859 53.390625 248.083008 Q 53.835938 247.910156 54.216797 247.546875 Z " fill="rgb(0, 0, 0)" fill-opacity="1.000000" />
<path d="M 60.113281 245.701172 L 59.755859 245.701172 Q 58.812500 245.701172 58.334961 246.032227 Q 57.857422 246.363281 57.857422 247.019531 Q 57.857422 247.611328 58.214844 247.939453 Q 58.572266 248.267578 59.205078 248.267578 Q 60.095703 248.267578 60.605469 247.649414 Q 61.115234 247.031250 61.121094 245.941406 L 61.121094 245.701172 Z M 62.205078 245.255859 L 62.205078 249.000000 L 61.121094 249.000000 L 61.121094 248.027344 Q 60.775391 248.613281 60.250977 248.891602 Q 59.726562 249.169922 58.976562 249.169922 Q 57.974609 249.169922 57.376953 248.604492 Q 56.779297 248.039062 56.779297 247.089844 Q 56.779297 245.994141 57.514648 245.425781 Q 58.250000 244.857422 59.673828 244.857422 L 61.121094 244.857422 L 61.121094 244.687500 Q 61.115234 243.902344 60.722656 243.547852 Q 60.330078 243.193359 59.468750 243.193359 Q 58.917969 243.193359 58.355469 243.351562 Q 57.792969 243.509766 57.259766 243.814453 L 57.259766 242.736328 Q 57.857422 242.507812 58.405273 242.393555 Q 58.953125 242.279297 59.468750 242.279297 Q 60.283203 242.279297 60.860352 242.519531 Q 61.437500 242.759766 61.794922 243.240234 Q 62.017578 243.533203 62.111328 243.963867 Q 62.205078 244.394531 62.205078 245.255859 Z " fill="rgb(0, 0, 0)" fill-opacity="1.000000" />
<path d="M 70.767578 243.791016 Q 70.421875 243.521484 70.064453 243.398438 Q 69.707031 243.275391 69.279297 243.275391 Q 68.271484 243.275391 67.738281 243.908203 Q 67.205078 244.541016 67.205078 245.736328 L 67.205078 249.000000 L 66.121094 249.000000 L 66.121094 242.437500 L 67.205078 242.437500 L 67.205078 243.720703 Q 67.474609 243.023438 68.034180 242.651367 Q 68.593750 242.279297 69.361328 242.279297 Q 69.759766 242.279297 70.105469 242.378906 Q 70.451172 242.478516 70.767578 242.689453 Z " fill="rgb(0, 0, 0)" fill-opacity="1.000000" />
<path d="M 77.027344 245.666016 Q 77.027344 244.453125 76.631836 243.823242 Q 76.236328 243.193359 75.480469 243.193359 Q 74.689453 243.193359 74.273438 243.823242 Q 73.857422 244.453125 73.857422 245.666016 Q 73.857422 246.878906 74.276367 247.514648 Q 74.695312 248.150391 75.492188 248.150391 Q 76.236328 248.150391 76.631836 247.511719 Q 77.027344 246.873047 77.027344 245.666016 Z M 78.105469 248.578125 Q 78.105469 250.054688 77.408203 250.816406 Q 76.710938 251.578125 75.357422 251.578125 Q 74.912109 251.578125 74.425781 251.496094 Q 73.939453 251.414062 73.453125 251.255859 L 73.453125 250.189453 Q 74.027344 250.458984 74.496094 250.587891 Q 74.964844 250.716797 75.357422 250.716797 Q 76.230469 250.716797 76.628906 250.242188 Q 77.027344 249.767578 77.027344 248.736328 L 77.027344 248.689453 L 77.027344 247.957031 Q 76.769531 248.507812 76.324219 248.777344 Q 75.878906 249.046875 75.240234 249.046875 Q 74.091797 249.046875 73.406250 248.126953 Q 72.720703 247.207031 72.720703 245.666016 Q 72.720703 244.119141 73.406250 243.199219 Q 74.091797 242.279297 75.240234 242.279297 Q 75.873047 242.279297 76.312500 242.531250 Q 76.751953 242.783203 77.027344 243.310547 L 77.027344 242.460938 L 78.105469 242.460938 Z " fill="rgb(0, 0, 0)" fill-opacity="1.000000" />
<path d="M 83.609375 243.193359 Q 82.789062 243.193359 82.367188 243.832031 Q 81.945312 244.470703 81.945312 245.724609 Q 81.945312 246.972656 82.367188 247.614258 Q 82.789062 248.255859 83.609375 248.255859 Q 84.435547 248.255859 84.857422 247.614258 Q 85.279297 246.972656 85.279297 245.724609 Q 85.279297 244.470703 84.857422 243.832031 Q 84.435547 243.193359 83.609375 243.193359 Z M 83.609375 242.279297 Q 84.974609 242.279297 85.698242 243.164062 Q 86.421875 244.048828 86.421875 245.724609 Q 86.421875 247.406250 85.701172 248.288086 Q 84.980469 249.169922 83.609375 249.169922 Q 82.244141 249.169922 81.523438 248.288086 Q 80.802734 247.406250 80.802734 245.724609 Q 80.802734 244.048828 81.523438 243.164062 Q 82.244141 242.279297 83.609375 242.279297 Z " fill="rgb(0, 0, 0)" fill-opacity="1.000000" />
<path d="M 131.140625 252.621094 L 131.140625 237.328125 L 132.078125 237.328125 L 132.078125 252.621094 Z " fill="rgb(0, 0, 0)" fill-opacity="1.000000" />
<path d="M 143.882812 246.093750 L 143.882812 245.085938 L 151.341797 245.085938 L 151.341797 246.093750 Z " fill="rgb(0, 0, 0)" fill-opacity="1.000000" />
<path d="M 159.882812 246.093750 L 159.882812 245.085938 L 167.341797 245.085938 L 167.341797 246.093750 Z " fill="rgb(0, 0, 0)" fill-opacity="1.000000" />
<path d="M 175.882812 246.093750 L 175.882812 245.085938 L 183.341797 245.085938 L 183.341797 246.093750 Z " fill="rgb(0, 0, 0)" fill-opacity="1.000000" />
<path d="M 191.882812 246.093750 L 191.882812 245.085938 L 199.341797 245.085938 L 199.341797 246.093750 Z " fill="rgb(0, 0, 0)" fill-opacity="1.000000" />
<path d="M 207.882812 246.093750 L 207.882812 245.085938 L 215.341797 245.085938 L 215.341797 246.093750 Z " fill="rgb(0, 0, 0)" fill-opacity="1.000000" />
<path d="M 223.882812 246.093750 L 223.882812 245.085938 L 231.341797 245.085938 L 231.341797 246.093750 Z " fill="rgb(0, 0, 0)" fill-opacity="1.000000" />
<path d="M 240.035156 249.457031 L 240.035156 242.308594 L 247.189453 245.882812 Z " fill="rgb(0, 0, 0)" fill-opacity="1.000000" />
<path d="M 251.140625 252.621094 L 251.140625 237.328125 L 252.078125 237.328125 L 252.078125 252.621094 Z " fill="rgb(0, 0, 0)" fill-opacity="1.000000" />
<path d="M 308.212891 246.626953 Q 308.212891 247.353516 308.479492 247.722656 Q 308.746094 248.091797 309.267578 248.091797 L 310.527344 248.091797 L 310.527344 249.000000 L 309.162109 249.000000 Q 308.195312 249.000000 307.665039 248.381836 Q 307.134766 247.763672 307.134766 246.626953 L 307.134766 240.691406 L 305.406250 240.691406 L 305.406250 239.847656 L 308.212891 239.847656 Z " fill="rgb(0, 0, 0)" fill-opacity="1.000000" />
<path d="M 313.851562 242.460938 L 316.611328 242.460938 L 316.611328 248.162109 L 318.750000 248.162109 L 318.750000 249.000000 L 313.394531 249.000000 L 313.394531 248.162109 L 315.533203 248.162109 L 315.533203 243.298828 L 313.851562 243.298828 Z M 315.533203 239.912109 L 316.611328 239.912109 L 316.611328 241.271484 L 315.533203 241.271484 Z " fill="rgb(0, 0, 0)" fill-opacity="1.000000" />
<path d="M 325.378906 245.724609 Q 325.378906 244.470703 324.980469 243.832031 Q 324.582031 243.193359 323.802734 243.193359 Q 323.017578 243.193359 322.613281 243.834961 Q 322.208984 244.476562 322.208984 245.724609 Q 322.208984 246.966797 322.613281 247.611328 Q 323.017578 248.255859 323.802734 248.255859 Q 324.582031 248.255859 324.980469 247.617188 Q 325.378906 246.978516 325.378906 245.724609 Z M 322.208984 243.275391 Q 322.466797 242.794922 322.920898 242.537109 Q 323.375000 242.279297 323.972656 242.279297 Q 325.156250 242.279297 325.835938 243.190430 Q 326.515625 244.101562 326.515625 245.701172 Q 326.515625 247.324219 325.833008 248.247070 Q 325.150391 249.169922 323.960938 249.169922 Q 323.375000 249.169922 322.926758 248.915039 Q 322.478516 248.660156 322.208984 248.173828 L 322.208984 249.000000 L 321.130859 249.000000 L 321.130859 239.882812 L 322.208984 239.882812 Z " fill="rgb(0, 0, 0)" fill-opacity="1.000000" />
<path d="M 379.140625 252.621094 L 379.140625 237.328125 L 380.078125 237.328125 L 380.078125 252.621094 Z " fill="rgb(0, 0, 0)" fill-opacity="1.000000" />
<path d="M 7.882812 232.093750 L 7.882812 231.085938 L 15.341797 231.085938 L 15.341797 232.093750 Z " fill="rgb(0, 0, 0)" fill-opacity="1.000000" />
<path d="M 15.882812 232.093750 L 15.882812 231.085938 L 23.341797 231.085938 L 23.341797 232.093750 Z " fill="rgb(0, 0, 0)" fill-opacity="1.000000" />
<path d="M 23.882812 232.093750 L 23.882812 231.085938 L 31.341797 231.085938 L 31.341797 232.093750 Z " fill="rgb(0, 0, 0)" fill-opacity="1.000000" />
<path d="M 31.882812 232.093750 L 31.882812 231.085938 L 39.341797 231.085938 L 39.341797 232.093750 Z " fill="rgb(0, 0, 0)" fill-opacity="1.000000" />
<path d="M 39.882812 232.093750 L 39.882812 231.085938 L 47.341797 231.085938 L 47.341797 232.093750 Z " fill="rgb(0, 0, 0)" fill-opacity="1.000000" />
<path d="M 47.882812 232.093750 L 47.882812 231.085938 L 55.341797 231.085938 L 55.341797 232.093750 Z " fill="rgb(0, 0, 0)" fill-opacity="1.000000" />
<path d="M 55.882812 232.093750 L 55.882812 231.085938 L 63.341797 231.085938 L 63.341797 232.093750 Z " fill="rgb(0, 0, 0)" fill-opacity="1.000000" />
<path d="M 63.882812 232.093750 L 63.882812 231.085938 L 71.341797 231.085938 L 71.341797 232.093750 Z " fill="rgb(0, 0, 0)" fill-opacity="1.000000" />
<path d="M 71.882812 232.093750 L 71.882812 231.085938 L 79.341797 231.085938 L 79.341797 232.093750 Z " fill="rgb(0, 0, 0)" fill-opacity="1.000000" />
<path d="M 79.882812 232.093750 L 79.882812 231.085938 L 87.341797 231.085938 L 87.341797 232.093750 Z " fill="rgb(0, 0, 0)" fill-opacity="1.000000" />
<path d="M 87.882812 232.093750 L 87.882812 231.085938 L 95.341797 231.085938 L 95.341797 232.093750 Z " fill="rgb(0, 0, 0)" fill-opacity="1.000000" />
<path d="M 95.882812 232.093750 L 95.882812 231.085938 L 103.341797 231.085938 L 103.341797 232.093750 Z " fill="rgb(0, 0, 0)" fill-opacity="1.000000" />
<path d="M 103.882812 232.093750 L 103.882812 231.085938 L 111.341797 231.085938 L 111.341797 232.093750 Z " fill="rgb(0, 0, 0)" fill-opacity="1.000000" />
<path d="M 111.882812 232.093750 L 111.882812 231.085938 L 119.341797 231.085938 L 119.341797 232.093750 Z " fill="rgb(0, 0, 0)" fill-opacity="1.000000" />
<path d="M 119.882812 232.093750 L 119.882812 231.085938 L 127.341797 231.085938 L 127.341797 232.093750 Z " fill="rgb(0, 0, 0)" fill-opacity="1.000000" />
<path d="M 131.140625 238.621094 L 131.140625 232.093750 L 127.882812 232.093750 L 127.882812 231.085938 L 132.078125 231.085938 L 132.078125 238.621094 Z " fill="rgb(0, 0, 0)" fill-opacity="1.000000" />
<path d="M 251.140625 238.621094 L 251.140625 231.085938 L 255.341797 231.085938 L 255.341797 232.093750 L 252.078125 232.093750 L 252.078125 238.621094 Z " fill="rgb(0, 0, 0)" fill-opacity="1.000000" />
<path d="M 255.882812 232.093750 L 255.882812 231.085938 L 263.341797 231.085938 L 263.341797 232.093750 Z " fill="rgb(0, 0, 0)" fill-opacity="1.000000" />
<path d="M 263.882812 232.093750 L 263.882812 231.085938 L 271.341797 231.085938 L 271.341797 232.093750 Z " fill="rgb(0, 0, 0)" fill-opacity="1.000000" />
<path d="M 271.882812 232.093750 L 271.882812 231.085938 L 279.341797 231.085938 L 279.341797 232.093750 Z " fill="rgb(0, 0, 0)" fill-opacity="1.000000" />
<path d="M 279.882812 232.093750 L 279.882812 231.085938 L 287.341797 231.085938 L 287.341797 232.093750 Z " fill="rgb(0, 0, 0)" fill-opacity="1.000000" />
<path d="M 287.882812 232.093750 L 287.882812 231.085938 L 295.341797 231.085938 L 295.341797 232.093750 Z " fill="rgb(0, 0, 0)" fill-opacity="1.000000" />
<path d="M 295.882812 232.093750 L 295.882812 231.085938 L 303.341797 231.085938 L 303.341797 232.093750 Z " fill="rgb(0, 0, 0)" fill-opacity="1.000000" />
<path d="M 303.882812 232.093750 L 303.882812 231.085938 L 311.341797 231.085938 L 311.341797 232.093750 Z " fill="rgb(0, 0, 0)" fill-opacity="1.000000" />
<path d="M 311.882812 232.093750 L 311.882812 231.085938 L 319.341797 231.085938 L 319.341797 232.093750 Z " fill="rgb(0, 0, 0)" fill-opacity="1.000000" />
<path d="M 319.882812 232.093750 L 319.882812 231.085938 L 327.341797 231.085938 L 327.341797 232.093750 Z " fill="rgb(0, 0, 0)" fill-opacity="1.000000" />
<path d="M 327.882812 232.093750 L 327.882812 231.085938 L 335.341797 231.085938 L 335.341797 232.093750 Z " fill="rgb(0, 0, 0)" fill-opacity="1.000000" />
<path d="M 335.882812 232.093750 L 335.882812 231.085938 L 343.341797 231.085938 L 343.341797 232.093750 Z " fill="rgb(0, 0, 0)" fill-opacity="1.000000" />
<path d="M 343.882812 232.093750 L 343.882812 231.085938 L 351.341797 231.085938 L 351.341797 232.093750 Z " fill="rgb(0, 0, 0)" fill-opacity="1.000000" />
<path d="M 351.882812 232.093750 L 351.882812 231.085938 L 359.341797 231.085938 L 359.341797 232.093750 Z " fill="rgb(0, 0, 0)" fill-opacity="1.000000" />
<path d="M 359.882812 232.093750 L 359.882812 231.085938 L 367.341797 231.085938 L 367.341797 232.093750 Z " fill="rgb(0, 0, 0)" fill-opacity="1.000000" />
<path d="M 367.882812 232.093750 L 367.882812 231.085938 L 375.341797 231.085938 L 375.341797 232.093750 Z " fill="rgb(0, 0, 0)" fill-opacity="1.000000" />
<path d="M 379.140625 238.621094 L 379.140625 232.093750 L 375.882812 232.093750 L 375.882812 231.085938 L 380.078125 231.085938 L 380.078125 238.621094 Z " fill="rgb(0, 0, 0)" fill-opacity="1.000000" />
<path d="M 163.140625 126.621094 L 163.140625 119.085938 L 167.341797 119.085938 L 167.341797 120.093750 L 164.078125 120.093750 L 164.078125 126.621094 Z " fill="rgb(0, 0, 0)" fill-opacity="1.000000" />
<path d="M 163.140625 140.621094 L 163.140625 125.328125 L 164.078125 125.328125 L 164.078125 140.621094 Z " fill="rgb(0, 0, 0)" fill-opacity="1.000000" />
<path d="M 163.140625 148.093750 L 163.140625 139.328125 L 164.078125 139.328125 L 164.078125 147.085938 L 167.341797 147.085938 L 167.341797 148.093750 Z " fill="rgb(0, 0, 0)" fill-opacity="1.000000" />
<path d="M 224.035156 165.457031 L 227.609375 158.308594 L 231.189453 165.457031 Z " fill="rgb(0, 0, 0)" fill-opacity="1.000000" />
<path d="M 227.140625 190.093750 L 227.140625 181.328125 L 228.078125 181.328125 L 228.078125 189.085938 L 231.341797 189.085938 L 231.341797 190.093750 Z " fill="rgb(0, 0, 0)" fill-opacity="1.000000" />
<path d="M 315.140625 224.621094 L 315.140625 209.328125 L 316.078125 209.328125 L 316.078125 224.621094 Z " fill="rgb(0, 0, 0)" fill-opacity="1.000000" />
<path d="M 239.882812 190.093750 L 239.882812 189.085938 L 247.341797 189.085938 L 247.341797 190.093750 Z " fill="rgb(0, 0, 0)" fill-opacity="1.000000" />
<path d="M 255.882812 190.093750 L 255.882812 189.085938 L 263.341797 189.085938 L 263.341797 190.093750 Z " fill="rgb(0, 0, 0)" fill-opacity="1.000000" />
<path d="M 271.882812 190.093750 L 271.882812 189.085938 L 279.341797 189.085938 L 279.341797 190.093750 Z " fill="rgb(0, 0, 0)" fill-opacity="1.000000" />
<path d="M 287.882812 190.093750 L 287.882812 189.085938 L 295.341797 189.085938 L 295.341797 190.093750 Z " fill="rgb(0, 0, 0)" fill-opacity="1.000000" />
<path d="M 303.882812 190.093750 L 303.882812 189.085938 L 311.341797 189.085938 L 311.341797 190.093750 Z " fill="rgb(0, 0, 0)" fill-opacity="1.000000" />
<path d="M 315.140625 196.621094 L 315.140625 181.328125 L 316.078125 181.328125 L 316.078125 196.621094 Z " fill="rgb(0, 0, 0)" fill-opacity="1.000000" />
<path d="M 319.882812 190.093750 L 319.882812 189.085938 L 327.341797 189.085938 L 327.341797 190.093750 Z " fill="rgb(0, 0, 0)" fill-opacity="1.000000" />
<path d="M 335.882812 190.093750 L 335.882812 189.085938 L 343.341797 189.085938 L 343.341797 190.093750 Z " fill="rgb(0, 0, 0)" fill-opacity="1.000000" />
<path d="M 351.882812 190.093750 L 351.882812 189.085938 L 359.341797 189.085938 L 359.341797 190.093750 Z " fill="rgb(0, 0, 0)" fill-opacity="1.000000" />
<path d="M 367.882812 190.093750 L 367.882812 189.085938 L 375.341797 189.085938 L 375.341797 190.093750 Z " fill="rgb(0, 0, 0)" fill-opacity="1.000000" />
<path d="M 383.882812 190.093750 L 383.882812 189.085938 L 391.341797 189.085938 L 391.341797 190.093750 Z " fill="rgb(0, 0, 0)" fill-opacity="1.000000" />
<path d="M 399.882812 190.093750 L 399.882812 189.085938 L 403.140625 189.085938 L 403.140625 181.328125 L 404.078125 181.328125 L 404.078125 189.085938 L 407.341797 189.085938 L 407.341797 190.093750 Z " fill="rgb(0, 0, 0)" fill-opacity="1.000000" />
<path d="M 415.882812 190.093750 L 415.882812 189.085938 L 423.341797 189.085938 L 423.341797 190.093750 Z " fill="rgb(0, 0, 0)" fill-opacity="1.000000" />
<path d="M 431.882812 190.093750 L 431.882812 189.085938 L 439.341797 189.085938 L 439.341797 190.093750 Z " fill="rgb(0, 0, 0)" fill-opacity="1.000000" />
<path d="M 447.882812 190.093750 L 447.882812 189.085938 L 455.341797 189.085938 L 455.341797 190.093750 Z " fill="rgb(0, 0, 0)" fill-opacity="1.000000" />
<path d="M 463.882812 190.093750 L 463.882812 189.085938 L 471.341797 189.085938 L 471.341797 190.093750 Z " fill="rgb(0, 0, 0)" fill-opacity="1.000000" />
<path d="M 479.882812 190.093750 L 479.882812 189.085938 L 487.341797 189.085938 L 487.341797 190.093750 Z " fill="rgb(0, 0, 0)" fill-opacity="1.000000" />
<path d="M 495.882812 190.093750 L 495.882812 189.085938 L 503.341797 189.085938 L 503.341797 190.093750 Z " fill="rgb(0, 0, 0)" fill-opacity="1.000000" />
<path d="M 511.882812 190.093750 L 511.882812 189.085938 L 519.341797 189.085938 L 519.341797 190.093750 Z " fill="rgb(0, 0, 0)" fill-opacity="1.000000" />
<path d="M 527.882812 190.093750 L 527.882812 189.085938 L 535.341797 189.085938 L 535.341797 190.093750 Z " fill="rgb(0, 0, 0)" fill-opacity="1.000000" />
<path d="M 543.882812 190.093750 L 543.882812 189.085938 L 551.341797 189.085938 L 551.341797 190.093750 Z " fill="rgb(0, 0, 0)" fill-opacity="1.000000" />
<path d="M 559.882812 190.093750 L 559.882812 189.085938 L 563.140625 189.085938 L 563.140625 181.328125 L 564.078125 181.328125 L 564.078125 190.093750 Z " fill="rgb(0, 0, 0)" fill-opacity="1.000000" />
<path d="M 315.140625 168.621094 L 315.140625 153.328125 L 316.078125 153.328125 L 316.078125 168.621094 Z " fill="rgb(0, 0, 0)" fill-opacity="1.000000" />
<path d="M 400.035156 165.457031 L 403.609375 158.308594 L 407.189453 165.457031 Z " fill="rgb(0, 0, 0)" fill-opacity="1.000000" />
<path d="M 560.035156 165.457031 L 563.609375 158.308594 L 567.189453 165.457031 Z " fill="rgb(0, 0, 0)" fill-opacity="1.000000" />
<path d="M 167.882812 148.093750 L 167.882812 147.085938 L 175.341797 147.085938 L 175.341797 148.093750 Z " fill="rgb(0, 0, 0)" fill-opacity="1.000000" />
<path d="M 175.882812 148.093750 L 175.882812 147.085938 L 183.341797 147.085938 L 183.341797 148.093750 Z " fill="rgb(0, 0, 0)" fill-opacity="1.000000" />
<path d="M 183.882812 148.093750 L 183.882812 147.085938 L 191.341797 147.085938 L 191.341797 148.093750 Z " fill="rgb(0, 0, 0)" fill-opacity="1.000000" />
<path d="M 191.882812 148.093750 L 191.882812 147.085938 L 199.341797 147.085938 L 199.341797 148.093750 Z " fill="rgb(0, 0, 0)" fill-opacity="1.000000" />
<path d="M 199.882812 148.093750 L 199.882812 147.085938 L 207.341797 147.085938 L 207.341797 148.093750 Z " fill="rgb(0, 0, 0)" fill-opacity="1.000000" />
<path d="M 207.882812 148.093750 L 207.882812 147.085938 L 215.341797 147.085938 L 215.341797 148.093750 Z " fill="rgb(0, 0, 0)" fill-opacity="1.000000" />
<path d="M 215.882812 148.093750 L 215.882812 147.085938 L 223.341797 147.085938 L 223.341797 148.093750 Z " fill="rgb(0, 0, 0)" fill-opacity="1.000000" />
<path d="M 223.882812 148.093750 L 223.882812 147.085938 L 231.341797 147.085938 L 231.341797 148.093750 Z " fill="rgb(0, 0, 0)" fill-opacity="1.000000" />
<path d="M 231.882812 148.093750 L 231.882812 147.085938 L 239.341797 147.085938 L 239.341797 148.093750 Z " fill="rgb(0, 0, 0)" fill-opacity="1.000000" />
<path d="M 239.882812 148.093750 L 239.882812 147.085938 L 247.341797 147.085938 L 247.341797 148.093750 Z " fill="rgb(0, 0, 0)" fill-opacity="1.000000" />
<path d="M 247.882812 148.093750 L 247.882812 147.085938 L 255.341797 147.085938 L 255.341797 148.093750 Z " fill="rgb(0, 0, 0)" fill-opacity="1.000000" />
<path d="M 255.882812 148.093750 L 255.882812 147.085938 L 263.341797 147.085938 L 263.341797 148.093750 Z " fill="rgb(0, 0, 0)" fill-opacity="1.000000" />
<path d="M 263.882812 148.093750 L 263.882812 147.085938 L 271.341797 147.085938 L 271.341797 148.093750 Z " fill="rgb(0, 0, 0)" fill-opacity="1.000000" />
<path d="M 271.882812 148.093750 L 271.882812 147.085938 L 279.341797 147.085938 L 279.341797 148.093750 Z " fill="rgb(0, 0, 0)" fill-opacity="1.000000" />
<path d="M 279.882812 148.093750 L 279.882812 147.085938 L 287.341797 147.085938 L 287.341797 148.093750 Z " fill="rgb(0, 0, 0)" fill-opacity="1.000000" />
<path d="M 287.882812 148.093750 L 287.882812 147.085938 L 291.140625 147.085938 L 291.140625 139.328125 L 292.078125 139.328125 L 292.078125 148.093750 Z " fill="rgb(0, 0, 0)" fill-opacity="1.000000" />
<path d="M 339.140625 148.093750 L 339.140625 139.328125 L 340.078125 139.328125 L 340.078125 147.085938 L 343.341797 147.085938 L 343.341797 148.093750 Z " fill="rgb(0, 0, 0)" fill-opacity="1.000000" />
<path d="M 343.882812 148.093750 L 343.882812 147.085938 L 351.341797 147.085938 L 351.341797 148.093750 Z " fill="rgb(0, 0, 0)" fill-opacity="1.000000" />
<path d="M 351.882812 148.093750 L 351.882812 147.085938 L 359.341797 147.085938 L 359.341797 148.093750 Z " fill="rgb(0, 0, 0)" fill-opacity="1.000000" />
<path d="M 359.882812 148.093750 L 359.882812 147.085938 L 367.341797 147.085938 L 367.341797 148.093750 Z " fill="rgb(0, 0, 0)" fill-opacity="1.000000" />
<path d="M 367.882812 148.093750 L 367.882812 147.085938 L 375.341797 147.085938 L 375.341797 148.093750 Z " fill="rgb(0, 0, 0)" fill-opacity="1.000000" />
<path d="M 375.882812 148.093750 L 375.882812 147.085938 L 383.341797 147.085938 L 383.341797 148.093750 Z " fill="rgb(0, 0, 0)" fill-opacity="1.000000" />
<path d="M 383.882812 148.093750 L 383.882812 147.085938 L 391.341797 147.085938 L 391.341797 148.093750 Z " fill="rgb(0, 0, 0)" fill-opacity="1.000000" />
<path d="M 391.882812 148.093750 L 391.882812 147.085938 L 399.341797 147.085938 L 399.341797 148.093750 Z " fill="rgb(0, 0, 0)" fill-opacity="1.000000" />
<path d="M 399.882812 148.093750 L 399.882812 147.085938 L 407.341797 147.085938 L 407.341797 148.093750 Z " fill="rgb(0, 0, 0)" fill-opacity="1.000000" />
<path d="M 407.882812 148.093750 L 407.882812 147.085938 L 415.341797 147.085938 L 415.341797 148.093750 Z " fill="rgb(0, 0, 0)" fill-opacity="1.000000" />
<path d="M 415.882812 148.093750 L 415.882812 147.085938 L 423.341797 147.085938 L 423.341797 148.093750 Z " fill="rgb(0, 0, 0)" fill-opacity="1.000000" />
<path d="M 423.882812 148.093750 L 423.882812 147.085938 L 431.341797 147.085938 L 431.341797 148.093750 Z " fill="rgb(0, 0, 0)" fill-opacity="1.000000" />
<path d="M 431.882812 148.093750 L 431.882812 147.085938 L 439.341797 147.085938 L 439.341797 148.093750 Z " fill="rgb(0, 0, 0)" fill-opacity="1.000000" />
<path d="M 439.882812 148.093750 L 439.882812 147.085938 L 447.341797 147.085938 L 447.341797 148.093750 Z " fill="rgb(0, 0, 0)" fill-opacity="1.000000" />
<path d="M 447.882812 148.093750 L 447.882812 147.085938 L 455.341797 147.085938 L 455.341797 148.093750 Z " fill="rgb(0, 0, 0)" fill-opacity="1.000000" />
<path d="M 455.882812 148.093750 L 455.882812 147.085938 L 463.341797 147.085938 L 463.341797 148.093750 Z " fill="rgb(0, 0, 0)" fill-opacity="1.000000" />
<path d="M 463.882812 148.093750 L 463.882812 147.085938 L 467.140625 147.085938 L 467.140625 139.328125 L 468.078125 139.328125 L 468.078125 148.093750 Z " fill="rgb(0, 0, 0)" fill-opacity="1.000000" />
<path d="M 499.140625 148.093750 L 499.140625 139.328125 L 500.078125 139.328125 L 500.078125 147.085938 L 503.341797 147.085938 L 503.341797 148.093750 Z " fill="rgb(0, 0, 0)" fill-opacity="1.000000" />
<path d="M 503.882812 148.093750 L 503.882812 147.085938 L 511.341797 147.085938 L 511.341797 148.093750 Z " fill="rgb(0, 0, 0)" fill-opacity="1.000000" />
<path d="M 511.882812 148.093750 L 511.882812 147.085938 L 519.341797 147.085938 L 519.341797 148.093750 Z " fill="rgb(0, 0, 0)" fill-opacity="1.000000" />
<path d="M 519.882812 148.093750 L 519.882812 147.085938 L 527.341797 147.085938 L 527.341797 148.093750 Z " fill="rgb(0, 0, 0)" fill-opacity="1.000000" />
<path d="M 527.882812 148.093750 L 527.882812 147.085938 L 535.341797 147.085938 L 535.341797 148.093750 Z " fill="rgb(0, 0, 0)" fill-opacity="1.000000" />
<path d="M 535.882812 148.093750 L 535.882812 147.085938 L 543.341797 147.085938 L 543.341797 148.093750 Z " fill="rgb(0, 0, 0)" fill-opacity="1.000000" />
<path d="M 543.882812 148.093750 L 543.882812 147.085938 L 551.341797 147.085938 L 551.341797 148.093750 Z " fill="rgb(0, 0, 0)" fill-opacity="1.000000" />
<path d="M 551.882812 148.093750 L 551.882812 147.085938 L 559.341797 147.085938 L 559.341797 148.093750 Z " fill="rgb(0, 0, 0)" fill-opacity="1.000000" />
<path d="M 559.882812 148.093750 L 559.882812 147.085938 L 567.341797 147.085938 L 567.341797 148.093750 Z " fill="rgb(0, 0, 0)" fill-opacity="1.000000" />
<path d="M 567.882812 148.093750 L 567.882812 147.085938 L 575.341797 147.085938 L 575.341797 148.093750 Z " fill="rgb(0, 0, 0)" fill-opacity="1.000000" />
<path d="M 575.882812 148.093750 L 575.882812 147.085938 L 583.341797 147.085938 L 583.341797 148.093750 Z " fill="rgb(0, 0, 0)" fill-opacity="1.000000" />
<path d="M 583.882812 148.093750 L 583.882812 147.085938 L 591.341797 147.085938 L 591.341797 148.093750 Z " fill="rgb(0, 0, 0)" fill-opacity="1.000000" />
<path d="M 591.882812 148.093750 L 591.882812 147.085938 L 599.341797 147.085938 L 599.341797 148.093750 Z " fill="rgb(0, 0, 0)" fill-opacity="1.000000" />
<path d="M 599.882812 148.093750 L 599.882812 147.085938 L 607.341797 147.085938 L 607.341797 148.093750 Z " fill="rgb(0, 0, 0)" fill-opacity="1.000000" />
<path d="M 607.882812 148.093750 L 607.882812 147.085938 L 615.341797 147.085938 L 615.341797 148.093750 Z " fill="rgb(0, 0, 0)" fill-opacity="1.000000" />
<path d="M 615.882812 148.093750 L 615.882812 147.085938 L 623.341797 147.085938 L 623.341797 148.093750 Z " fill="rgb(0, 0, 0)" fill-opacity="1.000000" />
<path d="M 623.882812 148.093750 L 623.882812 147.085938 L 627.140625 147.085938 L 627.140625 139.328125 L 628.078125 139.328125 L 628.078125 148.093750 Z " fill="rgb(0, 0, 0)" fill-opacity="1.000000" />
<path d="M 211.515625 137.117188 L 211.515625 131.275391 L 209.658203 131.275391 L 209.658203 130.437500 L 212.593750 130.437500 L 212.593750 137.117188 Q 212.593750 138.259766 212.069336 138.877930 Q 211.544922 139.496094 210.578125 139.496094 L 209.089844 139.496094 L 209.089844 138.582031 L 210.460938 138.582031 Q 210.988281 138.582031 211.251953 138.215820 Q 211.515625 137.849609 211.515625 137.117188 Z M 211.515625 127.882812 L 212.593750 127.882812 L 212.593750 129.248047 L 211.515625 129.248047 Z " fill="rgb(0, 0, 0)" fill-opacity="1.000000" />
<path d="M 221.701172 130.666016 L 221.701172 131.720703 Q 221.238281 131.451172 220.769531 131.316406 Q 220.300781 131.181641 219.814453 131.181641 Q 219.082031 131.181641 218.721680 131.418945 Q 218.361328 131.656250 218.361328 132.142578 Q 218.361328 132.582031 218.630859 132.798828 Q 218.900391 133.015625 219.972656 133.220703 L 220.406250 133.302734 Q 221.208984 133.455078 221.622070 133.912109 Q 222.035156 134.369141 222.035156 135.101562 Q 222.035156 136.074219 221.343750 136.622070 Q 220.652344 137.169922 219.421875 137.169922 Q 218.935547 137.169922 218.402344 137.067383 Q 217.869141 136.964844 217.248047 136.759766 L 217.248047 135.646484 Q 217.851562 135.957031 218.402344 136.112305 Q 218.953125 136.267578 219.445312 136.267578 Q 220.160156 136.267578 220.552734 135.977539 Q 220.945312 135.687500 220.945312 135.166016 Q 220.945312 134.416016 219.509766 134.128906 L 219.462891 134.117188 L 219.058594 134.035156 Q 218.126953 133.853516 217.699219 133.422852 Q 217.271484 132.992188 217.271484 132.248047 Q 217.271484 131.304688 217.910156 130.791992 Q 218.548828 130.279297 219.732422 130.279297 Q 220.259766 130.279297 220.746094 130.375977 Q 221.232422 130.472656 221.701172 130.666016 Z " fill="rgb(0, 0, 0)" fill-opacity="1.000000" />
<path d="M 227.609375 131.193359 Q 226.789062 131.193359 226.367188 131.832031 Q 225.945312 132.470703 225.945312 133.724609 Q 225.945312 134.972656 226.367188 135.614258 Q 226.789062 136.255859 227.609375 136.255859 Q 228.435547 136.255859 228.857422 135.614258 Q 229.279297 134.972656 229.279297 133.724609 Q 229.279297 132.470703 228.857422 131.832031 Q 228.435547 131.193359 227.609375 131.193359 Z M 227.609375 130.279297 Q 228.974609 130.279297 229.698242 131.164062 Q 230.421875 132.048828 230.421875 133.724609 Q 230.421875 135.406250 229.701172 136.288086 Q 228.980469 137.169922 227.609375 137.169922 Q 226.244141 137.169922 225.523438 136.288086 Q 224.802734 135.406250 224.802734 133.724609 Q 224.802734 132.048828 225.523438 131.164062 Q 226.244141 130.279297 227.609375 130.279297 Z " fill="rgb(0, 0, 0)" fill-opacity="1.000000" />
<path d="M 238.158203 132.933594 L 238.158203 137.000000 L 237.074219 137.000000 L 237.074219 132.933594 Q 237.074219 132.048828 236.763672 131.632812 Q 236.453125 131.216797 235.791016 131.216797 Q 235.035156 131.216797 234.627930 131.752930 Q 234.220703 132.289062 234.220703 133.291016 L 234.220703 137.000000 L 233.142578 137.000000 L 233.142578 130.437500 L 234.220703 130.437500 L 234.220703 131.421875 Q 234.507812 130.859375 235.000000 130.569336 Q 235.492188 130.279297 236.166016 130.279297 Q 237.167969 130.279297 237.663086 130.938477 Q 238.158203 131.597656 238.158203 132.933594 Z " fill="rgb(0, 0, 0)" fill-opacity="1.000000" />
<path d="M 291.140625 140.621094 L 291.140625 125.328125 L 292.078125 125.328125 L 292.078125 140.621094 Z " fill="rgb(0, 0, 0)" fill-opacity="1.000000" />
<path d="M 315.140625 140.621094 L 315.140625 125.328125 L 316.078125 125.328125 L 316.078125 140.621094 Z " fill="rgb(0, 0, 0)" fill-opacity="1.000000" />
<path d="M 339.140625 140.621094 L 339.140625 125.328125 L 340.078125 125.328125 L 340.078125 140.621094 Z " fill="rgb(0, 0, 0)" fill-opacity="1.000000" />
<path d="M 381.701172 130.666016 L 381.701172 131.720703 Q 381.238281 131.451172 380.769531 131.316406 Q 380.300781 131.181641 379.814453 131.181641 Q 379.082031 131.181641 378.721680 131.418945 Q 378.361328 131.656250 378.361328 132.142578 Q 378.361328 132.582031 378.630859 132.798828 Q 378.900391 133.015625 379.972656 133.220703 L 380.406250 133.302734 Q 381.208984 133.455078 381.622070 133.912109 Q 382.035156 134.369141 382.035156 135.101562 Q 382.035156 136.074219 381.343750 136.622070 Q 380.652344 137.169922 379.421875 137.169922 Q 378.935547 137.169922 378.402344 137.067383 Q 377.869141 136.964844 377.248047 136.759766 L 377.248047 135.646484 Q 377.851562 135.957031 378.402344 136.112305 Q 378.953125 136.267578 379.445312 136.267578 Q 380.160156 136.267578 380.552734 135.977539 Q 380.945312 135.687500 380.945312 135.166016 Q 380.945312 134.416016 379.509766 134.128906 L 379.462891 134.117188 L 379.058594 134.035156 Q 378.126953 133.853516 377.699219 133.422852 Q 377.271484 132.992188 377.271484 132.248047 Q 377.271484 131.304688 377.910156 130.791992 Q 378.548828 130.279297 379.732422 130.279297 Q 380.259766 130.279297 380.746094 130.375977 Q 381.232422 130.472656 381.701172 130.666016 Z " fill="rgb(0, 0, 0)" fill-opacity="1.000000" />
<path d="M 387.960938 131.105469 Q 388.160156 130.683594 388.467773 130.481445 Q 388.775391 130.279297 389.208984 130.279297 Q 390.000000 130.279297 390.325195 130.891602 Q 390.650391 131.503906 390.650391 133.197266 L 390.650391 137.000000 L 389.666016 137.000000 L 389.666016 133.244141 Q 389.666016 131.855469 389.510742 131.518555 Q 389.355469 131.181641 388.945312 131.181641 Q 388.476562 131.181641 388.303711 131.541992 Q 388.130859 131.902344 388.130859 133.244141 L 388.130859 137.000000 L 387.146484 137.000000 L 387.146484 133.244141 Q 387.146484 131.837891 386.979492 131.509766 Q 386.812500 131.181641 386.378906 131.181641 Q 385.951172 131.181641 385.784180 131.541992 Q 385.617188 131.902344 385.617188 133.244141 L 385.617188 137.000000 L 384.638672 137.000000 L 384.638672 130.437500 L 385.617188 130.437500 L 385.617188 131.000000 Q 385.810547 130.648438 386.100586 130.463867 Q 386.390625 130.279297 386.759766 130.279297 Q 387.205078 130.279297 387.500977 130.484375 Q 387.796875 130.689453 387.960938 131.105469 Z " fill="rgb(0, 0, 0)" fill-opacity="1.000000" />
<path d="M 393.851562 130.460938 L 396.611328 130.460938 L 396.611328 136.162109 L 398.750000 136.162109 L 398.750000 137.000000 L 393.394531 137.000000 L 393.394531 136.162109 L 395.533203 136.162109 L 395.533203 131.298828 L 393.851562 131.298828 Z M 395.533203 127.912109 L 396.611328 127.912109 L 396.611328 129.271484 L 395.533203 129.271484 Z " fill="rgb(0, 0, 0)" fill-opacity="1.000000" />
<path d="M 403.597656 128.574219 L 403.597656 130.437500 L 406.046875 130.437500 L 406.046875 131.275391 L 403.597656 131.275391 L 403.597656 134.837891 Q 403.597656 135.564453 403.873047 135.851562 Q 404.148438 136.138672 404.833984 136.138672 L 406.046875 136.138672 L 406.046875 137.000000 L 404.728516 137.000000 Q 403.515625 137.000000 403.017578 136.513672 Q 402.519531 136.027344 402.519531 134.837891 L 402.519531 131.275391 L 400.767578 131.275391 L 400.767578 130.437500 L 402.519531 130.437500 L 402.519531 128.574219 Z " fill="rgb(0, 0, 0)" fill-opacity="1.000000" />
<path d="M 414.158203 132.933594 L 414.158203 137.000000 L 413.074219 137.000000 L 413.074219 132.933594 Q 413.074219 132.048828 412.763672 131.632812 Q 412.453125 131.216797 411.791016 131.216797 Q 411.035156 131.216797 410.627930 131.752930 Q 410.220703 132.289062 410.220703 133.291016 L 410.220703 137.000000 L 409.142578 137.000000 L 409.142578 127.882812 L 410.220703 127.882812 L 410.220703 131.421875 Q 410.507812 130.859375 411.000000 130.569336 Q 411.492188 130.279297 412.166016 130.279297 Q 413.167969 130.279297 413.663086 130.938477 Q 414.158203 131.597656 414.158203 132.933594 Z " fill="rgb(0, 0, 0)" fill-opacity="1.000000" />
<path d="M 421.027344 134.890625 Q 420.757812 135.576172 420.341797 136.695312 Q 419.761719 138.242188 419.562500 138.582031 Q 419.292969 139.039062 418.888672 139.267578 Q 418.484375 139.496094 417.945312 139.496094 L 417.078125 139.496094 L 417.078125 138.593750 L 417.716797 138.593750 Q 418.191406 138.593750 418.460938 138.318359 Q 418.730469 138.042969 419.146484 136.894531 L 416.609375 130.437500 L 417.751953 130.437500 L 419.697266 135.570312 L 421.613281 130.437500 L 422.755859 130.437500 Z " fill="rgb(0, 0, 0)" fill-opacity="1.000000" />
<path d="M 467.140625 140.621094 L 467.140625 125.328125 L 468.078125 125.328125 L 468.078125 140.621094 Z " fill="rgb(0, 0, 0)" fill-opacity="1.000000" />
<path d="M 499.140625 140.621094 L 499.140625 125.328125 L 500.078125 125.328125 L 500.078125 140.621094 Z " fill="rgb(0, 0, 0)" fill-opacity="1.000000" />
<path d="M 539.609375 131.193359 Q 538.789062 131.193359 538.367188 131.832031 Q 537.945312 132.470703 537.945312 133.724609 Q 537.945312 134.972656 538.367188 135.614258 Q 538.789062 136.255859 539.609375 136.255859 Q 540.435547 136.255859 540.857422 135.614258 Q 541.279297 134.972656 541.279297 133.724609 Q 541.279297 132.470703 540.857422 131.832031 Q 540.435547 131.193359 539.609375 131.193359 Z M 539.609375 130.279297 Q 540.974609 130.279297 541.698242 131.164062 Q 542.421875 132.048828 542.421875 133.724609 Q 542.421875 135.406250 541.701172 136.288086 Q 540.980469 137.169922 539.609375 137.169922 Q 538.244141 137.169922 537.523438 136.288086 Q 536.802734 135.406250 536.802734 133.724609 Q 536.802734 132.048828 537.523438 131.164062 Q 538.244141 130.279297 539.609375 130.279297 Z " fill="rgb(0, 0, 0)" fill-opacity="1.000000" />
<path d="M 546.197266 136.173828 L 546.197266 139.496094 L 545.113281 139.496094 L 545.113281 130.437500 L 546.197266 130.437500 L 546.197266 131.275391 Q 546.466797 130.789062 546.915039 130.534180 Q 547.363281 130.279297 547.949219 130.279297 Q 549.138672 130.279297 549.815430 131.199219 Q 550.492188 132.119141 550.492188 133.748047 Q 550.492188 135.347656 549.812500 136.258789 Q 549.132812 137.169922 547.949219 137.169922 Q 547.351562 137.169922 546.903320 136.915039 Q 546.455078 136.660156 546.197266 136.173828 Z M 549.361328 133.724609 Q 549.361328 132.470703 548.965820 131.832031 Q 548.570312 131.193359 547.791016 131.193359 Q 547.005859 131.193359 546.601562 131.834961 Q 546.197266 132.476562 546.197266 133.724609 Q 546.197266 134.966797 546.601562 135.611328 Q 547.005859 136.255859 547.791016 136.255859 Q 548.570312 136.255859 548.965820 135.617188 Q 549.361328 134.978516 549.361328 133.724609 Z " fill="rgb(0, 0, 0)" fill-opacity="1.000000" />
<path d="M 558.562500 133.179688 L 558.562500 133.707031 L 553.892578 133.707031 L 553.892578 133.742188 Q 553.845703 135.083984 554.405273 135.669922 Q 554.964844 136.255859 555.984375 136.255859 Q 556.500000 136.255859 557.062500 136.091797 Q 557.625000 135.927734 558.263672 135.593750 L 558.263672 136.666016 Q 557.648438 136.917969 557.077148 137.043945 Q 556.505859 137.169922 555.972656 137.169922 Q 554.443359 137.169922 553.582031 136.252930 Q 552.720703 135.335938 552.720703 133.724609 Q 552.720703 132.154297 553.564453 131.216797 Q 554.408203 130.279297 555.814453 130.279297 Q 557.068359 130.279297 557.791992 131.128906 Q 558.515625 131.978516 558.562500 133.179688 Z M 557.484375 132.863281 Q 557.414062 132.183594 556.989258 131.688477 Q 556.564453 131.193359 555.767578 131.193359 Q 554.988281 131.193359 554.484375 131.708984 Q 553.980469 132.224609 553.933594 132.869141 Z " fill="rgb(0, 0, 0)" fill-opacity="1.000000" />
<path d="M 566.158203 132.933594 L 566.158203 137.000000 L 565.074219 137.000000 L 565.074219 132.933594 Q 565.074219 132.048828 564.763672 131.632812 Q 564.453125 131.216797 563.791016 131.216797 Q 563.035156 131.216797 562.627930 131.752930 Q 562.220703 132.289062 562.220703 133.291016 L 562.220703 137.000000 L 561.142578 137.000000 L 561.142578 130.437500 L 562.220703 130.437500 L 562.220703 131.421875 Q 562.507812 130.859375 563.000000 130.569336 Q 563.492188 130.279297 564.166016 130.279297 Q 565.167969 130.279297 565.663086 130.938477 Q 566.158203 131.597656 566.158203 132.933594 Z " fill="rgb(0, 0, 0)" fill-opacity="1.000000" />
<path d="M 572.113281 133.701172 L 571.755859 133.701172 Q 570.812500 133.701172 570.334961 134.032227 Q 569.857422 134.363281 569.857422 135.019531 Q 569.857422 135.611328 570.214844 135.939453 Q 570.572266 136.267578 571.205078 136.267578 Q 572.095703 136.267578 572.605469 135.649414 Q 573.115234 135.031250 573.121094 133.941406 L 573.121094 133.701172 Z M 574.205078 133.255859 L 574.205078 137.000000 L 573.121094 137.000000 L 573.121094 136.027344 Q 572.775391 136.613281 572.250977 136.891602 Q 571.726562 137.169922 570.976562 137.169922 Q 569.974609 137.169922 569.376953 136.604492 Q 568.779297 136.039062 568.779297 135.089844 Q 568.779297 133.994141 569.514648 133.425781 Q 570.250000 132.857422 571.673828 132.857422 L 573.121094 132.857422 L 573.121094 132.687500 Q 573.115234 131.902344 572.722656 131.547852 Q 572.330078 131.193359 571.468750 131.193359 Q 570.917969 131.193359 570.355469 131.351562 Q 569.792969 131.509766 569.259766 131.814453 L 569.259766 130.736328 Q 569.857422 130.507812 570.405273 130.393555 Q 570.953125 130.279297 571.468750 130.279297 Q 572.283203 130.279297 572.860352 130.519531 Q 573.437500 130.759766 573.794922 131.240234 Q 574.017578 131.533203 574.111328 131.963867 Q 574.205078 132.394531 574.205078 133.255859 Z " fill="rgb(0, 0, 0)" fill-opacity="1.000000" />
<path d="M 578.197266 136.173828 L 578.197266 139.496094 L 577.113281 139.496094 L 577.113281 130.437500 L 578.197266 130.437500 L 578.197266 131.275391 Q 578.466797 130.789062 578.915039 130.534180 Q 579.363281 130.279297 579.949219 130.279297 Q 581.138672 130.279297 581.815430 131.199219 Q 582.492188 132.119141 582.492188 133.748047 Q 582.492188 135.347656 581.812500 136.258789 Q 581.132812 137.169922 579.949219 137.169922 Q 579.351562 137.169922 578.903320 136.915039 Q 578.455078 136.660156 578.197266 136.173828 Z M 581.361328 133.724609 Q 581.361328 132.470703 580.965820 131.832031 Q 580.570312 131.193359 579.791016 131.193359 Q 579.005859 131.193359 578.601562 131.834961 Q 578.197266 132.476562 578.197266 133.724609 Q 578.197266 134.966797 578.601562 135.611328 Q 579.005859 136.255859 579.791016 136.255859 Q 580.570312 136.255859 580.965820 135.617188 Q 581.361328 134.978516 581.361328 133.724609 Z " fill="rgb(0, 0, 0)" fill-opacity="1.000000" />
<path d="M 585.851562 130.460938 L 588.611328 130.460938 L 588.611328 136.162109 L 590.750000 136.162109 L 590.750000 137.000000 L 585.394531 137.000000 L 585.394531 136.162109 L 587.533203 136.162109 L 587.533203 131.298828 L 585.851562 131.298828 Z M 587.533203 127.912109 L 588.611328 127.912109 L 588.611328 129.271484 L 587.533203 129.271484 Z " fill="rgb(0, 0, 0)" fill-opacity="1.000000" />
<path d="M 627.140625 140.621094 L 627.140625 125.328125 L 628.078125 125.328125 L 628.078125 140.621094 Z " fill="rgb(0, 0, 0)" fill-opacity="1.000000" />
<path d="M 167.882812 120.093750 L 167.882812 119.085938 L 175.341797 119.085938 L 175.341797 120.093750 Z " fill="rgb(0, 0, 0)" fill-opacity="1.000000" />
<path d="M 175.882812 120.093750 L 175.882812 119.085938 L 183.341797 119.085938 L 183.341797 120.093750 Z " fill="rgb(0, 0, 0)" fill-opacity="1.000000" />
<path d="M 183.882812 120.093750 L 183.882812 119.085938 L 191.341797 119.085938 L 191.341797 120.093750 Z " fill="rgb(0, 0, 0)" fill-opacity="1.000000" />
<path d="M 191.882812 120.093750 L 191.882812 119.085938 L 199.341797 119.085938 L 199.341797 120.093750 Z " fill="rgb(0, 0, 0)" fill-opacity="1.000000" />
<path d="M 199.882812 120.093750 L 199.882812 119.085938 L 207.341797 119.085938 L 207.341797 120.093750 Z " fill="rgb(0, 0, 0)" fill-opacity="1.000000" />
<path d="M 207.882812 120.093750 L 207.882812 119.085938 L 215.341797 119.085938 L 215.341797 120.093750 Z " fill="rgb(0, 0, 0)" fill-opacity="1.000000" />
<path d="M 215.882812 120.093750 L 215.882812 119.085938 L 223.341797 119.085938 L 223.341797 120.093750 Z " fill="rgb(0, 0, 0)" fill-opacity="1.000000" />
<path d="M 223.882812 120.093750 L 223.882812 119.085938 L 227.140625 119.085938 L 227.140625 111.328125 L 228.078125 111.328125 L 228.078125 119.085938 L 231.341797 119.085938 L 231.341797 120.093750 Z " fill="rgb(0, 0, 0)" fill-opacity="1.000000" />
<path d="M 231.882812 120.093750 L 231.882812 119.085938 L 239.341797 119.085938 L 239.341797 120.093750 Z " fill="rgb(0, 0, 0)" fill-opacity="1.000000" />
<path d="M 239.882812 120.093750 L 239.882812 119.085938 L 247.341797 119.085938 L 247.341797 120.093750 Z " fill="rgb(0, 0, 0)" fill-opacity="1.000000" />
<path d="M 247.882812 120.093750 L 247.882812 119.085938 L 255.341797 119.085938 L 255.341797 120.093750 Z " fill="rgb(0, 0, 0)" fill-opacity="1.000000" />
<path d="M 255.882812 120.093750 L 255.882812 119.085938 L 263.341797 119.085938 L 263.341797 120.093750 Z " fill="rgb(0, 0, 0)" fill-opacity="1.000000" />
<path d="M 263.882812 120.093750 L 263.882812 119.085938 L 271.341797 119.085938 L 271.341797 120.093750 Z " fill="rgb(0, 0, 0)" fill-opacity="1.000000" />
<path d="M 271.882812 120.093750 L 271.882812 119.085938 L 279.341797 119.085938 L 279.341797 120.093750 Z " fill="rgb(0, 0, 0)" fill-opacity="1.000000" />
<path d="M 279.882812 120.093750 L 279.882812 119.085938 L 287.341797 119.085938 L 287.341797 120.093750 Z " fill="rgb(0, 0, 0)" fill-opacity="1.000000" />
<path d="M 291.140625 126.621094 L 291.140625 120.093750 L 287.882812 120.093750 L 287.882812 119.085938 L 292.078125 119.085938 L 292.078125 126.621094 Z " fill="rgb(0, 0, 0)" fill-opacity="1.000000" />
<path d="M 339.140625 126.621094 L 339.140625 119.085938 L 343.341797 119.085938 L 343.341797 120.093750 L 340.078125 120.093750 L 340.078125 126.621094 Z " fill="rgb(0, 0, 0)" fill-opacity="1.000000" />
<path d="M 343.882812 120.093750 L 343.882812 119.085938 L 351.341797 119.085938 L 351.341797 120.093750 Z " fill="rgb(0, 0, 0)" fill-opacity="1.000000" />
<path d="M 351.882812 120.093750 L 351.882812 119.085938 L 359.341797 119.085938 L 359.341797 120.093750 Z " fill="rgb(0, 0, 0)" fill-opacity="1.000000" />
<path d="M 359.882812 120.093750 L 359.882812 119.085938 L 367.341797 119.085938 L 367.341797 120.093750 Z " fill="rgb(0, 0, 0)" fill-opacity="1.000000" />
<path d="M 367.882812 120.093750 L 367.882812 119.085938 L 375.341797 119.085938 L 375.341797 120.093750 Z " fill="rgb(0, 0, 0)" fill-opacity="1.000000" />
<path d="M 375.882812 120.093750 L 375.882812 119.085938 L 383.341797 119.085938 L 383.341797 120.093750 Z " fill="rgb(0, 0, 0)" fill-opacity="1.000000" />
<path d="M 383.882812 120.093750 L 383.882812 119.085938 L 391.341797 119.085938 L 391.341797 120.093750 Z " fill="rgb(0, 0, 0)" fill-opacity="1.000000" />
<path d="M 391.882812 120.093750 L 391.882812 119.085938 L 399.341797 119.085938 L 399.341797 120.093750 Z " fill="rgb(0, 0, 0)" fill-opacity="1.000000" />
<path d="M 399.882812 120.093750 L 399.882812 119.085938 L 407.341797 119.085938 L 407.341797 120.093750 Z " fill="rgb(0, 0, 0)" fill-opacity="1.000000" />
<path d="M 407.882812 120.093750 L 407.882812 119.085938 L 415.341797 119.085938 L 415.341797 120.093750 Z " fill="rgb(0, 0, 0)" fill-opacity="1.000000" />
<path d="M 415.882812 120.093750 L 415.882812 119.085938 L 423.341797 119.085938 L 423.341797 120.093750 Z " fill="rgb(0, 0, 0)" fill-opacity="1.000000" />
<path d="M 423.882812 120.093750 L 423.882812 119.085938 L 431.341797 119.085938 L 431.341797 120.093750 Z " fill="rgb(0, 0, 0)" fill-opacity="1.000000" />
<path d="M 431.882812 120.093750 L 431.882812 119.085938 L 439.341797 119.085938 L 439.341797 120.093750 Z " fill="rgb(0, 0, 0)" fill-opacity="1.000000" />
<path d="M 439.882812 120.093750 L 439.882812 119.085938 L 447.341797 119.085938 L 447.341797 120.093750 Z " fill="rgb(0, 0, 0)" fill-opacity="1.000000" />
<path d="M 447.882812 120.093750 L 447.882812 119.085938 L 455.341797 119.085938 L 455.341797 120.093750 Z " fill="rgb(0, 0, 0)" fill-opacity="1.000000" />
<path d="M 455.882812 120.093750 L 455.882812 119.085938 L 463.341797 119.085938 L 463.341797 120.093750 Z " fill="rgb(0, 0, 0)" fill-opacity="1.000000" />
<path d="M 467.140625 126.621094 L 467.140625 120.093750 L 463.882812 120.093750 L 463.882812 119.085938 L 468.078125 119.085938 L 468.078125 126.621094 Z " fill="rgb(0, 0, 0)" fill-opacity="1.000000" />
<path d="M 499.140625 126.621094 L 499.140625 119.085938 L 503.341797 119.085938 L 503.341797 120.093750 L 500.078125 120.093750 L 500.078125 126.621094 Z " fill="rgb(0, 0, 0)" fill-opacity="1.000000" />
<path d="M 503.882812 120.093750 L 503.882812 119.085938 L 511.341797 119.085938 L 511.341797 120.093750 Z " fill="rgb(0, 0, 0)" fill-opacity="1.000000" />
<path d="M 511.882812 120.093750 L 511.882812 119.085938 L 519.341797 119.085938 L 519.341797 120.093750 Z " fill="rgb(0, 0, 0)" fill-opacity="1.000000" />
<path d="M 519.882812 120.093750 L 519.882812 119.085938 L 527.341797 119.085938 L 527.341797 120.093750 Z " fill="rgb(0, 0, 0)" fill-opacity="1.000000" />
<path d="M 527.882812 120.093750 L 527.882812 119.085938 L 535.341797 119.085938 L 535.341797 120.093750 Z " fill="rgb(0, 0, 0)" fill-opacity="1.000000" />
<path d="M 535.882812 120.093750 L 535.882812 119.085938 L 543.341797 119.085938 L 543.341797 120.093750 Z " fill="rgb(0, 0, 0)" fill-opacity="1.000000" />
<path d="M 543.882812 120.093750 L 543.882812 119.085938 L 551.341797 119.085938 L 551.341797 120.093750 Z " fill="rgb(0, 0, 0)" fill-opacity="1.000000" />
<path d="M 551.882812 120.093750 L 551.882812 119.085938 L 559.341797 119.085938 L 559.341797 120.093750 Z " fill="rgb(0, 0, 0)" fill-opacity="1.000000" />
<path d="M 559.882812 120.093750 L 559.882812 119.085938 L 567.341797 119.085938 L 567.341797 120.093750 Z " fill="rgb(0, 0, 0)" fill-opacity="1.000000" />
<path d="M 567.882812 120.093750 L 567.882812 119.085938 L 575.341797 119.085938 L 575.341797 120.093750 Z " fill="rgb(0, 0, 0)" fill-opacity="1.000000" />
<path d="M 575.882812 120.093750 L 575.882812 119.085938 L 583.341797 119.085938 L 583.341797 120.093750 Z " fill="rgb(0, 0, 0)" fill-opacity="1.000000" />
<path d="M 583.882812 120.093750 L 583.882812 119.085938 L 591.341797 119.085938 L 591.341797 120.093750 Z " fill="rgb(0, 0, 0)" fill-opacity="1.000000" />
<path d="M 591.882812 120.093750 L 591.882812 119.085938 L 599.341797 119.085938 L 599.341797 120.093750 Z " fill="rgb(0, 0, 0)" fill-opacity="1.000000" />
<path d="M 599.882812 120.093750 L 599.882812 119.085938 L 607.341797 119.085938 L 607.341797 120.093750 Z " fill="rgb(0, 0, 0)" fill-opacity="1.000000" />
<path d="M 607.882812 120.093750 L 607.882812 119.085938 L 615.341797 119.085938 L 615.341797 120.093750 Z " fill="rgb(0, 0, 0)" fill-opacity="1.000000" />
<path d="M 615.882812 120.093750 L 615.882812 119.085938 L 623.341797 119.085938 L 623.341797 120.093750 Z " fill="rgb(0, 0, 0)" fill-opacity="1.000000" />
<path d="M 627.140625 126.621094 L 627.140625 120.093750 L 623.882812 120.093750 L 623.882812 119.085938 L 628.078125 119.085938 L 628.078125 126.621094 Z " fill="rgb(0, 0, 0)" fill-opacity="1.000000" />
<path d="M 227.140625 98.621094 L 227.140625 83.328125 L 228.078125 83.328125 L 228.078125 98.621094 Z " fill="rgb(0, 0, 0)" fill-opacity="1.000000" />
<path d="M 315.140625 112.621094 L 315.140625 97.328125 L 316.078125 97.328125 L 316.078125 112.621094 Z " fill="rgb(0, 0, 0)" fill-opacity="1.000000" />
<path d="M 403.140625 112.621094 L 403.140625 97.328125 L 404.078125 97.328125 L 404.078125 112.621094 Z " fill="rgb(0, 0, 0)" fill-opacity="1.000000" />
<path d="M 563.140625 112.621094 L 563.140625 97.328125 L 564.078125 97.328125 L 564.078125 112.621094 Z " fill="rgb(0, 0, 0)" fill-opacity="1.000000" />
<path d="M 231.882812 78.093750 L 231.882812 77.085938 L 239.341797 77.085938 L 239.341797 78.093750 Z " fill="rgb(0, 0, 0)" fill-opacity="1.000000" />
<path d="M 247.882812 78.093750 L 247.882812 77.085938 L 255.341797 77.085938 L 255.341797 78.093750 Z " fill="rgb(0, 0, 0)" fill-opacity="1.000000" />
<path d="M 263.882812 78.093750 L 263.882812 77.085938 L 271.341797 77.085938 L 271.341797 78.093750 Z " fill="rgb(0, 0, 0)" fill-opacity="1.000000" />
<path d="M 279.882812 78.093750 L 279.882812 77.085938 L 287.341797 77.085938 L 287.341797 78.093750 Z " fill="rgb(0, 0, 0)" fill-opacity="1.000000" />
<path d="M 295.882812 78.093750 L 295.882812 77.085938 L 303.341797 77.085938 L 303.341797 78.093750 Z " fill="rgb(0, 0, 0)" fill-opacity="1.000000" />
<path d="M 315.140625 84.621094 L 315.140625 78.093750 L 311.882812 78.093750 L 311.882812 77.085938 L 315.140625 77.085938 L 315.140625 69.328125 L 316.078125 69.328125 L 316.078125 84.621094 Z " fill="rgb(0, 0, 0)" fill-opacity="1.000000" />
<path d="M 319.882812 78.093750 L 319.882812 77.085938 L 327.341797 77.085938 L 327.341797 78.093750 Z " fill="rgb(0, 0, 0)" fill-opacity="1.000000" />
<path d="M 335.882812 78.093750 L 335.882812 77.085938 L 343.341797 77.085938 L 343.341797 78.093750 Z " fill="rgb(0, 0, 0)" fill-opacity="1.000000" />
<path d="M 351.882812 78.093750 L 351.882812 77.085938 L 359.341797 77.085938 L 359.341797 78.093750 Z " fill="rgb(0, 0, 0)" fill-opacity="1.000000" />
<path d="M 367.882812 78.093750 L 367.882812 77.085938 L 375.341797 77.085938 L 375.341797 78.093750 Z " fill="rgb(0, 0, 0)" fill-opacity="1.000000" />
<path d="M 383.882812 78.093750 L 383.882812 77.085938 L 391.341797 77.085938 L 391.341797 78.093750 Z " fill="rgb(0, 0, 0)" fill-opacity="1.000000" />
<path d="M 403.140625 84.621094 L 403.140625 78.093750 L 399.882812 78.093750 L 399.882812 77.085938 L 407.341797 77.085938 L 407.341797 78.093750 L 404.078125 78.093750 L 404.078125 84.621094 Z " fill="rgb(0, 0, 0)" fill-opacity="1.000000" />
<path d="M 415.882812 78.093750 L 415.882812 77.085938 L 423.341797 77.085938 L 423.341797 78.093750 Z " fill="rgb(0, 0, 0)" fill-opacity="1.000000" />
<path d="M 431.882812 78.093750 L 431.882812 77.085938 L 439.341797 77.085938 L 439.341797 78.093750 Z " fill="rgb(0, 0, 0)" fill-opacity="1.000000" />
<path d="M 447.882812 78.093750 L 447.882812 77.085938 L 455.341797 77.085938 L 455.341797 78.093750 Z " fill="rgb(0, 0, 0)" fill-opacity="1.000000" />
<path d="M 463.882812 78.093750 L 463.882812 77.085938 L 471.341797 77.085938 L 471.341797 78.093750 Z " fill="rgb(0, 0, 0)" fill-opacity="1.000000" />
<path d="M 479.882812 78.093750 L 479.882812 77.085938 L 487.341797 77.085938 L 487.341797 78.093750 Z " fill="rgb(0, 0, 0)" fill-opacity="1.000000" />
<path d="M 495.882812 78.093750 L 495.882812 77.085938 L 503.341797 77.085938 L 503.341797 78.093750 Z " fill="rgb(0, 0, 0)" fill-opacity="1.000000" />
<path d="M 511.882812 78.093750 L 511.882812 77.085938 L 519.341797 77.085938 L 519.341797 78.093750 Z " fill="rgb(0, 0, 0)" fill-opacity="1.000000" />
<path d="M 527.882812 78.093750 L 527.882812 77.085938 L 535.341797 77.085938 L 535.341797 78.093750 Z " fill="rgb(0, 0, 0)" fill-opacity="1.000000" />
<path d="M 543.882812 78.093750 L 543.882812 77.085938 L 551.341797 77.085938 L 551.341797 78.093750 Z " fill="rgb(0, 0, 0)" fill-opacity="1.000000" />
<path d="M 563.140625 84.621094 L 563.140625 78.093750 L 559.882812 78.093750 L 559.882812 77.085938 L 564.078125 77.085938 L 564.078125 84.621094 Z " fill="rgb(0, 0, 0)" fill-opacity="1.000000" />
<path d="M 251.140625 14.621094 L 251.140625 7.085938 L 255.341797 7.085938 L 255.341797 8.093750 L 252.078125 8.093750 L 252.078125 14.621094 Z " fill="rgb(0, 0, 0)" fill-opacity="1.000000" />
<path d="M 251.140625 28.621094 L 251.140625 13.328125 L 252.078125 13.328125 L 252.078125 28.621094 Z " fill="rgb(0, 0, 0)" fill-opacity="1.000000" />
<path d="M 251.140625 36.093750 L 251.140625 27.328125 L 252.078125 27.328125 L 252.078125 35.085938 L 255.341797 35.085938 L 255.341797 36.093750 Z " fill="rgb(0, 0, 0)" fill-opacity="1.000000" />
<path d="M 312.035156 53.457031 L 315.609375 46.308594 L 319.189453 53.457031 Z " fill="rgb(0, 0, 0)" fill-opacity="1.000000" />
<path d="M 255.882812 36.093750 L 255.882812 35.085938 L 263.341797 35.085938 L 263.341797 36.093750 Z " fill="rgb(0, 0, 0)" fill-opacity="1.000000" />
<path d="M 263.882812 36.093750 L 263.882812 35.085938 L 271.341797 35.085938 L 271.341797 36.093750 Z " fill="rgb(0, 0, 0)" fill-opacity="1.000000" />
<path d="M 271.882812 36.093750 L 271.882812 35.085938 L 279.341797 35.085938 L 279.341797 36.093750 Z " fill="rgb(0, 0, 0)" fill-opacity="1.000000" />
<path d="M 279.882812 36.093750 L 279.882812 35.085938 L 287.341797 35.085938 L 287.341797 36.093750 Z " fill="rgb(0, 0, 0)" fill-opacity="1.000000" />
<path d="M 287.882812 36.093750 L 287.882812 35.085938 L 295.341797 35.085938 L 295.341797 36.093750 Z " fill="rgb(0, 0, 0)" fill-opacity="1.000000" />
<path d="M 295.882812 36.093750 L 295.882812 35.085938 L 303.341797 35.085938 L 303.341797 36.093750 Z " fill="rgb(0, 0, 0)" fill-opacity="1.000000" />
<path d="M 303.882812 36.093750 L 303.882812 35.085938 L 311.341797 35.085938 L 311.341797 36.093750 Z " fill="rgb(0, 0, 0)" fill-opacity="1.000000" />
<path d="M 311.882812 36.093750 L 311.882812 35.085938 L 319.341797 35.085938 L 319.341797 36.093750 Z " fill="rgb(0, 0, 0)" fill-opacity="1.000000" />
<path d="M 319.882812 36.093750 L 319.882812 35.085938 L 327.341797 35.085938 L 327.341797 36.093750 Z " fill="rgb(0, 0, 0)" fill-opacity="1.000000" />
<path d="M 327.882812 36.093750 L 327.882812 35.085938 L 335.341797 35.085938 L 335.341797 36.093750 Z " fill="rgb(0, 0, 0)" fill-opacity="1.000000" />
<path d="M 335.882812 36.093750 L 335.882812 35.085938 L 343.341797 35.085938 L 343.341797 36.093750 Z " fill="rgb(0, 0, 0)" fill-opacity="1.000000" />
<path d="M 343.882812 36.093750 L 343.882812 35.085938 L 351.341797 35.085938 L 351.341797 36.093750 Z " fill="rgb(0, 0, 0)" fill-opacity="1.000000" />
<path d="M 351.882812 36.093750 L 351.882812 35.085938 L 359.341797 35.085938 L 359.341797 36.093750 Z " fill="rgb(0, 0, 0)" fill-opacity="1.000000" />
<path d="M 359.882812 36.093750 L 359.882812 35.085938 L 367.341797 35.085938 L 367.341797 36.093750 Z " fill="rgb(0, 0, 0)" fill-opacity="1.000000" />
<path d="M 367.882812 36.093750 L 367.882812 35.085938 L 375.341797 35.085938 L 375.341797 36.093750 Z " fill="rgb(0, 0, 0)" fill-opacity="1.000000" />
<path d="M 375.882812 36.093750 L 375.882812 35.085938 L 379.140625 35.085938 L 379.140625 27.328125 L 380.078125 27.328125 L 380.078125 36.093750 Z " fill="rgb(0, 0, 0)" fill-opacity="1.000000" />
<path d="M 302.216797 24.666016 Q 301.783203 24.917969 301.323242 25.043945 Q 300.863281 25.169922 300.382812 25.169922 Q 298.859375 25.169922 298.000977 24.255859 Q 297.142578 23.341797 297.142578 21.724609 Q 297.142578 20.107422 298.000977 19.193359 Q 298.859375 18.279297 300.382812 18.279297 Q 300.857422 18.279297 301.308594 18.402344 Q 301.759766 18.525391 302.216797 18.783203 L 302.216797 19.914062 Q 301.789062 19.533203 301.358398 19.363281 Q 300.927734 19.193359 300.382812 19.193359 Q 299.369141 19.193359 298.824219 19.849609 Q 298.279297 20.505859 298.279297 21.724609 Q 298.279297 22.937500 298.827148 23.596680 Q 299.375000 24.255859 300.382812 24.255859 Q 300.945312 24.255859 301.390625 24.083008 Q 301.835938 23.910156 302.216797 23.546875 Z " fill="rgb(0, 0, 0)" fill-opacity="1.000000" />
<path d="M 307.609375 19.193359 Q 306.789062 19.193359 306.367188 19.832031 Q 305.945312 20.470703 305.945312 21.724609 Q 305.945312 22.972656 306.367188 23.614258 Q 306.789062 24.255859 307.609375 24.255859 Q 308.435547 24.255859 308.857422 23.614258 Q 309.279297 22.972656 309.279297 21.724609 Q 309.279297 20.470703 308.857422 19.832031 Q 308.435547 19.193359 307.609375 19.193359 Z M 307.609375 18.279297 Q 308.974609 18.279297 309.698242 19.164062 Q 310.421875 20.048828 310.421875 21.724609 Q 310.421875 23.406250 309.701172 24.288086 Q 308.980469 25.169922 307.609375 25.169922 Q 306.244141 25.169922 305.523438 24.288086 Q 304.802734 23.406250 304.802734 21.724609 Q 304.802734 20.048828 305.523438 19.164062 Q 306.244141 18.279297 307.609375 18.279297 Z " fill="rgb(0, 0, 0)" fill-opacity="1.000000" />
<path d="M 318.767578 19.791016 Q 318.421875 19.521484 318.064453 19.398438 Q 317.707031 19.275391 317.279297 19.275391 Q 316.271484 19.275391 315.738281 19.908203 Q 315.205078 20.541016 315.205078 21.736328 L 315.205078 25.000000 L 314.121094 25.000000 L 314.121094 18.437500 L 315.205078 18.437500 L 315.205078 19.720703 Q 315.474609 19.023438 316.034180 18.651367 Q 316.593750 18.279297 317.361328 18.279297 Q 317.759766 18.279297 318.105469 18.378906 Q 318.451172 18.478516 318.767578 18.689453 Z " fill="rgb(0, 0, 0)" fill-opacity="1.000000" />
<path d="M 326.562500 21.179688 L 326.562500 21.707031 L 321.892578 21.707031 L 321.892578 21.742188 Q 321.845703 23.083984 322.405273 23.669922 Q 322.964844 24.255859 323.984375 24.255859 Q 324.500000 24.255859 325.062500 24.091797 Q 325.625000 23.927734 326.263672 23.593750 L 326.263672 24.666016 Q 325.648438 24.917969 325.077148 25.043945 Q 324.505859 25.169922 323.972656 25.169922 Q 322.443359 25.169922 321.582031 24.252930 Q 320.720703 23.335938 320.720703 21.724609 Q 320.720703 20.154297 321.564453 19.216797 Q 322.408203 18.279297 323.814453 18.279297 Q 325.068359 18.279297 325.791992 19.128906 Q 326.515625 19.978516 326.562500 21.179688 Z M 325.484375 20.863281 Q 325.414062 20.183594 324.989258 19.688477 Q 324.564453 19.193359 323.767578 19.193359 Q 322.988281 19.193359 322.484375 19.708984 Q 321.980469 20.224609 321.933594 20.869141 Z " fill="rgb(0, 0, 0)" fill-opacity="1.000000" />
<path d="M 379.140625 28.621094 L 379.140625 13.328125 L 380.078125 13.328125 L 380.078125 28.621094 Z " fill="rgb(0, 0, 0)" fill-opacity="1.000000" />
<path d="M 255.882812 8.093750 L 255.882812 7.085938 L 263.341797 7.085938 L 263.341797 8.093750 Z " fill="rgb(0, 0, 0)" fill-opacity="1.000000" />
<path d="M 263.882812 8.093750 L 263.882812 7.085938 L 271.341797 7.085938 L 271.341797 8.093750 Z " fill="rgb(0, 0, 0)" fill-opacity="1.000000" />
<path d="M 271.882812 8.093750 L 271.882812 7.085938 L 279.341797 7.085938 L 279.341797 8.093750 Z " fill="rgb(0, 0, 0)" fill-opacity="1.000000" />
<path d="M 279.882812 8.093750 L 279.882812 7.085938 L 287.341797 7.085938 L 287.341797 8.093750 Z " fill="rgb(0, 0, 0)" fill-opacity="1.000000" />
<path d="M 287.882812 8.093750 L 287.882812 7.085938 L 295.341797 7.085938 L 295.341797 8.093750 Z " fill="rgb(0, 0, 0)" fill-opacity="1.000000" />
<path d="M 295.882812 8.093750 L 295.882812 7.085938 L 303.341797 7.085938 L 303.341797 8.093750 Z " fill="rgb(0, 0, 0)" fill-opacity="1.000000" />
<path d="M 303.882812 8.093750 L 303.882812 7.085938 L 311.341797 7.085938 L 311.341797 8.093750 Z " fill="rgb(0, 0, 0)" fill-opacity="1.000000" />
<path d="M 311.882812 8.093750 L 311.882812 7.085938 L 319.341797 7.085938 L 319.341797 8.093750 Z " fill="rgb(0, 0, 0)" fill-opacity="1.000000" />
<path d="M 319.882812 8.093750 L 319.882812 7.085938 L 327.341797 7.085938 L 327.341797 8.093750 Z " fill="rgb(0, 0, 0)" fill-opacity="1.000000" />
<path d="M 327.882812 8.093750 L 327.882812 7.085938 L 335.341797 7.085938 L 335.341797 8.093750 Z " fill="rgb(0, 0, 0)" fill-opacity="1.000000" />
<path d="M 335.882812 8.093750 L 335.882812 7.085938 L 343.341797 7.085938 L 343.341797 8.093750 Z " fill="rgb(0, 0, 0)" fill-opacity="1.000000" />
<path d="M 343.882812 8.093750 L 343.882812 7.085938 L 351.341797 7.085938 L 351.341797 8.093750 Z " fill="rgb(0, 0, 0)" fill-opacity="1.000000" />
<path d="M 351.882812 8.093750 L 351.882812 7.085938 L 359.341797 7.085938 L 359.341797 8.093750 Z " fill="rgb(0, 0, 0)" fill-opacity="1.000000" />
<path d="M 359.882812 8.093750 L 359.882812 7.085938 L 367.341797 7.085938 L 367.341797 8.093750 Z " fill="rgb(0, 0, 0)" fill-opacity="1.000000" />
<path d="M 367.882812 8.093750 L 367.882812 7.085938 L 375.341797 7.085938 L 375.341797 8.093750 Z " fill="rgb(0, 0, 0)" fill-opacity="1.000000" />
<path d="M 379.140625 14.621094 L 379.140625 8.093750 L 375.882812 8.093750 L 375.882812 7.085938 L 380.078125 7.085938 L 380.078125 14.621094 Z " fill="rgb(0, 0, 0)" fill-opacity="1.000000" />
</svg>